<?xml version="1.0" encoding="UTF-8" standalone="no"?>
<!DOCTYPE svg PUBLIC "-//W3C//DTD SVG 1.1//EN" "http://www.w3.org/Graphics/SVG/1.1/DTD/svg11.dtd">
<svg width="100%" height="100%" viewBox="0 0 2700 1410" version="1.1" xmlns="http://www.w3.org/2000/svg" xmlns:xlink="http://www.w3.org/1999/xlink" xml:space="preserve" xmlns:serif="http://www.serif.com/" style="fill-rule:evenodd;clip-rule:evenodd;stroke-linecap:round;stroke-linejoin:round;stroke-miterlimit:1.5;">
    <g transform="matrix(1,0,0,1,-33.8359,13.0625)">
        <g transform="matrix(1,0,0,1,1.97128,40)">
            <g transform="matrix(1,0,0,1,365.17,754.486)">
                <g transform="matrix(1,0,0,1,1531.64,-114.961)">
                    <path d="M771.603,326.91C771.603,272.77 727.649,228.816 673.509,228.816L352.66,228.816C298.52,228.816 254.566,272.77 254.566,326.91L254.566,523.098C254.566,577.237 298.52,621.192 352.66,621.192L673.509,621.192C727.649,621.192 771.603,577.237 771.603,523.098L771.603,326.91Z" style="fill:none;stroke:rgb(64,64,64);stroke-width:16.67px;"/>
                </g>
                <g transform="matrix(1,0,0,1,-55.0843,-61.076)">
                    <path d="M1974.88,346.866L1974.88,363.101L1969.41,363.101L1969.41,321.63L1984.71,321.63C1989.24,321.63 1992.8,322.788 1995.37,325.105C1997.95,327.421 1999.23,330.488 1999.23,334.305C1999.23,338.33 1997.97,341.43 1995.46,343.604C1992.94,345.779 1989.34,346.866 1984.65,346.866L1974.88,346.866ZM1974.88,342.394L1984.71,342.394C1987.63,342.394 1989.87,341.705 1991.43,340.329C1992.99,338.952 1993.76,336.963 1993.76,334.362C1993.76,331.893 1992.99,329.918 1991.43,328.437C1989.87,326.956 1987.74,326.187 1985.02,326.13L1974.88,326.13L1974.88,342.394Z" style="fill:rgb(64,64,64);fill-rule:nonzero;stroke:rgb(64,64,64);stroke-width:1px;stroke-linecap:butt;stroke-miterlimit:2;"/>
                    <path d="M2017.8,363.671C2013.63,363.671 2010.23,362.299 2007.61,359.555C2004.99,356.811 2003.68,353.141 2003.68,348.546L2003.68,347.578C2003.68,344.521 2004.26,341.791 2005.43,339.389C2006.6,336.987 2008.23,335.107 2010.33,333.749C2012.42,332.391 2014.7,331.713 2017.15,331.713C2021.15,331.713 2024.27,333.032 2026.49,335.672C2028.71,338.311 2029.82,342.09 2029.82,347.008L2029.82,349.201L2008.94,349.201C2009.02,352.239 2009.91,354.694 2011.61,356.564C2013.31,358.435 2015.47,359.37 2018.09,359.37C2019.95,359.37 2021.53,358.99 2022.82,358.23C2024.11,357.471 2025.24,356.464 2026.21,355.211L2029.42,357.718C2026.84,361.686 2022.97,363.671 2017.8,363.671ZM2017.15,336.042C2015.02,336.042 2013.24,336.816 2011.79,338.363C2010.35,339.911 2009.46,342.08 2009.12,344.872L2024.55,344.872L2024.55,344.473C2024.4,341.796 2023.68,339.721 2022.39,338.25C2021.1,336.778 2019.35,336.042 2017.15,336.042Z" style="fill:rgb(64,64,64);fill-rule:nonzero;stroke:rgb(64,64,64);stroke-width:1px;stroke-linecap:butt;stroke-miterlimit:2;"/>
                    <path d="M2050.82,337.01C2050.02,336.878 2049.15,336.811 2048.22,336.811C2044.77,336.811 2042.42,338.283 2041.19,341.226L2041.19,363.101L2035.92,363.101L2035.92,332.282L2041.05,332.282L2041.13,335.843C2042.86,333.089 2045.31,331.713 2048.48,331.713C2049.51,331.713 2050.28,331.846 2050.82,332.111L2050.82,337.01Z" style="fill:rgb(64,64,64);fill-rule:nonzero;stroke:rgb(64,64,64);stroke-width:1px;stroke-linecap:butt;stroke-miterlimit:2;"/>
                    <path d="M2067.48,359.37C2069.36,359.37 2071,358.8 2072.41,357.661C2073.81,356.521 2074.59,355.097 2074.74,353.388L2079.72,353.388C2079.63,355.154 2079.02,356.835 2077.9,358.43C2076.78,360.025 2075.29,361.297 2073.42,362.246C2071.55,363.196 2069.57,363.671 2067.48,363.671C2063.28,363.671 2059.94,362.27 2057.47,359.469C2054.99,356.669 2053.75,352.838 2053.75,347.976L2053.75,347.093C2053.75,344.093 2054.3,341.425 2055.4,339.09C2056.5,336.754 2058.08,334.941 2060.14,333.649C2062.2,332.358 2064.64,331.713 2067.45,331.713C2070.91,331.713 2073.78,332.748 2076.07,334.817C2078.35,336.887 2079.57,339.574 2079.72,342.878L2074.74,342.878C2074.59,340.884 2073.83,339.246 2072.48,337.965C2071.12,336.683 2069.44,336.042 2067.45,336.042C2064.77,336.042 2062.7,337.006 2061.23,338.933C2059.75,340.86 2059.02,343.647 2059.02,347.293L2059.02,348.29C2059.02,351.841 2059.75,354.575 2061.21,356.493C2062.67,358.411 2064.76,359.37 2067.48,359.37Z" style="fill:rgb(64,64,64);fill-rule:nonzero;stroke:rgb(64,64,64);stroke-width:1px;stroke-linecap:butt;stroke-miterlimit:2;"/>
                    <path d="M2084.25,347.407C2084.25,344.388 2084.85,341.672 2086.03,339.261C2087.22,336.849 2088.87,334.988 2090.99,333.678C2093.11,332.368 2095.52,331.713 2098.24,331.713C2102.44,331.713 2105.83,333.165 2108.42,336.071C2111.01,338.976 2112.31,342.84 2112.31,347.663L2112.31,348.033C2112.31,351.034 2111.74,353.725 2110.59,356.108C2109.44,358.491 2107.8,360.348 2105.66,361.677C2103.52,363.006 2101.07,363.671 2098.3,363.671C2094.12,363.671 2090.73,362.218 2088.14,359.313C2085.55,356.407 2084.25,352.562 2084.25,347.777L2084.25,347.407ZM2089.55,348.033C2089.55,351.451 2090.35,354.195 2091.93,356.265C2093.52,358.335 2095.64,359.37 2098.3,359.37C2100.97,359.37 2103.1,358.321 2104.68,356.222C2106.25,354.124 2107.04,351.186 2107.04,347.407C2107.04,344.027 2106.24,341.288 2104.63,339.189C2103.03,337.091 2100.9,336.042 2098.24,336.042C2095.64,336.042 2093.54,337.077 2091.95,339.147C2090.35,341.216 2089.55,344.179 2089.55,348.033Z" style="fill:rgb(64,64,64);fill-rule:nonzero;stroke:rgb(64,64,64);stroke-width:1px;stroke-linecap:butt;stroke-miterlimit:2;"/>
                    <rect x="2119.37" y="319.351" width="5.269" height="43.75" style="fill:rgb(64,64,64);fill-rule:nonzero;stroke:rgb(64,64,64);stroke-width:1px;stroke-linecap:butt;stroke-miterlimit:2;"/>
                    <path d="M2152.1,363.101C2151.8,362.493 2151.55,361.411 2151.36,359.854C2148.91,362.398 2145.99,363.671 2142.59,363.671C2139.55,363.671 2137.06,362.811 2135.11,361.093C2133.16,359.374 2132.19,357.195 2132.19,354.556C2132.19,351.347 2133.41,348.855 2135.85,347.079C2138.29,345.304 2141.72,344.416 2146.15,344.416L2151.28,344.416L2151.28,341.995C2151.28,340.153 2150.72,338.686 2149.62,337.594C2148.52,336.503 2146.9,335.957 2144.75,335.957C2142.87,335.957 2141.3,336.431 2140.02,337.381C2138.75,338.33 2138.12,339.479 2138.12,340.827L2132.82,340.827C2132.82,339.289 2133.36,337.803 2134.46,336.37C2135.55,334.936 2137.03,333.801 2138.9,332.966C2140.77,332.13 2142.82,331.713 2145.07,331.713C2148.62,331.713 2151.4,332.6 2153.41,334.376C2155.42,336.151 2156.47,338.596 2156.54,341.71L2156.54,355.895C2156.54,358.724 2156.91,360.974 2157.63,362.645L2157.63,363.101L2152.1,363.101ZM2143.36,359.085C2145.01,359.085 2146.57,358.658 2148.06,357.803C2149.54,356.949 2150.61,355.838 2151.28,354.471L2151.28,348.147L2147.14,348.147C2140.69,348.147 2137.46,350.037 2137.46,353.816C2137.46,355.468 2138.01,356.759 2139.11,357.689C2140.21,358.62 2141.63,359.085 2143.36,359.085Z" style="fill:rgb(64,64,64);fill-rule:nonzero;stroke:rgb(64,64,64);stroke-width:1px;stroke-linecap:butt;stroke-miterlimit:2;"/>
                    <path d="M2171.95,324.82L2171.95,332.282L2177.71,332.282L2177.71,336.355L2171.95,336.355L2171.95,355.468C2171.95,356.702 2172.21,357.627 2172.72,358.245C2173.24,358.862 2174.11,359.17 2175.34,359.17C2175.95,359.17 2176.79,359.056 2177.85,358.829L2177.85,363.101C2176.46,363.481 2175.12,363.671 2173.8,363.671C2171.45,363.671 2169.68,362.959 2168.48,361.534C2167.28,360.11 2166.68,358.088 2166.68,355.468L2166.68,336.355L2161.07,336.355L2161.07,332.282L2166.68,332.282L2166.68,324.82L2171.95,324.82Z" style="fill:rgb(64,64,64);fill-rule:nonzero;stroke:rgb(64,64,64);stroke-width:1px;stroke-linecap:butt;stroke-miterlimit:2;"/>
                    <path d="M2181.89,347.407C2181.89,344.388 2182.49,341.672 2183.67,339.261C2184.86,336.849 2186.51,334.988 2188.63,333.678C2190.75,332.368 2193.16,331.713 2195.88,331.713C2200.08,331.713 2203.47,333.165 2206.06,336.071C2208.65,338.976 2209.95,342.84 2209.95,347.663L2209.95,348.033C2209.95,351.034 2209.38,353.725 2208.23,356.108C2207.08,358.491 2205.43,360.348 2203.3,361.677C2201.16,363.006 2198.71,363.671 2195.94,363.671C2191.76,363.671 2188.37,362.218 2185.78,359.313C2183.19,356.407 2181.89,352.562 2181.89,347.777L2181.89,347.407ZM2187.19,348.033C2187.19,351.451 2187.99,354.195 2189.57,356.265C2191.16,358.335 2193.28,359.37 2195.94,359.37C2198.61,359.37 2200.74,358.321 2202.32,356.222C2203.89,354.124 2204.68,351.186 2204.68,347.407C2204.68,344.027 2203.88,341.288 2202.27,339.189C2200.67,337.091 2198.54,336.042 2195.88,336.042C2193.28,336.042 2191.18,337.077 2189.59,339.147C2187.99,341.216 2187.19,344.179 2187.19,348.033Z" style="fill:rgb(64,64,64);fill-rule:nonzero;stroke:rgb(64,64,64);stroke-width:1px;stroke-linecap:butt;stroke-miterlimit:2;"/>
                    <path d="M2231.45,337.01C2230.66,336.878 2229.79,336.811 2228.86,336.811C2225.41,336.811 2223.06,338.283 2221.83,341.226L2221.83,363.101L2216.56,363.101L2216.56,332.282L2221.68,332.282L2221.77,335.843C2223.5,333.089 2225.95,331.713 2229.12,331.713C2230.14,331.713 2230.92,331.846 2231.45,332.111L2231.45,337.01Z" style="fill:rgb(64,64,64);fill-rule:nonzero;stroke:rgb(64,64,64);stroke-width:1px;stroke-linecap:butt;stroke-miterlimit:2;"/>
                    <path d="M1905.15,404.658L1895.41,404.658L1895.41,421.434L1889.91,421.434L1889.91,379.963L1903.64,379.963C1908.31,379.963 1911.91,381.026 1914.42,383.153C1916.94,385.28 1918.2,388.375 1918.2,392.439C1918.2,395.021 1917.5,397.271 1916.1,399.189C1914.71,401.107 1912.77,402.541 1910.28,403.49L1920.02,421.093L1920.02,421.434L1914.15,421.434L1905.15,404.658ZM1895.41,400.186L1903.81,400.186C1906.53,400.186 1908.69,399.483 1910.29,398.078C1911.9,396.673 1912.7,394.793 1912.7,392.439C1912.7,389.875 1911.94,387.91 1910.41,386.543C1908.88,385.175 1906.67,384.482 1903.79,384.463L1895.41,384.463L1895.41,400.186Z" style="fill:rgb(64,64,64);fill-rule:nonzero;stroke:rgb(64,64,64);stroke-width:1px;stroke-linecap:butt;stroke-miterlimit:2;"/>
                    <path d="M1937.82,422.004C1933.64,422.004 1930.25,420.632 1927.63,417.888C1925.01,415.144 1923.69,411.475 1923.69,406.879L1923.69,405.911C1923.69,402.854 1924.28,400.124 1925.45,397.722C1926.62,395.32 1928.25,393.44 1930.35,392.083C1932.44,390.725 1934.72,390.046 1937.17,390.046C1941.17,390.046 1944.29,391.366 1946.51,394.005C1948.73,396.645 1949.84,400.423 1949.84,405.341L1949.84,407.535L1928.96,407.535C1929.04,410.573 1929.93,413.027 1931.63,414.897C1933.33,416.768 1935.49,417.703 1938.11,417.703C1939.97,417.703 1941.55,417.323 1942.84,416.564C1944.13,415.804 1945.26,414.798 1946.23,413.545L1949.44,416.051C1946.86,420.02 1942.99,422.004 1937.82,422.004ZM1937.17,394.375C1935.04,394.375 1933.26,395.149 1931.81,396.697C1930.37,398.244 1929.48,400.414 1929.13,403.205L1944.57,403.205L1944.57,402.806C1944.42,400.129 1943.7,398.054 1942.41,396.583C1941.12,395.111 1939.37,394.375 1937.17,394.375Z" style="fill:rgb(64,64,64);fill-rule:nonzero;stroke:rgb(64,64,64);stroke-width:1px;stroke-linecap:butt;stroke-miterlimit:2;"/>
                    <rect x="1953" y="401.667" width="13.9" height="4.301" style="fill:rgb(64,64,64);fill-rule:nonzero;stroke:rgb(64,64,64);stroke-width:1px;stroke-linecap:butt;stroke-miterlimit:2;"/>
                    <path d="M1989.98,413.26C1989.98,411.836 1989.44,410.729 1988.37,409.941C1987.29,409.153 1985.42,408.475 1982.76,407.905C1980.09,407.335 1977.97,406.652 1976.4,405.854C1974.84,405.057 1973.68,404.107 1972.93,403.006C1972.18,401.904 1971.8,400.594 1971.8,399.075C1971.8,396.55 1972.87,394.413 1975.01,392.666C1977.14,390.919 1979.87,390.046 1983.2,390.046C1986.69,390.046 1989.52,390.948 1991.7,392.752C1993.87,394.556 1994.96,396.863 1994.96,399.673L1989.66,399.673C1989.66,398.23 1989.05,396.986 1987.83,395.942C1986.6,394.898 1985.06,394.375 1983.2,394.375C1981.28,394.375 1979.78,394.793 1978.7,395.629C1977.61,396.464 1977.07,397.556 1977.07,398.904C1977.07,400.176 1977.58,401.135 1978.58,401.781C1979.59,402.427 1981.41,403.044 1984.04,403.632C1986.67,404.221 1988.8,404.924 1990.43,405.74C1992.06,406.557 1993.28,407.539 1994.06,408.688C1994.85,409.837 1995.25,411.237 1995.25,412.889C1995.25,415.643 1994.14,417.85 1991.94,419.512C1989.74,421.173 1986.88,422.004 1983.37,422.004C1980.9,422.004 1978.72,421.567 1976.82,420.694C1974.92,419.82 1973.43,418.6 1972.36,417.034C1971.29,415.467 1970.75,413.772 1970.75,411.949L1976.02,411.949C1976.11,413.715 1976.82,415.116 1978.14,416.151C1979.46,417.186 1981.2,417.703 1983.37,417.703C1985.36,417.703 1986.96,417.3 1988.17,416.493C1989.37,415.685 1989.98,414.608 1989.98,413.26Z" style="fill:rgb(64,64,64);fill-rule:nonzero;stroke:rgb(64,64,64);stroke-width:1px;stroke-linecap:butt;stroke-miterlimit:2;"/>
                    <path d="M2014.47,417.703C2016.35,417.703 2017.99,417.133 2019.4,415.994C2020.8,414.855 2021.58,413.431 2021.73,411.722L2026.72,411.722C2026.62,413.488 2026.02,415.168 2024.89,416.763C2023.78,418.358 2022.28,419.63 2020.41,420.58C2018.54,421.529 2016.56,422.004 2014.47,422.004C2010.27,422.004 2006.94,420.604 2004.46,417.803C2001.98,415.002 2000.74,411.171 2000.74,406.31L2000.74,405.427C2000.74,402.427 2001.29,399.759 2002.39,397.423C2003.5,395.087 2005.08,393.274 2007.14,391.983C2009.2,390.692 2011.63,390.046 2014.44,390.046C2017.9,390.046 2020.77,391.081 2023.06,393.151C2025.35,395.22 2026.57,397.907 2026.72,401.211L2021.73,401.211C2021.58,399.218 2020.83,397.58 2019.47,396.298C2018.11,395.016 2016.44,394.375 2014.44,394.375C2011.77,394.375 2009.69,395.339 2008.22,397.266C2006.75,399.194 2006.01,401.98 2006.01,405.626L2006.01,406.623C2006.01,410.174 2006.74,412.908 2008.2,414.826C2009.67,416.744 2011.76,417.703 2014.47,417.703Z" style="fill:rgb(64,64,64);fill-rule:nonzero;stroke:rgb(64,64,64);stroke-width:1px;stroke-linecap:butt;stroke-miterlimit:2;"/>
                    <path d="M2031.25,405.74C2031.25,402.721 2031.84,400.006 2033.03,397.594C2034.21,395.182 2035.87,393.322 2037.98,392.011C2040.1,390.701 2042.52,390.046 2045.23,390.046C2049.43,390.046 2052.82,391.499 2055.41,394.404C2058.01,397.309 2059.3,401.173 2059.3,405.996L2059.3,406.367C2059.3,409.367 2058.73,412.059 2057.58,414.442C2056.43,416.825 2054.79,418.681 2052.65,420.01C2050.52,421.339 2048.06,422.004 2045.29,422.004C2041.11,422.004 2037.73,420.551 2035.13,417.646C2032.54,414.741 2031.25,410.896 2031.25,406.11L2031.25,405.74ZM2036.55,406.367C2036.55,409.785 2037.34,412.529 2038.92,414.598C2040.51,416.668 2042.63,417.703 2045.29,417.703C2047.97,417.703 2050.09,416.654 2051.67,414.556C2053.25,412.457 2054.03,409.519 2054.03,405.74C2054.03,402.36 2053.23,399.621 2051.63,397.523C2050.02,395.425 2047.89,394.375 2045.23,394.375C2042.63,394.375 2040.53,395.41 2038.94,397.48C2037.34,399.55 2036.55,402.512 2036.55,406.367Z" style="fill:rgb(64,64,64);fill-rule:nonzero;stroke:rgb(64,64,64);stroke-width:1px;stroke-linecap:butt;stroke-miterlimit:2;"/>
                    <path d="M2080.81,395.344C2080.01,395.211 2079.15,395.144 2078.22,395.144C2074.76,395.144 2072.41,396.616 2071.18,399.559L2071.18,421.434L2065.91,421.434L2065.91,390.616L2071.04,390.616L2071.12,394.176C2072.85,391.423 2075.3,390.046 2078.47,390.046C2079.5,390.046 2080.28,390.179 2080.81,390.445L2080.81,395.344Z" style="fill:rgb(64,64,64);fill-rule:nonzero;stroke:rgb(64,64,64);stroke-width:1px;stroke-linecap:butt;stroke-miterlimit:2;"/>
                    <path d="M2097.9,422.004C2093.72,422.004 2090.32,420.632 2087.7,417.888C2085.08,415.144 2083.77,411.475 2083.77,406.879L2083.77,405.911C2083.77,402.854 2084.35,400.124 2085.52,397.722C2086.69,395.32 2088.32,393.44 2090.42,392.083C2092.52,390.725 2094.79,390.046 2097.24,390.046C2101.25,390.046 2104.36,391.366 2106.59,394.005C2108.81,396.645 2109.92,400.423 2109.92,405.341L2109.92,407.535L2089.04,407.535C2089.12,410.573 2090,413.027 2091.7,414.897C2093.4,416.768 2095.56,417.703 2098.18,417.703C2100.04,417.703 2101.62,417.323 2102.91,416.564C2104.2,415.804 2105.33,414.798 2106.3,413.545L2109.52,416.051C2106.94,420.02 2103.06,422.004 2097.9,422.004ZM2097.24,394.375C2095.12,394.375 2093.33,395.149 2091.89,396.697C2090.45,398.244 2089.55,400.414 2089.21,403.205L2104.65,403.205L2104.65,402.806C2104.5,400.129 2103.78,398.054 2102.48,396.583C2101.19,395.111 2099.45,394.375 2097.24,394.375Z" style="fill:rgb(64,64,64);fill-rule:nonzero;stroke:rgb(64,64,64);stroke-width:1px;stroke-linecap:butt;stroke-miterlimit:2;"/>
                    <path d="M2114.73,405.769C2114.73,401.04 2115.85,397.238 2118.09,394.361C2120.33,391.484 2123.27,390.046 2126.89,390.046C2130.5,390.046 2133.36,391.28 2135.47,393.749L2135.47,377.684L2140.74,377.684L2140.74,421.434L2135.89,421.434L2135.64,418.13C2133.53,420.713 2130.6,422.004 2126.84,422.004C2123.27,422.004 2120.36,420.542 2118.11,417.618C2115.86,414.693 2114.73,410.877 2114.73,406.167L2114.73,405.769ZM2120,406.367C2120,409.861 2120.72,412.595 2122.16,414.57C2123.61,416.545 2125.6,417.532 2128.15,417.532C2131.49,417.532 2133.93,416.032 2135.47,413.032L2135.47,398.876C2133.89,395.97 2131.47,394.518 2128.2,394.518C2125.62,394.518 2123.61,395.515 2122.16,397.509C2120.72,399.502 2120,402.455 2120,406.367Z" style="fill:rgb(64,64,64);fill-rule:nonzero;stroke:rgb(64,64,64);stroke-width:1px;stroke-linecap:butt;stroke-miterlimit:2;"/>
                    <path d="M2169.65,405.199L2169.65,421.434L2164.18,421.434L2164.18,379.963L2179.47,379.963C2184.01,379.963 2187.57,381.121 2190.14,383.438C2192.71,385.755 2194,388.821 2194,392.638C2194,396.664 2192.74,399.763 2190.22,401.938C2187.71,404.112 2184.11,405.199 2179.42,405.199L2169.65,405.199ZM2169.65,400.727L2179.47,400.727C2182.4,400.727 2184.64,400.039 2186.2,398.662C2187.75,397.285 2188.53,395.296 2188.53,392.695C2188.53,390.226 2187.75,388.252 2186.2,386.77C2184.64,385.289 2182.5,384.52 2179.79,384.463L2169.65,384.463L2169.65,400.727Z" style="fill:rgb(64,64,64);fill-rule:nonzero;stroke:rgb(64,64,64);stroke-width:1px;stroke-linecap:butt;stroke-miterlimit:2;"/>
                    <path d="M2213.2,402.949C2208.51,401.601 2205.09,399.944 2202.96,397.979C2200.82,396.013 2199.75,393.587 2199.75,390.701C2199.75,387.435 2201.06,384.734 2203.67,382.598C2206.28,380.461 2209.68,379.393 2213.85,379.393C2216.7,379.393 2219.24,379.944 2221.47,381.045C2223.7,382.147 2225.43,383.666 2226.66,385.603C2227.88,387.539 2228.49,389.657 2228.49,391.954L2222.99,391.954C2222.99,389.448 2222.2,387.478 2220.6,386.044C2219.01,384.61 2216.76,383.894 2213.85,383.894C2211.16,383.894 2209.05,384.487 2207.54,385.674C2206.03,386.861 2205.28,388.508 2205.28,390.616C2205.28,392.306 2206,393.735 2207.43,394.902C2208.86,396.07 2211.3,397.138 2214.75,398.107C2218.2,399.075 2220.89,400.143 2222.84,401.311C2224.78,402.479 2226.23,403.841 2227.17,405.398C2228.11,406.955 2228.58,408.788 2228.58,410.896C2228.58,414.257 2227.27,416.948 2224.65,418.971C2222.03,420.993 2218.52,422.004 2214.14,422.004C2211.29,422.004 2208.63,421.458 2206.16,420.366C2203.69,419.274 2201.79,417.779 2200.45,415.88C2199.11,413.981 2198.44,411.826 2198.44,409.414L2203.94,409.414C2203.94,411.921 2204.87,413.901 2206.72,415.353C2208.57,416.806 2211.04,417.532 2214.14,417.532C2217.02,417.532 2219.24,416.943 2220.77,415.766C2222.31,414.589 2223.08,412.984 2223.08,410.953C2223.08,408.921 2222.37,407.349 2220.94,406.239C2219.52,405.128 2216.94,404.031 2213.2,402.949Z" style="fill:rgb(64,64,64);fill-rule:nonzero;stroke:rgb(64,64,64);stroke-width:1px;stroke-linecap:butt;stroke-miterlimit:2;"/>
                    <path d="M2242.65,379.963L2256.21,413.801L2269.76,379.963L2276.86,379.963L2276.86,421.434L2271.39,421.434L2271.39,405.284L2271.9,387.853L2258.29,421.434L2254.1,421.434L2240.51,387.938L2241.05,405.284L2241.05,421.434L2235.59,421.434L2235.59,379.963L2242.65,379.963Z" style="fill:rgb(64,64,64);fill-rule:nonzero;stroke:rgb(64,64,64);stroke-width:1px;stroke-linecap:butt;stroke-miterlimit:2;"/>
                    <path d="M2303.63,413.26C2303.63,411.836 2303.09,410.729 2302.02,409.941C2300.95,409.153 2299.08,408.475 2296.41,407.905C2293.74,407.335 2291.62,406.652 2290.06,405.854C2288.49,405.057 2287.33,404.107 2286.58,403.006C2285.83,401.904 2285.46,400.594 2285.46,399.075C2285.46,396.55 2286.53,394.413 2288.66,392.666C2290.8,390.919 2293.53,390.046 2296.85,390.046C2300.35,390.046 2303.18,390.948 2305.35,392.752C2307.53,394.556 2308.62,396.863 2308.62,399.673L2303.32,399.673C2303.32,398.23 2302.7,396.986 2301.48,395.942C2300.26,394.898 2298.71,394.375 2296.85,394.375C2294.93,394.375 2293.43,394.793 2292.35,395.629C2291.27,396.464 2290.73,397.556 2290.73,398.904C2290.73,400.176 2291.23,401.135 2292.24,401.781C2293.24,402.427 2295.06,403.044 2297.69,403.632C2300.32,404.221 2302.45,404.924 2304.09,405.74C2305.72,406.557 2306.93,407.539 2307.72,408.688C2308.51,409.837 2308.9,411.237 2308.9,412.889C2308.9,415.643 2307.8,417.85 2305.6,419.512C2303.39,421.173 2300.54,422.004 2297.02,422.004C2294.55,422.004 2292.37,421.567 2290.47,420.694C2288.57,419.82 2287.09,418.6 2286.01,417.034C2284.94,415.467 2284.41,413.772 2284.41,411.949L2289.67,411.949C2289.77,413.715 2290.48,415.116 2291.8,416.151C2293.12,417.186 2294.86,417.703 2297.02,417.703C2299.02,417.703 2300.62,417.3 2301.82,416.493C2303.03,415.685 2303.63,414.608 2303.63,413.26Z" style="fill:rgb(64,64,64);fill-rule:nonzero;stroke:rgb(64,64,64);stroke-width:1px;stroke-linecap:butt;stroke-miterlimit:2;"/>
                </g>
            </g>
            <g transform="matrix(1,0,0,1,641.278,754.486)">
                <g transform="matrix(1,0,0,1,-158.149,-114.961)">
                    <path d="M771.603,326.91C771.603,272.77 727.649,228.816 673.509,228.816L352.66,228.816C298.52,228.816 254.566,272.77 254.566,326.91L254.566,523.098C254.566,577.237 298.52,621.192 352.66,621.192L673.509,621.192C727.649,621.192 771.603,577.237 771.603,523.098L771.603,326.91Z" style="fill:none;stroke:rgb(64,64,64);stroke-width:16.67px;"/>
                </g>
                <g transform="matrix(1,0,0,1,-240.288,-2.87133)">
                    <path d="M459.942,288.661L459.942,304.896L454.474,304.896L454.474,263.425L469.769,263.425C474.307,263.425 477.863,264.583 480.436,266.9C483.009,269.217 484.295,272.283 484.295,276.1C484.295,280.126 483.037,283.225 480.521,285.4C478.005,287.574 474.402,288.661 469.712,288.661L459.942,288.661ZM459.942,284.189L469.769,284.189C472.693,284.189 474.934,283.501 476.491,282.124C478.048,280.747 478.827,278.758 478.827,276.157C478.827,273.688 478.048,271.714 476.491,270.232C474.934,268.751 472.798,267.982 470.082,267.925L459.942,267.925L459.942,284.189Z" style="fill:rgb(64,64,64);fill-rule:nonzero;stroke:rgb(64,64,64);stroke-width:1px;stroke-linecap:butt;stroke-miterlimit:2;"/>
                    <path d="M503.493,286.411C498.803,285.063 495.389,283.406 493.253,281.44C491.117,279.475 490.049,277.049 490.049,274.163C490.049,270.897 491.354,268.196 493.965,266.06C496.576,263.923 499.971,262.855 504.148,262.855C506.996,262.855 509.536,263.406 511.767,264.507C513.998,265.609 515.726,267.128 516.951,269.065C518.176,271.001 518.788,273.119 518.788,275.416L513.291,275.416C513.291,272.91 512.494,270.94 510.899,269.506C509.303,268.072 507.053,267.356 504.148,267.356C501.452,267.356 499.349,267.949 497.839,269.136C496.329,270.323 495.575,271.97 495.575,274.078C495.575,275.768 496.291,277.197 497.725,278.364C499.159,279.532 501.599,280.6 505.045,281.569C508.492,282.537 511.188,283.605 513.134,284.773C515.081,285.941 516.524,287.303 517.464,288.86C518.404,290.417 518.874,292.25 518.874,294.358C518.874,297.719 517.564,300.41 514.943,302.433C512.323,304.455 508.819,305.466 504.433,305.466C501.585,305.466 498.926,304.92 496.458,303.828C493.989,302.736 492.085,301.241 490.747,299.342C489.408,297.443 488.739,295.288 488.739,292.876L494.236,292.876C494.236,295.383 495.162,297.363 497.013,298.815C498.864,300.268 501.338,300.994 504.433,300.994C507.319,300.994 509.531,300.405 511.069,299.228C512.608,298.051 513.377,296.446 513.377,294.415C513.377,292.383 512.664,290.811 511.24,289.701C509.816,288.59 507.234,287.493 503.493,286.411Z" style="fill:rgb(64,64,64);fill-rule:nonzero;stroke:rgb(64,64,64);stroke-width:1px;stroke-linecap:butt;stroke-miterlimit:2;"/>
                    <path d="M532.944,263.425L546.502,297.263L560.06,263.425L567.153,263.425L567.153,304.896L561.684,304.896L561.684,288.746L562.197,271.315L548.582,304.896L544.395,304.896L530.808,271.4L531.349,288.746L531.349,304.896L525.881,304.896L525.881,263.425L532.944,263.425Z" style="fill:rgb(64,64,64);fill-rule:nonzero;stroke:rgb(64,64,64);stroke-width:1px;stroke-linecap:butt;stroke-miterlimit:2;"/>
                    <path d="M593.927,296.722C593.927,295.298 593.39,294.191 592.317,293.403C591.245,292.615 589.374,291.937 586.706,291.367C584.038,290.797 581.921,290.114 580.354,289.316C578.788,288.519 577.63,287.569 576.88,286.468C576.13,285.366 575.754,284.056 575.754,282.537C575.754,280.012 576.823,277.875 578.959,276.128C581.095,274.381 583.825,273.508 587.148,273.508C590.642,273.508 593.476,274.41 595.65,276.214C597.824,278.018 598.911,280.325 598.911,283.135L593.613,283.135C593.613,281.692 593.001,280.448 591.776,279.404C590.551,278.36 589.009,277.837 587.148,277.837C585.23,277.837 583.73,278.255 582.647,279.091C581.565,279.926 581.024,281.018 581.024,282.366C581.024,283.638 581.527,284.597 582.533,285.243C583.54,285.889 585.358,286.506 587.988,287.094C590.618,287.683 592.749,288.386 594.382,289.202C596.015,290.019 597.226,291.001 598.014,292.15C598.802,293.299 599.196,294.699 599.196,296.351C599.196,299.105 598.095,301.312 595.892,302.974C593.689,304.635 590.832,305.466 587.319,305.466C584.85,305.466 582.666,305.029 580.767,304.156C578.869,303.282 577.383,302.062 576.31,300.496C575.237,298.929 574.701,297.234 574.701,295.411L579.97,295.411C580.065,297.177 580.772,298.578 582.092,299.613C583.412,300.648 585.154,301.165 587.319,301.165C589.312,301.165 590.912,300.762 592.118,299.954C593.324,299.147 593.927,298.07 593.927,296.722Z" style="fill:rgb(64,64,64);fill-rule:nonzero;stroke:rgb(64,64,64);stroke-width:1px;stroke-linecap:butt;stroke-miterlimit:2;"/>
                    <path d="M623.093,304.896L623.093,278.151L618.223,278.151L618.223,274.078L623.093,274.078L623.093,270.916C623.093,267.612 623.976,265.058 625.742,263.254C627.508,261.45 630.005,260.548 633.233,260.548C634.449,260.548 635.654,260.71 636.851,261.032L636.566,265.305C635.673,265.134 634.724,265.048 633.718,265.048C632.009,265.048 630.689,265.547 629.758,266.544C628.828,267.541 628.363,268.97 628.363,270.831L628.363,274.078L634.942,274.078L634.942,278.151L628.363,278.151L628.363,304.896L623.093,304.896Z" style="fill:rgb(64,64,64);fill-rule:nonzero;stroke:rgb(64,64,64);stroke-width:1px;stroke-linecap:butt;stroke-miterlimit:2;"/>
                    <path d="M655.649,278.806C654.852,278.673 653.988,278.606 653.058,278.606C649.602,278.606 647.256,280.078 646.022,283.021L646.022,304.896L640.753,304.896L640.753,274.078L645.88,274.078L645.965,277.638C647.693,274.885 650.143,273.508 653.314,273.508C654.339,273.508 655.118,273.641 655.649,273.907L655.649,278.806Z" style="fill:rgb(64,64,64);fill-rule:nonzero;stroke:rgb(64,64,64);stroke-width:1px;stroke-linecap:butt;stroke-miterlimit:2;"/>
                    <path d="M658.526,289.202C658.526,286.183 659.12,283.468 660.306,281.056C661.493,278.644 663.145,276.784 665.263,275.473C667.38,274.163 669.796,273.508 672.511,273.508C676.708,273.508 680.102,274.961 682.694,277.866C685.286,280.771 686.582,284.635 686.582,289.458L686.582,289.829C686.582,292.829 686.008,295.521 684.859,297.904C683.71,300.287 682.068,302.143 679.931,303.472C677.795,304.801 675.341,305.466 672.568,305.466C668.391,305.466 665.006,304.013 662.414,301.108C659.822,298.203 658.526,294.358 658.526,289.572L658.526,289.202ZM663.824,289.829C663.824,293.247 664.617,295.991 666.202,298.06C667.788,300.13 669.91,301.165 672.568,301.165C675.246,301.165 677.373,300.116 678.949,298.018C680.525,295.919 681.313,292.981 681.313,289.202C681.313,285.822 680.51,283.083 678.906,280.985C677.301,278.887 675.17,277.837 672.511,277.837C669.91,277.837 667.812,278.872 666.217,280.942C664.622,283.012 663.824,285.974 663.824,289.829Z" style="fill:rgb(64,64,64);fill-rule:nonzero;stroke:rgb(64,64,64);stroke-width:1px;stroke-linecap:butt;stroke-miterlimit:2;"/>
                    <path d="M698.146,274.078L698.289,277.496C700.548,274.837 703.596,273.508 707.432,273.508C711.742,273.508 714.676,275.16 716.233,278.464C717.258,276.983 718.592,275.787 720.235,274.875C721.877,273.964 723.819,273.508 726.06,273.508C732.82,273.508 736.257,277.087 736.371,284.246L736.371,304.896L731.101,304.896L731.101,284.559C731.101,282.357 730.598,280.709 729.592,279.618C728.585,278.526 726.895,277.98 724.522,277.98C722.566,277.98 720.942,278.564 719.651,279.732C718.36,280.899 717.61,282.471 717.401,284.445L717.401,304.896L712.103,304.896L712.103,284.702C712.103,280.22 709.91,277.98 705.523,277.98C702.067,277.98 699.703,279.451 698.431,282.395L698.431,304.896L693.162,304.896L693.162,274.078L698.146,274.078Z" style="fill:rgb(64,64,64);fill-rule:nonzero;stroke:rgb(64,64,64);stroke-width:1px;stroke-linecap:butt;stroke-miterlimit:2;"/>
                    <path d="M379.933,363.23L379.933,321.758L391.64,321.758C395.248,321.758 398.438,322.556 401.21,324.151C403.983,325.746 406.124,328.015 407.633,330.958C409.143,333.902 409.907,337.282 409.926,341.098L409.926,343.747C409.926,347.659 409.171,351.086 407.662,354.03C406.152,356.973 403.997,359.233 401.196,360.809C398.395,362.385 395.134,363.192 391.412,363.23L379.933,363.23ZM385.402,326.259L385.402,358.758L391.156,358.758C395.371,358.758 398.651,357.448 400.997,354.827C403.342,352.207 404.514,348.475 404.514,343.633L404.514,341.212C404.514,336.503 403.408,332.843 401.196,330.232C398.984,327.621 395.846,326.297 391.782,326.259L385.402,326.259Z" style="fill:rgb(64,64,64);fill-rule:nonzero;stroke:rgb(64,64,64);stroke-width:1px;stroke-linecap:butt;stroke-miterlimit:2;"/>
                    <path d="M436.387,363.23C436.083,362.622 435.836,361.54 435.646,359.983C433.197,362.527 430.272,363.799 426.873,363.799C423.835,363.799 421.343,362.94 419.397,361.222C417.45,359.503 416.477,357.324 416.477,354.685C416.477,351.476 417.697,348.983 420.137,347.208C422.577,345.432 426.009,344.545 430.434,344.545L435.561,344.545L435.561,342.124C435.561,340.282 435.01,338.815 433.909,337.723C432.807,336.631 431.184,336.085 429.038,336.085C427.158,336.085 425.582,336.56 424.31,337.509C423.038,338.459 422.402,339.608 422.402,340.956L417.104,340.956C417.104,339.418 417.65,337.932 418.742,336.498C419.833,335.065 421.315,333.93 423.185,333.095C425.055,332.259 427.111,331.841 429.351,331.841C432.902,331.841 435.684,332.729 437.697,334.504C439.71,336.28 440.754,338.725 440.83,341.839L440.83,356.023C440.83,358.853 441.191,361.103 441.913,362.774L441.913,363.23L436.387,363.23ZM427.642,359.214C429.295,359.214 430.861,358.786 432.342,357.932C433.823,357.077 434.896,355.966 435.561,354.599L435.561,348.276L431.431,348.276C424.975,348.276 421.746,350.165 421.746,353.944C421.746,355.596 422.297,356.887 423.399,357.818C424.5,358.748 425.915,359.214 427.642,359.214Z" style="fill:rgb(64,64,64);fill-rule:nonzero;stroke:rgb(64,64,64);stroke-width:1px;stroke-linecap:butt;stroke-miterlimit:2;"/>
                    <path d="M456.24,324.948L456.24,332.411L461.993,332.411L461.993,336.484L456.24,336.484L456.24,355.596C456.24,356.83 456.496,357.756 457.009,358.373C457.521,358.99 458.395,359.299 459.629,359.299C460.237,359.299 461.072,359.185 462.135,358.957L462.135,363.23C460.749,363.609 459.401,363.799 458.091,363.799C455.736,363.799 453.961,363.087 452.765,361.663C451.568,360.239 450.97,358.217 450.97,355.596L450.97,336.484L445.359,336.484L445.359,332.411L450.97,332.411L450.97,324.948L456.24,324.948Z" style="fill:rgb(64,64,64);fill-rule:nonzero;stroke:rgb(64,64,64);stroke-width:1px;stroke-linecap:butt;stroke-miterlimit:2;"/>
                    <path d="M487.172,363.23C486.868,362.622 486.621,361.54 486.432,359.983C483.982,362.527 481.058,363.799 477.659,363.799C474.621,363.799 472.128,362.94 470.182,361.222C468.236,359.503 467.262,357.324 467.262,354.685C467.262,351.476 468.482,348.983 470.923,347.208C473.363,345.432 476.795,344.545 481.219,344.545L486.346,344.545L486.346,342.124C486.346,340.282 485.795,338.815 484.694,337.723C483.593,336.631 481.969,336.085 479.823,336.085C477.944,336.085 476.368,336.56 475.095,337.509C473.823,338.459 473.187,339.608 473.187,340.956L467.889,340.956C467.889,339.418 468.435,337.932 469.527,336.498C470.619,335.065 472.1,333.93 473.97,333.095C475.841,332.259 477.896,331.841 480.137,331.841C483.688,331.841 486.47,332.729 488.482,334.504C490.495,336.28 491.54,338.725 491.615,341.839L491.615,356.023C491.615,358.853 491.976,361.103 492.698,362.774L492.698,363.23L487.172,363.23ZM478.428,359.214C480.08,359.214 481.646,358.786 483.128,357.932C484.609,357.077 485.682,355.966 486.346,354.599L486.346,348.276L482.216,348.276C475.76,348.276 472.532,350.165 472.532,353.944C472.532,355.596 473.082,356.887 474.184,357.818C475.285,358.748 476.7,359.214 478.428,359.214Z" style="fill:rgb(64,64,64);fill-rule:nonzero;stroke:rgb(64,64,64);stroke-width:1px;stroke-linecap:butt;stroke-miterlimit:2;"/>
                    <path d="M525.966,348.162C525.966,352.871 524.884,356.655 522.719,359.513C520.554,362.37 517.649,363.799 514.003,363.799C510.11,363.799 507.101,362.423 504.974,359.669L504.718,363.23L499.876,363.23L499.876,319.48L505.145,319.48L505.145,335.8C507.272,333.161 510.205,331.841 513.946,331.841C517.687,331.841 520.625,333.256 522.762,336.085C524.898,338.915 525.966,342.788 525.966,347.706L525.966,348.162ZM520.697,347.564C520.697,343.975 520.004,341.203 518.617,339.247C517.231,337.291 515.237,336.313 512.636,336.313C509.161,336.313 506.664,337.927 505.145,341.155L505.145,354.485C506.759,357.713 509.275,359.327 512.693,359.327C515.218,359.327 517.184,358.35 518.589,356.394C519.994,354.438 520.697,351.495 520.697,347.564Z" style="fill:rgb(64,64,64);fill-rule:nonzero;stroke:rgb(64,64,64);stroke-width:1px;stroke-linecap:butt;stroke-miterlimit:2;"/>
                    <path d="M551.629,363.23C551.325,362.622 551.079,361.54 550.889,359.983C548.439,362.527 545.515,363.799 542.116,363.799C539.078,363.799 536.586,362.94 534.639,361.222C532.693,359.503 531.72,357.324 531.72,354.685C531.72,351.476 532.94,348.983 535.38,347.208C537.82,345.432 541.252,344.545 545.676,344.545L550.803,344.545L550.803,342.124C550.803,340.282 550.253,338.815 549.151,337.723C548.05,336.631 546.426,336.085 544.281,336.085C542.401,336.085 540.825,336.56 539.552,337.509C538.28,338.459 537.644,339.608 537.644,340.956L532.346,340.956C532.346,339.418 532.892,337.932 533.984,336.498C535.076,335.065 536.557,333.93 538.427,333.095C540.298,332.259 542.353,331.841 544.594,331.841C548.145,331.841 550.927,332.729 552.94,334.504C554.952,336.28 555.997,338.725 556.073,341.839L556.073,356.023C556.073,358.853 556.433,361.103 557.155,362.774L557.155,363.23L551.629,363.23ZM542.885,359.214C544.537,359.214 546.104,358.786 547.585,357.932C549.066,357.077 550.139,355.966 550.803,354.599L550.803,348.276L546.673,348.276C540.217,348.276 536.989,350.165 536.989,353.944C536.989,355.596 537.54,356.887 538.641,357.818C539.742,358.748 541.157,359.214 542.885,359.214Z" style="fill:rgb(64,64,64);fill-rule:nonzero;stroke:rgb(64,64,64);stroke-width:1px;stroke-linecap:butt;stroke-miterlimit:2;"/>
                    <path d="M582.277,355.055C582.277,353.631 581.741,352.525 580.668,351.737C579.595,350.949 577.725,350.27 575.057,349.7C572.389,349.131 570.271,348.447 568.705,347.649C567.138,346.852 565.98,345.902 565.23,344.801C564.48,343.7 564.105,342.39 564.105,340.87C564.105,338.345 565.173,336.209 567.309,334.462C569.445,332.715 572.175,331.841 575.498,331.841C578.992,331.841 581.826,332.743 584,334.547C586.175,336.351 587.262,338.658 587.262,341.469L581.964,341.469C581.964,340.025 581.351,338.782 580.127,337.737C578.902,336.693 577.359,336.171 575.498,336.171C573.58,336.171 572.08,336.588 570.998,337.424C569.915,338.259 569.374,339.351 569.374,340.7C569.374,341.972 569.877,342.931 570.884,343.576C571.89,344.222 573.708,344.839 576.338,345.428C578.968,346.016 581.1,346.719 582.733,347.535C584.366,348.352 585.576,349.335 586.364,350.483C587.152,351.632 587.546,353.033 587.546,354.685C587.546,357.438 586.445,359.646 584.242,361.307C582.04,362.969 579.182,363.799 575.669,363.799C573.2,363.799 571.017,363.363 569.118,362.489C567.219,361.616 565.733,360.396 564.66,358.829C563.587,357.262 563.051,355.568 563.051,353.745L568.32,353.745C568.415,355.511 569.123,356.911 570.442,357.946C571.762,358.981 573.504,359.498 575.669,359.498C577.663,359.498 579.263,359.095 580.468,358.288C581.674,357.481 582.277,356.403 582.277,355.055Z" style="fill:rgb(64,64,64);fill-rule:nonzero;stroke:rgb(64,64,64);stroke-width:1px;stroke-linecap:butt;stroke-miterlimit:2;"/>
                    <path d="M607.2,363.799C603.022,363.799 599.623,362.427 597.003,359.683C594.382,356.94 593.072,353.27 593.072,348.675L593.072,347.706C593.072,344.649 593.656,341.92 594.824,339.517C595.992,337.115 597.625,335.236 599.723,333.878C601.821,332.52 604.095,331.841 606.545,331.841C610.551,331.841 613.665,333.161 615.887,335.8C618.109,338.44 619.22,342.219 619.22,347.137L619.22,349.33L598.342,349.33C598.418,352.368 599.305,354.822 601.005,356.693C602.704,358.563 604.864,359.498 607.485,359.498C609.346,359.498 610.922,359.119 612.213,358.359C613.504,357.599 614.634,356.593 615.602,355.34L618.821,357.846C616.238,361.815 612.365,363.799 607.2,363.799ZM606.545,336.171C604.418,336.171 602.633,336.945 601.19,338.492C599.747,340.04 598.854,342.209 598.512,345L613.95,345L613.95,344.602C613.798,341.924 613.077,339.85 611.786,338.378C610.494,336.907 608.747,336.171 606.545,336.171Z" style="fill:rgb(64,64,64);fill-rule:nonzero;stroke:rgb(64,64,64);stroke-width:1px;stroke-linecap:butt;stroke-miterlimit:2;"/>
                    <path d="M652.801,344.744C648.111,343.396 644.698,341.739 642.562,339.774C640.425,337.808 639.357,335.383 639.357,332.496C639.357,329.23 640.663,326.529 643.274,324.393C645.885,322.257 649.279,321.189 653.456,321.189C656.305,321.189 658.844,321.739 661.076,322.841C663.307,323.942 665.035,325.461 666.259,327.398C667.484,329.335 668.097,331.452 668.097,333.75L662.599,333.75C662.599,331.243 661.802,329.273 660.207,327.839C658.612,326.406 656.362,325.689 653.456,325.689C650.76,325.689 648.657,326.282 647.147,327.469C645.638,328.656 644.883,330.303 644.883,332.411C644.883,334.101 645.6,335.53 647.033,336.698C648.467,337.865 650.907,338.934 654.354,339.902C657.8,340.87 660.496,341.939 662.443,343.106C664.389,344.274 665.832,345.637 666.772,347.194C667.712,348.751 668.182,350.583 668.182,352.691C668.182,356.052 666.872,358.744 664.251,360.766C661.631,362.788 658.128,363.799 653.741,363.799C650.893,363.799 648.234,363.253 645.766,362.162C643.297,361.07 641.394,359.574 640.055,357.675C638.716,355.777 638.047,353.621 638.047,351.21L643.544,351.21C643.544,353.716 644.47,355.696 646.321,357.148C648.173,358.601 650.646,359.327 653.741,359.327C656.627,359.327 658.84,358.739 660.378,357.562C661.916,356.384 662.685,354.78 662.685,352.748C662.685,350.716 661.973,349.145 660.549,348.034C659.124,346.923 656.542,345.826 652.801,344.744Z" style="fill:rgb(64,64,64);fill-rule:nonzero;stroke:rgb(64,64,64);stroke-width:1px;stroke-linecap:butt;stroke-miterlimit:2;"/>
                    <path d="M687.152,363.799C682.974,363.799 679.575,362.427 676.955,359.683C674.334,356.94 673.024,353.27 673.024,348.675L673.024,347.706C673.024,344.649 673.608,341.92 674.776,339.517C675.944,337.115 677.577,335.236 679.675,333.878C681.773,332.52 684.047,331.841 686.497,331.841C690.503,331.841 693.617,333.161 695.839,335.8C698.061,338.44 699.172,342.219 699.172,347.137L699.172,349.33L678.294,349.33C678.369,352.368 679.257,354.822 680.957,356.693C682.656,358.563 684.816,359.498 687.437,359.498C689.297,359.498 690.874,359.119 692.165,358.359C693.456,357.599 694.586,356.593 695.554,355.34L698.773,357.846C696.19,361.815 692.317,363.799 687.152,363.799ZM686.497,336.171C684.37,336.171 682.585,336.945 681.142,338.492C679.699,340.04 678.806,342.209 678.464,345L693.902,345L693.902,344.602C693.75,341.924 693.029,339.85 691.738,338.378C690.446,336.907 688.699,336.171 686.497,336.171Z" style="fill:rgb(64,64,64);fill-rule:nonzero;stroke:rgb(64,64,64);stroke-width:1px;stroke-linecap:butt;stroke-miterlimit:2;"/>
                    <path d="M724.294,363.23C723.99,362.622 723.743,361.54 723.553,359.983C721.104,362.527 718.179,363.799 714.78,363.799C711.742,363.799 709.25,362.94 707.304,361.222C705.357,359.503 704.384,357.324 704.384,354.685C704.384,351.476 705.604,348.983 708.044,347.208C710.484,345.432 713.916,344.545 718.341,344.545L723.468,344.545L723.468,342.124C723.468,340.282 722.917,338.815 721.816,337.723C720.714,336.631 719.091,336.085 716.945,336.085C715.065,336.085 713.489,336.56 712.217,337.509C710.945,338.459 710.309,339.608 710.309,340.956L705.011,340.956C705.011,339.418 705.557,337.932 706.648,336.498C707.74,335.065 709.221,333.93 711.092,333.095C712.962,332.259 715.018,331.841 717.258,331.841C720.809,331.841 723.591,332.729 725.604,334.504C727.617,336.28 728.661,338.725 728.737,341.839L728.737,356.023C728.737,358.853 729.098,361.103 729.819,362.774L729.819,363.23L724.294,363.23ZM715.549,359.214C717.201,359.214 718.768,358.786 720.249,357.932C721.73,357.077 722.803,355.966 723.468,354.599L723.468,348.276L719.338,348.276C712.881,348.276 709.653,350.165 709.653,353.944C709.653,355.596 710.204,356.887 711.305,357.818C712.407,358.748 713.821,359.214 715.549,359.214Z" style="fill:rgb(64,64,64);fill-rule:nonzero;stroke:rgb(64,64,64);stroke-width:1px;stroke-linecap:butt;stroke-miterlimit:2;"/>
                    <path d="M751.894,337.139C751.096,337.006 750.232,336.94 749.302,336.94C745.846,336.94 743.501,338.411 742.267,341.355L742.267,363.23L736.997,363.23L736.997,332.411L742.124,332.411L742.21,335.971C743.938,333.218 746.387,331.841 749.558,331.841C750.584,331.841 751.362,331.974 751.894,332.24L751.894,337.139Z" style="fill:rgb(64,64,64);fill-rule:nonzero;stroke:rgb(64,64,64);stroke-width:1px;stroke-linecap:butt;stroke-miterlimit:2;"/>
                    <path d="M768.556,359.498C770.436,359.498 772.079,358.929 773.484,357.789C774.889,356.65 775.668,355.226 775.82,353.517L780.804,353.517C780.709,355.283 780.102,356.963 778.981,358.558C777.861,360.153 776.366,361.426 774.495,362.375C772.625,363.325 770.645,363.799 768.556,363.799C764.36,363.799 761.023,362.399 758.545,359.598C756.067,356.797 754.828,352.966 754.828,348.105L754.828,347.222C754.828,344.222 755.378,341.554 756.48,339.218C757.581,336.883 759.162,335.069 761.222,333.778C763.282,332.487 765.718,331.841 768.528,331.841C771.984,331.841 774.856,332.876 777.144,334.946C779.432,337.016 780.652,339.703 780.804,343.007L775.82,343.007C775.668,341.013 774.913,339.375 773.555,338.093C772.197,336.812 770.522,336.171 768.528,336.171C765.851,336.171 763.776,337.134 762.304,339.062C760.833,340.989 760.097,343.776 760.097,347.422L760.097,348.418C760.097,351.969 760.828,354.704 762.29,356.622C763.752,358.539 765.841,359.498 768.556,359.498Z" style="fill:rgb(64,64,64);fill-rule:nonzero;stroke:rgb(64,64,64);stroke-width:1px;stroke-linecap:butt;stroke-miterlimit:2;"/>
                    <path d="M791.998,336.142C794.334,333.275 797.372,331.841 801.113,331.841C807.626,331.841 810.911,335.516 810.968,342.864L810.968,363.23L805.698,363.23L805.698,342.836C805.679,340.614 805.171,338.972 804.174,337.908C803.178,336.845 801.625,336.313 799.517,336.313C797.809,336.313 796.308,336.769 795.017,337.68C793.726,338.592 792.72,339.788 791.998,341.269L791.998,363.23L786.729,363.23L786.729,319.48L791.998,319.48L791.998,336.142Z" style="fill:rgb(64,64,64);fill-rule:nonzero;stroke:rgb(64,64,64);stroke-width:1px;stroke-linecap:butt;stroke-miterlimit:2;"/>
                </g>
            </g>
            <g transform="matrix(0.737747,0,0,1.40562,699.247,584.031)">
                <path d="M810.108,367.246L810.108,316.435L1697.28,316.435L1697.28,265.624L1911.17,341.84L1697.28,418.057L1697.28,367.246L810.108,367.246Z" style="fill:rgb(36,184,160);"/>
            </g>
            <g transform="matrix(1,0,0,1,704.868,777.447)">
                <g transform="matrix(1,0,0,1,-241.941,-40.0712)">
                    <g transform="matrix(58.3333,0,0,58.3333,1103.28,95.0806)">
                        <path d="M0.176,-0.278L0.176,-0L0.083,-0L0.083,-0.711L0.345,-0.711C0.423,-0.711 0.483,-0.691 0.528,-0.651C0.572,-0.612 0.594,-0.559 0.594,-0.494C0.594,-0.425 0.572,-0.372 0.529,-0.334C0.486,-0.297 0.424,-0.278 0.344,-0.278L0.176,-0.278ZM0.176,-0.355L0.345,-0.355C0.395,-0.355 0.433,-0.367 0.46,-0.39C0.487,-0.414 0.5,-0.448 0.5,-0.493C0.5,-0.535 0.487,-0.569 0.46,-0.594C0.433,-0.62 0.397,-0.633 0.35,-0.634L0.176,-0.634L0.176,-0.355Z" style="fill:rgb(64,64,64);fill-rule:nonzero;"/>
                    </g>
                    <g transform="matrix(58.3333,0,0,58.3333,1139.71,95.0806)">
                        <path d="M0.288,0.01C0.216,0.01 0.158,-0.014 0.113,-0.061C0.068,-0.108 0.045,-0.171 0.045,-0.25L0.045,-0.266C0.045,-0.319 0.055,-0.365 0.075,-0.406C0.095,-0.448 0.123,-0.48 0.159,-0.503C0.195,-0.526 0.234,-0.538 0.276,-0.538C0.345,-0.538 0.398,-0.515 0.437,-0.47C0.475,-0.425 0.494,-0.36 0.494,-0.276L0.494,-0.238L0.136,-0.238C0.137,-0.186 0.152,-0.144 0.181,-0.112C0.211,-0.08 0.248,-0.064 0.292,-0.064C0.324,-0.064 0.351,-0.07 0.374,-0.083C0.396,-0.097 0.415,-0.114 0.432,-0.135L0.487,-0.092C0.443,-0.024 0.376,0.01 0.288,0.01ZM0.276,-0.464C0.24,-0.464 0.209,-0.451 0.185,-0.424C0.16,-0.398 0.145,-0.36 0.139,-0.313L0.403,-0.313L0.403,-0.319C0.401,-0.365 0.388,-0.401 0.366,-0.426C0.344,-0.451 0.314,-0.464 0.276,-0.464Z" style="fill:rgb(64,64,64);fill-rule:nonzero;"/>
                    </g>
                    <g transform="matrix(58.3333,0,0,58.3333,1170.61,95.0806)">
                        <path d="M0.324,-0.447C0.31,-0.45 0.295,-0.451 0.279,-0.451C0.22,-0.451 0.18,-0.425 0.159,-0.375L0.159,-0L0.068,-0L0.068,-0.528L0.156,-0.528L0.158,-0.467C0.187,-0.514 0.229,-0.538 0.284,-0.538C0.301,-0.538 0.315,-0.536 0.324,-0.531L0.324,-0.447Z" style="fill:rgb(64,64,64);fill-rule:nonzero;"/>
                    </g>
                    <g transform="matrix(58.3333,0,0,58.3333,1189.81,95.0806)">
                        <path d="M0.28,-0.064C0.313,-0.064 0.341,-0.074 0.365,-0.093C0.389,-0.113 0.402,-0.137 0.405,-0.167L0.49,-0.167C0.489,-0.136 0.478,-0.107 0.459,-0.08C0.44,-0.053 0.414,-0.031 0.382,-0.015C0.35,0.002 0.316,0.01 0.28,0.01C0.208,0.01 0.151,-0.014 0.109,-0.062C0.066,-0.11 0.045,-0.176 0.045,-0.259L0.045,-0.274C0.045,-0.326 0.054,-0.372 0.073,-0.412C0.092,-0.452 0.119,-0.483 0.155,-0.505C0.19,-0.527 0.232,-0.538 0.28,-0.538C0.339,-0.538 0.388,-0.52 0.427,-0.485C0.467,-0.449 0.488,-0.403 0.49,-0.347L0.405,-0.347C0.402,-0.381 0.389,-0.409 0.366,-0.431C0.343,-0.453 0.314,-0.464 0.28,-0.464C0.234,-0.464 0.198,-0.447 0.173,-0.414C0.148,-0.381 0.135,-0.333 0.135,-0.271L0.135,-0.254C0.135,-0.193 0.148,-0.146 0.173,-0.113C0.198,-0.08 0.234,-0.064 0.28,-0.064Z" style="fill:rgb(64,64,64);fill-rule:nonzero;"/>
                    </g>
                    <g transform="matrix(58.3333,0,0,58.3333,1220.34,95.0806)">
                        <path d="M0.044,-0.269C0.044,-0.321 0.055,-0.367 0.075,-0.409C0.095,-0.45 0.124,-0.482 0.16,-0.504C0.196,-0.527 0.238,-0.538 0.284,-0.538C0.356,-0.538 0.414,-0.513 0.459,-0.463C0.503,-0.414 0.525,-0.347 0.525,-0.265L0.525,-0.258C0.525,-0.207 0.516,-0.161 0.496,-0.12C0.476,-0.079 0.448,-0.047 0.411,-0.024C0.375,-0.002 0.333,0.01 0.285,0.01C0.214,0.01 0.156,-0.015 0.111,-0.065C0.067,-0.115 0.044,-0.181 0.044,-0.263L0.044,-0.269ZM0.135,-0.258C0.135,-0.2 0.149,-0.153 0.176,-0.117C0.203,-0.082 0.24,-0.064 0.285,-0.064C0.331,-0.064 0.368,-0.082 0.395,-0.118C0.422,-0.154 0.435,-0.204 0.435,-0.269C0.435,-0.327 0.421,-0.374 0.394,-0.41C0.366,-0.446 0.33,-0.464 0.284,-0.464C0.24,-0.464 0.204,-0.446 0.176,-0.411C0.149,-0.375 0.135,-0.324 0.135,-0.258Z" style="fill:rgb(64,64,64);fill-rule:nonzero;"/>
                    </g>
                    <g transform="matrix(58.3333,0,0,58.3333,1253.61,95.0806)">
                        <rect x="0.076" y="-0.75" width="0.09" height="0.75" style="fill:rgb(64,64,64);fill-rule:nonzero;"/>
                    </g>
                    <g transform="matrix(58.3333,0,0,58.3333,1267.77,95.0806)">
                        <path d="M0.395,-0C0.389,-0.01 0.385,-0.029 0.382,-0.056C0.34,-0.012 0.29,0.01 0.231,0.01C0.179,0.01 0.137,-0.005 0.103,-0.034C0.07,-0.064 0.053,-0.101 0.053,-0.146C0.053,-0.201 0.074,-0.244 0.116,-0.275C0.158,-0.305 0.217,-0.32 0.292,-0.32L0.38,-0.32L0.38,-0.362C0.38,-0.393 0.371,-0.419 0.352,-0.437C0.333,-0.456 0.305,-0.465 0.269,-0.465C0.236,-0.465 0.209,-0.457 0.188,-0.441C0.166,-0.425 0.155,-0.405 0.155,-0.382L0.064,-0.382C0.064,-0.408 0.073,-0.434 0.092,-0.458C0.111,-0.483 0.136,-0.502 0.168,-0.517C0.2,-0.531 0.236,-0.538 0.274,-0.538C0.335,-0.538 0.382,-0.523 0.417,-0.492C0.451,-0.462 0.469,-0.42 0.471,-0.367L0.471,-0.124C0.471,-0.075 0.477,-0.036 0.489,-0.008L0.489,-0L0.395,-0ZM0.245,-0.069C0.273,-0.069 0.3,-0.076 0.325,-0.091C0.351,-0.105 0.369,-0.125 0.38,-0.148L0.38,-0.256L0.31,-0.256C0.199,-0.256 0.144,-0.224 0.144,-0.159C0.144,-0.131 0.153,-0.109 0.172,-0.093C0.191,-0.077 0.215,-0.069 0.245,-0.069Z" style="fill:rgb(64,64,64);fill-rule:nonzero;"/>
                    </g>
                    <g transform="matrix(58.3333,0,0,58.3333,1299.5,95.0806)">
                        <path d="M0.191,-0.656L0.191,-0.528L0.29,-0.528L0.29,-0.458L0.191,-0.458L0.191,-0.131C0.191,-0.11 0.195,-0.094 0.204,-0.083C0.213,-0.073 0.228,-0.067 0.249,-0.067C0.259,-0.067 0.274,-0.069 0.292,-0.073L0.292,-0C0.268,0.007 0.245,0.01 0.223,0.01C0.182,0.01 0.152,-0.002 0.131,-0.027C0.111,-0.051 0.101,-0.086 0.101,-0.131L0.101,-0.458L0.004,-0.458L0.004,-0.528L0.101,-0.528L0.101,-0.656L0.191,-0.656Z" style="fill:rgb(64,64,64);fill-rule:nonzero;"/>
                    </g>
                    <g transform="matrix(58.3333,0,0,58.3333,1317.98,95.0806)">
                        <path d="M0.044,-0.269C0.044,-0.321 0.055,-0.367 0.075,-0.409C0.095,-0.45 0.124,-0.482 0.16,-0.504C0.196,-0.527 0.238,-0.538 0.284,-0.538C0.356,-0.538 0.414,-0.513 0.459,-0.463C0.503,-0.414 0.525,-0.347 0.525,-0.265L0.525,-0.258C0.525,-0.207 0.516,-0.161 0.496,-0.12C0.476,-0.079 0.448,-0.047 0.411,-0.024C0.375,-0.002 0.333,0.01 0.285,0.01C0.214,0.01 0.156,-0.015 0.111,-0.065C0.067,-0.115 0.044,-0.181 0.044,-0.263L0.044,-0.269ZM0.135,-0.258C0.135,-0.2 0.149,-0.153 0.176,-0.117C0.203,-0.082 0.24,-0.064 0.285,-0.064C0.331,-0.064 0.368,-0.082 0.395,-0.118C0.422,-0.154 0.435,-0.204 0.435,-0.269C0.435,-0.327 0.421,-0.374 0.394,-0.41C0.366,-0.446 0.33,-0.464 0.284,-0.464C0.24,-0.464 0.204,-0.446 0.176,-0.411C0.149,-0.375 0.135,-0.324 0.135,-0.258Z" style="fill:rgb(64,64,64);fill-rule:nonzero;"/>
                    </g>
                    <g transform="matrix(58.3333,0,0,58.3333,1351.25,95.0806)">
                        <path d="M0.324,-0.447C0.31,-0.45 0.295,-0.451 0.279,-0.451C0.22,-0.451 0.18,-0.425 0.159,-0.375L0.159,-0L0.068,-0L0.068,-0.528L0.156,-0.528L0.158,-0.467C0.187,-0.514 0.229,-0.538 0.284,-0.538C0.301,-0.538 0.315,-0.536 0.324,-0.531L0.324,-0.447Z" style="fill:rgb(64,64,64);fill-rule:nonzero;"/>
                    </g>
                </g>
                <g transform="matrix(2.58811,0,0,2.58811,-241.754,-42.6637)">
                    <path d="M476.455,53.248C514.078,52.907 527.533,151.463 527.533,198.452C527.533,245.442 425.267,245.442 425.267,198.452C425.267,151.463 438.831,53.589 476.455,53.248Z" style="fill:white;stroke:rgb(64,64,64);stroke-width:4.02px;"/>
                    <g transform="matrix(1.0094,1.45752e-17,-1.45752e-17,-0.890381,4.46824,255.148)">
                        <path d="M426.301,83.007C429.498,114.825 434.378,145.959 443.55,175.35L410.916,179.755L426.301,83.007Z" style="fill:white;stroke:rgb(64,64,64);stroke-width:4.23px;"/>
                    </g>
                    <path d="M440.614,95.097L452.186,98.53L419.246,95.097L440.614,95.097Z" style="fill:white;stroke:rgb(64,64,64);stroke-width:4.02px;"/>
                    <g transform="matrix(1,0,0,1,0,3.48499)">
                        <path d="M425.267,181.239C459.8,200.25 493.883,199.992 527.533,181.239" style="fill:white;stroke:rgb(64,64,64);stroke-width:4.02px;"/>
                    </g>
                    <g transform="matrix(1,0,0,1,50.9389,-1.04959)">
                        <ellipse cx="425.461" cy="52" rx="6.215" ry="6.196" style="fill:white;stroke:rgb(64,64,64);stroke-width:4.02px;"/>
                    </g>
                    <path d="M509.508,86.45C509.508,86.45 522.626,79.367 527.533,86.528C533.822,95.707 524.605,148.662 524.605,148.662L526.768,170.899C526.768,170.899 545.946,93.573 536.147,78.049C528.724,66.289 505.058,76.429 505.058,76.429L509.508,86.45Z" style="fill:white;stroke:rgb(64,64,64);stroke-width:4.02px;"/>
                </g>
            </g>
        </g>
        <g transform="matrix(1,0,0,1,0.874287,-32.043)">
            <g transform="matrix(1,0,0,1,-158.149,-114.961)">
                <path d="M771.603,326.91C771.603,272.77 727.649,228.816 673.509,228.816L352.66,228.816C298.52,228.816 254.566,272.77 254.566,326.91L254.566,523.098C254.566,577.237 298.52,621.192 352.66,621.192L673.509,621.192C727.649,621.192 771.603,577.237 771.603,523.098L771.603,326.91Z" style="fill:none;stroke:rgb(64,64,64);stroke-width:16.67px;"/>
            </g>
            <g transform="matrix(1,0,0,1,-240.288,-32.5222)">
                <path d="M524.257,267.925L510.927,267.925L510.927,304.896L505.487,304.896L505.487,267.925L492.185,267.925L492.185,263.425L524.257,263.425L524.257,267.925Z" style="fill:rgb(64,64,64);fill-rule:nonzero;stroke:rgb(64,64,64);stroke-width:1px;stroke-linecap:butt;stroke-miterlimit:2;"/>
                <path d="M542.344,278.806C541.546,278.673 540.682,278.606 539.752,278.606C536.296,278.606 533.951,280.078 532.717,283.021L532.717,304.896L527.447,304.896L527.447,274.078L532.574,274.078L532.66,277.638C534.388,274.885 536.837,273.508 540.008,273.508C541.034,273.508 541.812,273.641 542.344,273.907L542.344,278.806Z" style="fill:rgb(64,64,64);fill-rule:nonzero;stroke:rgb(64,64,64);stroke-width:1px;stroke-linecap:butt;stroke-miterlimit:2;"/>
                <path d="M565.073,304.896C564.77,304.289 564.523,303.206 564.333,301.649C561.883,304.194 558.959,305.466 555.56,305.466C552.522,305.466 550.03,304.607 548.083,302.888C546.137,301.17 545.164,298.991 545.164,296.351C545.164,293.142 546.384,290.65 548.824,288.875C551.264,287.099 554.696,286.211 559.12,286.211L564.247,286.211L564.247,283.79C564.247,281.948 563.697,280.482 562.595,279.39C561.494,278.298 559.87,277.752 557.725,277.752C555.845,277.752 554.269,278.227 552.996,279.176C551.724,280.126 551.088,281.274 551.088,282.623L545.79,282.623C545.79,281.084 546.336,279.599 547.428,278.165C548.52,276.731 550.001,275.597 551.871,274.761C553.742,273.926 555.797,273.508 558.038,273.508C561.589,273.508 564.371,274.396 566.384,276.171C568.396,277.947 569.441,280.391 569.517,283.506L569.517,297.69C569.517,300.519 569.877,302.77 570.599,304.441L570.599,304.896L565.073,304.896ZM556.329,300.88C557.981,300.88 559.548,300.453 561.029,299.598C562.51,298.744 563.583,297.633 564.247,296.266L564.247,289.943L560.117,289.943C553.661,289.943 550.433,291.832 550.433,295.611C550.433,297.263 550.984,298.554 552.085,299.485C553.186,300.415 554.601,300.88 556.329,300.88Z" style="fill:rgb(64,64,64);fill-rule:nonzero;stroke:rgb(64,64,64);stroke-width:1px;stroke-linecap:butt;stroke-miterlimit:2;"/>
                <path d="M583.502,304.896L578.233,304.896L578.233,274.078L583.502,274.078L583.502,304.896ZM577.805,265.903C577.805,265.048 578.066,264.327 578.589,263.738C579.111,263.15 579.885,262.855 580.91,262.855C581.935,262.855 582.714,263.15 583.246,263.738C583.777,264.327 584.043,265.048 584.043,265.903C584.043,266.757 583.777,267.47 583.246,268.039C582.714,268.609 581.935,268.894 580.91,268.894C579.885,268.894 579.111,268.609 578.589,268.039C578.066,267.47 577.805,266.757 577.805,265.903Z" style="fill:rgb(64,64,64);fill-rule:nonzero;stroke:rgb(64,64,64);stroke-width:1px;stroke-linecap:butt;stroke-miterlimit:2;"/>
                <path d="M596.917,274.078L597.088,277.951C599.443,274.989 602.519,273.508 606.317,273.508C612.83,273.508 616.115,277.182 616.172,284.531L616.172,304.896L610.903,304.896L610.903,284.502C610.884,282.281 610.376,280.638 609.379,279.575C608.382,278.511 606.83,277.98 604.722,277.98C603.013,277.98 601.513,278.436 600.221,279.347C598.93,280.258 597.924,281.455 597.202,282.936L597.202,304.896L591.933,304.896L591.933,274.078L596.917,274.078Z" style="fill:rgb(64,64,64);fill-rule:nonzero;stroke:rgb(64,64,64);stroke-width:1px;stroke-linecap:butt;stroke-miterlimit:2;"/>
                <path d="M629.844,304.896L624.574,304.896L624.574,274.078L629.844,274.078L629.844,304.896ZM624.147,265.903C624.147,265.048 624.408,264.327 624.931,263.738C625.453,263.15 626.226,262.855 627.252,262.855C628.277,262.855 629.056,263.15 629.587,263.738C630.119,264.327 630.385,265.048 630.385,265.903C630.385,266.757 630.119,267.47 629.587,268.039C629.056,268.609 628.277,268.894 627.252,268.894C626.226,268.894 625.453,268.609 624.931,268.039C624.408,267.47 624.147,266.757 624.147,265.903Z" style="fill:rgb(64,64,64);fill-rule:nonzero;stroke:rgb(64,64,64);stroke-width:1px;stroke-linecap:butt;stroke-miterlimit:2;"/>
                <path d="M643.259,274.078L643.43,277.951C645.785,274.989 648.861,273.508 652.659,273.508C659.172,273.508 662.457,277.182 662.514,284.531L662.514,304.896L657.245,304.896L657.245,284.502C657.226,282.281 656.718,280.638 655.721,279.575C654.724,278.511 653.171,277.98 651.064,277.98C649.355,277.98 647.855,278.436 646.563,279.347C645.272,280.258 644.266,281.455 643.544,282.936L643.544,304.896L638.275,304.896L638.275,274.078L643.259,274.078Z" style="fill:rgb(64,64,64);fill-rule:nonzero;stroke:rgb(64,64,64);stroke-width:1px;stroke-linecap:butt;stroke-miterlimit:2;"/>
                <path d="M669.207,289.231C669.207,284.426 670.318,280.605 672.54,277.766C674.762,274.927 677.705,273.508 681.37,273.508C685.129,273.508 688.063,274.837 690.171,277.496L690.427,274.078L695.241,274.078L695.241,304.156C695.241,308.143 694.059,311.286 691.695,313.584C689.331,315.881 686.155,317.03 682.167,317.03C679.946,317.03 677.771,316.555 675.645,315.606C673.518,314.657 671.894,313.356 670.774,311.704L673.508,308.542C675.768,311.333 678.531,312.729 681.797,312.729C684.36,312.729 686.359,312.008 687.793,310.564C689.226,309.121 689.943,307.089 689.943,304.469L689.943,301.82C687.835,304.251 684.959,305.466 681.313,305.466C677.705,305.466 674.785,304.013 672.554,301.108C670.323,298.203 669.207,294.244 669.207,289.231ZM674.505,289.829C674.505,293.304 675.217,296.033 676.642,298.018C678.066,300.002 680.059,300.994 682.623,300.994C685.946,300.994 688.386,299.485 689.943,296.465L689.943,282.395C688.329,279.451 685.908,277.98 682.68,277.98C680.116,277.98 678.113,278.977 676.67,280.971C675.227,282.964 674.505,285.917 674.505,289.829Z" style="fill:rgb(64,64,64);fill-rule:nonzero;stroke:rgb(64,64,64);stroke-width:1px;stroke-linecap:butt;stroke-miterlimit:2;"/>
                <path d="M459.942,346.994L459.942,363.23L454.474,363.23L454.474,321.758L469.769,321.758C474.307,321.758 477.863,322.917 480.436,325.233C483.009,327.55 484.295,330.617 484.295,334.433C484.295,338.459 483.037,341.559 480.521,343.733C478.005,345.907 474.402,346.994 469.712,346.994L459.942,346.994ZM459.942,342.522L469.769,342.522C472.693,342.522 474.934,341.834 476.491,340.457C478.048,339.081 478.827,337.092 478.827,334.49C478.827,332.022 478.048,330.047 476.491,328.566C474.934,327.085 472.798,326.316 470.082,326.259L459.942,326.259L459.942,342.522Z" style="fill:rgb(64,64,64);fill-rule:nonzero;stroke:rgb(64,64,64);stroke-width:1px;stroke-linecap:butt;stroke-miterlimit:2;"/>
                <path d="M503.493,344.744C498.803,343.396 495.389,341.739 493.253,339.774C491.117,337.808 490.049,335.383 490.049,332.496C490.049,329.23 491.354,326.529 493.965,324.393C496.576,322.257 499.971,321.189 504.148,321.189C506.996,321.189 509.536,321.739 511.767,322.841C513.998,323.942 515.726,325.461 516.951,327.398C518.176,329.335 518.788,331.452 518.788,333.75L513.291,333.75C513.291,331.243 512.494,329.273 510.899,327.839C509.303,326.406 507.053,325.689 504.148,325.689C501.452,325.689 499.349,326.282 497.839,327.469C496.329,328.656 495.575,330.303 495.575,332.411C495.575,334.101 496.291,335.53 497.725,336.698C499.159,337.865 501.599,338.934 505.045,339.902C508.492,340.87 511.188,341.939 513.134,343.106C515.081,344.274 516.524,345.637 517.464,347.194C518.404,348.751 518.874,350.583 518.874,352.691C518.874,356.052 517.564,358.744 514.943,360.766C512.323,362.788 508.819,363.799 504.433,363.799C501.585,363.799 498.926,363.253 496.458,362.162C493.989,361.07 492.085,359.574 490.747,357.675C489.408,355.777 488.739,353.621 488.739,351.21L494.236,351.21C494.236,353.716 495.162,355.696 497.013,357.148C498.864,358.601 501.338,359.327 504.433,359.327C507.319,359.327 509.531,358.739 511.069,357.562C512.608,356.384 513.377,354.78 513.377,352.748C513.377,350.716 512.664,349.145 511.24,348.034C509.816,346.923 507.234,345.826 503.493,344.744Z" style="fill:rgb(64,64,64);fill-rule:nonzero;stroke:rgb(64,64,64);stroke-width:1px;stroke-linecap:butt;stroke-miterlimit:2;"/>
                <path d="M532.944,321.758L546.502,355.596L560.06,321.758L567.153,321.758L567.153,363.23L561.684,363.23L561.684,347.08L562.197,329.648L548.582,363.23L544.395,363.23L530.808,329.734L531.349,347.08L531.349,363.23L525.881,363.23L525.881,321.758L532.944,321.758Z" style="fill:rgb(64,64,64);fill-rule:nonzero;stroke:rgb(64,64,64);stroke-width:1px;stroke-linecap:butt;stroke-miterlimit:2;"/>
                <path d="M593.927,355.055C593.927,353.631 593.39,352.525 592.317,351.737C591.245,350.949 589.374,350.27 586.706,349.7C584.038,349.131 581.921,348.447 580.354,347.649C578.788,346.852 577.63,345.902 576.88,344.801C576.13,343.7 575.754,342.39 575.754,340.87C575.754,338.345 576.823,336.209 578.959,334.462C581.095,332.715 583.825,331.841 587.148,331.841C590.642,331.841 593.476,332.743 595.65,334.547C597.824,336.351 598.911,338.658 598.911,341.469L593.613,341.469C593.613,340.025 593.001,338.782 591.776,337.737C590.551,336.693 589.009,336.171 587.148,336.171C585.23,336.171 583.73,336.588 582.647,337.424C581.565,338.259 581.024,339.351 581.024,340.7C581.024,341.972 581.527,342.931 582.533,343.576C583.54,344.222 585.358,344.839 587.988,345.428C590.618,346.016 592.749,346.719 594.382,347.535C596.015,348.352 597.226,349.335 598.014,350.483C598.802,351.632 599.196,353.033 599.196,354.685C599.196,357.438 598.095,359.646 595.892,361.307C593.689,362.969 590.832,363.799 587.319,363.799C584.85,363.799 582.666,363.363 580.767,362.489C578.869,361.616 577.383,360.396 576.31,358.829C575.237,357.262 574.701,355.568 574.701,353.745L579.97,353.745C580.065,355.511 580.772,356.911 582.092,357.946C583.412,358.981 585.154,359.498 587.319,359.498C589.312,359.498 590.912,359.095 592.118,358.288C593.324,357.481 593.927,356.403 593.927,355.055Z" style="fill:rgb(64,64,64);fill-rule:nonzero;stroke:rgb(64,64,64);stroke-width:1px;stroke-linecap:butt;stroke-miterlimit:2;"/>
                <path d="M623.093,363.23L623.093,336.484L618.223,336.484L618.223,332.411L623.093,332.411L623.093,329.249C623.093,325.945 623.976,323.391 625.742,321.587C627.508,319.783 630.005,318.881 633.233,318.881C634.449,318.881 635.654,319.043 636.851,319.366L636.566,323.638C635.673,323.467 634.724,323.382 633.718,323.382C632.009,323.382 630.689,323.88 629.758,324.877C628.828,325.874 628.363,327.303 628.363,329.164L628.363,332.411L634.942,332.411L634.942,336.484L628.363,336.484L628.363,363.23L623.093,363.23Z" style="fill:rgb(64,64,64);fill-rule:nonzero;stroke:rgb(64,64,64);stroke-width:1px;stroke-linecap:butt;stroke-miterlimit:2;"/>
                <path d="M655.649,337.139C654.852,337.006 653.988,336.94 653.058,336.94C649.602,336.94 647.256,338.411 646.022,341.355L646.022,363.23L640.753,363.23L640.753,332.411L645.88,332.411L645.965,335.971C647.693,333.218 650.143,331.841 653.314,331.841C654.339,331.841 655.118,331.974 655.649,332.24L655.649,337.139Z" style="fill:rgb(64,64,64);fill-rule:nonzero;stroke:rgb(64,64,64);stroke-width:1px;stroke-linecap:butt;stroke-miterlimit:2;"/>
                <path d="M658.526,347.535C658.526,344.516 659.12,341.801 660.306,339.389C661.493,336.978 663.145,335.117 665.263,333.807C667.38,332.496 669.796,331.841 672.511,331.841C676.708,331.841 680.102,333.294 682.694,336.199C685.286,339.104 686.582,342.969 686.582,347.792L686.582,348.162C686.582,351.162 686.008,353.854 684.859,356.237C683.71,358.62 682.068,360.476 679.931,361.805C677.795,363.135 675.341,363.799 672.568,363.799C668.391,363.799 665.006,362.347 662.414,359.441C659.822,356.536 658.526,352.691 658.526,347.906L658.526,347.535ZM663.824,348.162C663.824,351.58 664.617,354.324 666.202,356.394C667.788,358.463 669.91,359.498 672.568,359.498C675.246,359.498 677.373,358.449 678.949,356.351C680.525,354.253 681.313,351.314 681.313,347.535C681.313,344.155 680.51,341.416 678.906,339.318C677.301,337.22 675.17,336.171 672.511,336.171C669.91,336.171 667.812,337.206 666.217,339.275C664.622,341.345 663.824,344.307 663.824,348.162Z" style="fill:rgb(64,64,64);fill-rule:nonzero;stroke:rgb(64,64,64);stroke-width:1px;stroke-linecap:butt;stroke-miterlimit:2;"/>
                <path d="M698.146,332.411L698.289,335.829C700.548,333.17 703.596,331.841 707.432,331.841C711.742,331.841 714.676,333.493 716.233,336.797C717.258,335.316 718.592,334.12 720.235,333.208C721.877,332.297 723.819,331.841 726.06,331.841C732.82,331.841 736.257,335.421 736.371,342.579L736.371,363.23L731.101,363.23L731.101,342.893C731.101,340.69 730.598,339.043 729.592,337.951C728.585,336.859 726.895,336.313 724.522,336.313C722.566,336.313 720.942,336.897 719.651,338.065C718.36,339.233 717.61,340.804 717.401,342.779L717.401,363.23L712.103,363.23L712.103,343.035C712.103,338.554 709.91,336.313 705.523,336.313C702.067,336.313 699.703,337.785 698.431,340.728L698.431,363.23L693.162,363.23L693.162,332.411L698.146,332.411Z" style="fill:rgb(64,64,64);fill-rule:nonzero;stroke:rgb(64,64,64);stroke-width:1px;stroke-linecap:butt;stroke-miterlimit:2;"/>
                <path d="M379.933,421.563L379.933,380.092L391.64,380.092C395.248,380.092 398.438,380.889 401.21,382.484C403.983,384.079 406.124,386.348 407.633,389.292C409.143,392.235 409.907,395.615 409.926,399.432L409.926,402.081C409.926,405.992 409.171,409.42 407.662,412.363C406.152,415.306 403.997,417.566 401.196,419.142C398.395,420.718 395.134,421.525 391.412,421.563L379.933,421.563ZM385.402,384.592L385.402,417.091L391.156,417.091C395.371,417.091 398.651,415.781 400.997,413.16C403.342,410.54 404.514,406.809 404.514,401.967L404.514,399.546C404.514,394.836 403.408,391.176 401.196,388.565C398.984,385.954 395.846,384.63 391.782,384.592L385.402,384.592Z" style="fill:rgb(64,64,64);fill-rule:nonzero;stroke:rgb(64,64,64);stroke-width:1px;stroke-linecap:butt;stroke-miterlimit:2;"/>
                <path d="M436.387,421.563C436.083,420.955 435.836,419.873 435.646,418.316C433.197,420.86 430.272,422.133 426.873,422.133C423.835,422.133 421.343,421.273 419.397,419.555C417.45,417.836 416.477,415.657 416.477,413.018C416.477,409.809 417.697,407.317 420.137,405.541C422.577,403.766 426.009,402.878 430.434,402.878L435.561,402.878L435.561,400.457C435.561,398.615 435.01,397.148 433.909,396.056C432.807,394.965 431.184,394.419 429.038,394.419C427.158,394.419 425.582,394.893 424.31,395.843C423.038,396.792 422.402,397.941 422.402,399.289L417.104,399.289C417.104,397.751 417.65,396.265 418.742,394.832C419.833,393.398 421.315,392.263 423.185,391.428C425.055,390.592 427.111,390.175 429.351,390.175C432.902,390.175 435.684,391.062 437.697,392.838C439.71,394.613 440.754,397.058 440.83,400.172L440.83,414.357C440.83,417.186 441.191,419.436 441.913,421.107L441.913,421.563L436.387,421.563ZM427.642,417.547C429.295,417.547 430.861,417.12 432.342,416.265C433.823,415.411 434.896,414.3 435.561,412.933L435.561,406.609L431.431,406.609C424.975,406.609 421.746,408.499 421.746,412.277C421.746,413.93 422.297,415.221 423.399,416.151C424.5,417.082 425.915,417.547 427.642,417.547Z" style="fill:rgb(64,64,64);fill-rule:nonzero;stroke:rgb(64,64,64);stroke-width:1px;stroke-linecap:butt;stroke-miterlimit:2;"/>
                <path d="M456.24,383.282L456.24,390.744L461.993,390.744L461.993,394.817L456.24,394.817L456.24,413.93C456.24,415.164 456.496,416.089 457.009,416.707C457.521,417.324 458.395,417.632 459.629,417.632C460.237,417.632 461.072,417.518 462.135,417.291L462.135,421.563C460.749,421.943 459.401,422.133 458.091,422.133C455.736,422.133 453.961,421.421 452.765,419.996C451.568,418.572 450.97,416.55 450.97,413.93L450.97,394.817L445.359,394.817L445.359,390.744L450.97,390.744L450.97,383.282L456.24,383.282Z" style="fill:rgb(64,64,64);fill-rule:nonzero;stroke:rgb(64,64,64);stroke-width:1px;stroke-linecap:butt;stroke-miterlimit:2;"/>
                <path d="M487.172,421.563C486.868,420.955 486.621,419.873 486.432,418.316C483.982,420.86 481.058,422.133 477.659,422.133C474.621,422.133 472.128,421.273 470.182,419.555C468.236,417.836 467.262,415.657 467.262,413.018C467.262,409.809 468.482,407.317 470.923,405.541C473.363,403.766 476.795,402.878 481.219,402.878L486.346,402.878L486.346,400.457C486.346,398.615 485.795,397.148 484.694,396.056C483.593,394.965 481.969,394.419 479.823,394.419C477.944,394.419 476.368,394.893 475.095,395.843C473.823,396.792 473.187,397.941 473.187,399.289L467.889,399.289C467.889,397.751 468.435,396.265 469.527,394.832C470.619,393.398 472.1,392.263 473.97,391.428C475.841,390.592 477.896,390.175 480.137,390.175C483.688,390.175 486.47,391.062 488.482,392.838C490.495,394.613 491.54,397.058 491.615,400.172L491.615,414.357C491.615,417.186 491.976,419.436 492.698,421.107L492.698,421.563L487.172,421.563ZM478.428,417.547C480.08,417.547 481.646,417.12 483.128,416.265C484.609,415.411 485.682,414.3 486.346,412.933L486.346,406.609L482.216,406.609C475.76,406.609 472.532,408.499 472.532,412.277C472.532,413.93 473.082,415.221 474.184,416.151C475.285,417.082 476.7,417.547 478.428,417.547Z" style="fill:rgb(64,64,64);fill-rule:nonzero;stroke:rgb(64,64,64);stroke-width:1px;stroke-linecap:butt;stroke-miterlimit:2;"/>
                <path d="M525.966,406.495C525.966,411.205 524.884,414.988 522.719,417.846C520.554,420.704 517.649,422.133 514.003,422.133C510.11,422.133 507.101,420.756 504.974,418.003L504.718,421.563L499.876,421.563L499.876,377.813L505.145,377.813L505.145,394.134C507.272,391.494 510.205,390.175 513.946,390.175C517.687,390.175 520.625,391.589 522.762,394.419C524.898,397.248 525.966,401.122 525.966,406.04L525.966,406.495ZM520.697,405.897C520.697,402.308 520.004,399.536 518.617,397.58C517.231,395.624 515.237,394.646 512.636,394.646C509.161,394.646 506.664,396.261 505.145,399.489L505.145,412.819C506.759,416.047 509.275,417.661 512.693,417.661C515.218,417.661 517.184,416.683 518.589,414.727C519.994,412.771 520.697,409.828 520.697,405.897Z" style="fill:rgb(64,64,64);fill-rule:nonzero;stroke:rgb(64,64,64);stroke-width:1px;stroke-linecap:butt;stroke-miterlimit:2;"/>
                <path d="M551.629,421.563C551.325,420.955 551.079,419.873 550.889,418.316C548.439,420.86 545.515,422.133 542.116,422.133C539.078,422.133 536.586,421.273 534.639,419.555C532.693,417.836 531.72,415.657 531.72,413.018C531.72,409.809 532.94,407.317 535.38,405.541C537.82,403.766 541.252,402.878 545.676,402.878L550.803,402.878L550.803,400.457C550.803,398.615 550.253,397.148 549.151,396.056C548.05,394.965 546.426,394.419 544.281,394.419C542.401,394.419 540.825,394.893 539.552,395.843C538.28,396.792 537.644,397.941 537.644,399.289L532.346,399.289C532.346,397.751 532.892,396.265 533.984,394.832C535.076,393.398 536.557,392.263 538.427,391.428C540.298,390.592 542.353,390.175 544.594,390.175C548.145,390.175 550.927,391.062 552.94,392.838C554.952,394.613 555.997,397.058 556.073,400.172L556.073,414.357C556.073,417.186 556.433,419.436 557.155,421.107L557.155,421.563L551.629,421.563ZM542.885,417.547C544.537,417.547 546.104,417.12 547.585,416.265C549.066,415.411 550.139,414.3 550.803,412.933L550.803,406.609L546.673,406.609C540.217,406.609 536.989,408.499 536.989,412.277C536.989,413.93 537.54,415.221 538.641,416.151C539.742,417.082 541.157,417.547 542.885,417.547Z" style="fill:rgb(64,64,64);fill-rule:nonzero;stroke:rgb(64,64,64);stroke-width:1px;stroke-linecap:butt;stroke-miterlimit:2;"/>
                <path d="M582.277,413.388C582.277,411.964 581.741,410.858 580.668,410.07C579.595,409.282 577.725,408.603 575.057,408.034C572.389,407.464 570.271,406.78 568.705,405.983C567.138,405.185 565.98,404.236 565.23,403.134C564.48,402.033 564.105,400.723 564.105,399.204C564.105,396.678 565.173,394.542 567.309,392.795C569.445,391.048 572.175,390.175 575.498,390.175C578.992,390.175 581.826,391.077 584,392.881C586.175,394.684 587.262,396.992 587.262,399.802L581.964,399.802C581.964,398.359 581.351,397.115 580.127,396.071C578.902,395.026 577.359,394.504 575.498,394.504C573.58,394.504 572.08,394.922 570.998,395.757C569.915,396.593 569.374,397.685 569.374,399.033C569.374,400.305 569.877,401.264 570.884,401.91C571.89,402.555 573.708,403.172 576.338,403.761C578.968,404.35 581.1,405.052 582.733,405.869C584.366,406.685 585.576,407.668 586.364,408.817C587.152,409.966 587.546,411.366 587.546,413.018C587.546,415.771 586.445,417.979 584.242,419.64C582.04,421.302 579.182,422.133 575.669,422.133C573.2,422.133 571.017,421.696 569.118,420.822C567.219,419.949 565.733,418.729 564.66,417.162C563.587,415.596 563.051,413.901 563.051,412.078L568.32,412.078C568.415,413.844 569.123,415.244 570.442,416.279C571.762,417.314 573.504,417.832 575.669,417.832C577.663,417.832 579.263,417.428 580.468,416.621C581.674,415.814 582.277,414.737 582.277,413.388Z" style="fill:rgb(64,64,64);fill-rule:nonzero;stroke:rgb(64,64,64);stroke-width:1px;stroke-linecap:butt;stroke-miterlimit:2;"/>
                <path d="M607.2,422.133C603.022,422.133 599.623,420.761 597.003,418.017C594.382,415.273 593.072,411.603 593.072,407.008L593.072,406.04C593.072,402.983 593.656,400.253 594.824,397.851C595.992,395.449 597.625,393.569 599.723,392.211C601.821,390.853 604.095,390.175 606.545,390.175C610.551,390.175 613.665,391.494 615.887,394.134C618.109,396.773 619.22,400.552 619.22,405.47L619.22,407.663L598.342,407.663C598.418,410.701 599.305,413.156 601.005,415.026C602.704,416.896 604.864,417.832 607.485,417.832C609.346,417.832 610.922,417.452 612.213,416.692C613.504,415.933 614.634,414.926 615.602,413.673L618.821,416.18C616.238,420.148 612.365,422.133 607.2,422.133ZM606.545,394.504C604.418,394.504 602.633,395.278 601.19,396.825C599.747,398.373 598.854,400.542 598.512,403.334L613.95,403.334L613.95,402.935C613.798,400.258 613.077,398.183 611.786,396.711C610.494,395.24 608.747,394.504 606.545,394.504Z" style="fill:rgb(64,64,64);fill-rule:nonzero;stroke:rgb(64,64,64);stroke-width:1px;stroke-linecap:butt;stroke-miterlimit:2;"/>
                <path d="M652.801,403.077C648.111,401.729 644.698,400.072 642.562,398.107C640.425,396.142 639.357,393.716 639.357,390.83C639.357,387.564 640.663,384.863 643.274,382.726C645.885,380.59 649.279,379.522 653.456,379.522C656.305,379.522 658.844,380.073 661.076,381.174C663.307,382.275 665.035,383.794 666.259,385.731C667.484,387.668 668.097,389.785 668.097,392.083L662.599,392.083C662.599,389.576 661.802,387.606 660.207,386.173C658.612,384.739 656.362,384.022 653.456,384.022C650.76,384.022 648.657,384.616 647.147,385.802C645.638,386.989 644.883,388.637 644.883,390.744C644.883,392.434 645.6,393.863 647.033,395.031C648.467,396.199 650.907,397.267 654.354,398.235C657.8,399.204 660.496,400.272 662.443,401.44C664.389,402.607 665.832,403.97 666.772,405.527C667.712,407.084 668.182,408.916 668.182,411.024C668.182,414.385 666.872,417.077 664.251,419.099C661.631,421.121 658.128,422.133 653.741,422.133C650.893,422.133 648.234,421.587 645.766,420.495C643.297,419.403 641.394,417.908 640.055,416.009C638.716,414.11 638.047,411.955 638.047,409.543L643.544,409.543C643.544,412.05 644.47,414.029 646.321,415.482C648.173,416.934 650.646,417.661 653.741,417.661C656.627,417.661 658.84,417.072 660.378,415.895C661.916,414.718 662.685,413.113 662.685,411.081C662.685,409.049 661.973,407.478 660.549,406.367C659.124,405.256 656.542,404.16 652.801,403.077Z" style="fill:rgb(64,64,64);fill-rule:nonzero;stroke:rgb(64,64,64);stroke-width:1px;stroke-linecap:butt;stroke-miterlimit:2;"/>
                <path d="M687.152,422.133C682.974,422.133 679.575,420.761 676.955,418.017C674.334,415.273 673.024,411.603 673.024,407.008L673.024,406.04C673.024,402.983 673.608,400.253 674.776,397.851C675.944,395.449 677.577,393.569 679.675,392.211C681.773,390.853 684.047,390.175 686.497,390.175C690.503,390.175 693.617,391.494 695.839,394.134C698.061,396.773 699.172,400.552 699.172,405.47L699.172,407.663L678.294,407.663C678.369,410.701 679.257,413.156 680.957,415.026C682.656,416.896 684.816,417.832 687.437,417.832C689.297,417.832 690.874,417.452 692.165,416.692C693.456,415.933 694.586,414.926 695.554,413.673L698.773,416.18C696.19,420.148 692.317,422.133 687.152,422.133ZM686.497,394.504C684.37,394.504 682.585,395.278 681.142,396.825C679.699,398.373 678.806,400.542 678.464,403.334L693.902,403.334L693.902,402.935C693.75,400.258 693.029,398.183 691.738,396.711C690.446,395.24 688.699,394.504 686.497,394.504Z" style="fill:rgb(64,64,64);fill-rule:nonzero;stroke:rgb(64,64,64);stroke-width:1px;stroke-linecap:butt;stroke-miterlimit:2;"/>
                <path d="M724.294,421.563C723.99,420.955 723.743,419.873 723.553,418.316C721.104,420.86 718.179,422.133 714.78,422.133C711.742,422.133 709.25,421.273 707.304,419.555C705.357,417.836 704.384,415.657 704.384,413.018C704.384,409.809 705.604,407.317 708.044,405.541C710.484,403.766 713.916,402.878 718.341,402.878L723.468,402.878L723.468,400.457C723.468,398.615 722.917,397.148 721.816,396.056C720.714,394.965 719.091,394.419 716.945,394.419C715.065,394.419 713.489,394.893 712.217,395.843C710.945,396.792 710.309,397.941 710.309,399.289L705.011,399.289C705.011,397.751 705.557,396.265 706.648,394.832C707.74,393.398 709.221,392.263 711.092,391.428C712.962,390.592 715.018,390.175 717.258,390.175C720.809,390.175 723.591,391.062 725.604,392.838C727.617,394.613 728.661,397.058 728.737,400.172L728.737,414.357C728.737,417.186 729.098,419.436 729.819,421.107L729.819,421.563L724.294,421.563ZM715.549,417.547C717.201,417.547 718.768,417.12 720.249,416.265C721.73,415.411 722.803,414.3 723.468,412.933L723.468,406.609L719.338,406.609C712.881,406.609 709.653,408.499 709.653,412.277C709.653,413.93 710.204,415.221 711.305,416.151C712.407,417.082 713.821,417.547 715.549,417.547Z" style="fill:rgb(64,64,64);fill-rule:nonzero;stroke:rgb(64,64,64);stroke-width:1px;stroke-linecap:butt;stroke-miterlimit:2;"/>
                <path d="M751.894,395.472C751.096,395.34 750.232,395.273 749.302,395.273C745.846,395.273 743.501,396.745 742.267,399.688L742.267,421.563L736.997,421.563L736.997,390.744L742.124,390.744L742.21,394.305C743.938,391.551 746.387,390.175 749.558,390.175C750.584,390.175 751.362,390.308 751.894,390.573L751.894,395.472Z" style="fill:rgb(64,64,64);fill-rule:nonzero;stroke:rgb(64,64,64);stroke-width:1px;stroke-linecap:butt;stroke-miterlimit:2;"/>
                <path d="M768.556,417.832C770.436,417.832 772.079,417.262 773.484,416.123C774.889,414.983 775.668,413.559 775.82,411.85L780.804,411.85C780.709,413.616 780.102,415.297 778.981,416.892C777.861,418.487 776.366,419.759 774.495,420.708C772.625,421.658 770.645,422.133 768.556,422.133C764.36,422.133 761.023,420.732 758.545,417.931C756.067,415.131 754.828,411.3 754.828,406.438L754.828,405.555C754.828,402.555 755.378,399.887 756.48,397.552C757.581,395.216 759.162,393.403 761.222,392.111C763.282,390.82 765.718,390.175 768.528,390.175C771.984,390.175 774.856,391.21 777.144,393.279C779.432,395.349 780.652,398.036 780.804,401.34L775.82,401.34C775.668,399.346 774.913,397.708 773.555,396.427C772.197,395.145 770.522,394.504 768.528,394.504C765.851,394.504 763.776,395.468 762.304,397.395C760.833,399.322 760.097,402.109 760.097,405.755L760.097,406.752C760.097,410.303 760.828,413.037 762.29,414.955C763.752,416.873 765.841,417.832 768.556,417.832Z" style="fill:rgb(64,64,64);fill-rule:nonzero;stroke:rgb(64,64,64);stroke-width:1px;stroke-linecap:butt;stroke-miterlimit:2;"/>
                <path d="M791.998,394.476C794.334,391.608 797.372,390.175 801.113,390.175C807.626,390.175 810.911,393.849 810.968,401.198L810.968,421.563L805.698,421.563L805.698,401.169C805.679,398.947 805.171,397.305 804.174,396.242C803.178,395.178 801.625,394.646 799.517,394.646C797.809,394.646 796.308,395.102 795.017,396.014C793.726,396.925 792.72,398.121 791.998,399.603L791.998,421.563L786.729,421.563L786.729,377.813L791.998,377.813L791.998,394.476Z" style="fill:rgb(64,64,64);fill-rule:nonzero;stroke:rgb(64,64,64);stroke-width:1px;stroke-linecap:butt;stroke-miterlimit:2;"/>
            </g>
        </g>
        <g transform="matrix(0.737747,0,0,1.40562,58.8921,-201.152)">
            <path d="M810.108,367.246L810.108,316.435L1697.28,316.435L1697.28,265.624L1911.17,341.84L1697.28,418.057L1697.28,367.246L810.108,367.246Z" style="fill:rgb(36,184,160);"/>
        </g>
        <g transform="matrix(1.5599e-17,0.254751,-1.40562,8.60695e-17,2185.52,298.129)">
            <path d="M810.108,367.246L810.108,316.435L1291.76,316.435L1291.76,265.624L1911.17,341.84L1291.76,418.057L1291.76,367.246L810.108,367.246Z" style="fill:rgb(36,184,160);"/>
        </g>
        <g transform="matrix(1,0,0,1,208.798,-22)">
            <g transform="matrix(1,0,0,1,-47.7311,-71.4071)">
                <ellipse cx="1543.96" cy="372.753" rx="193.956" ry="182.909" style="fill:none;stroke:rgb(64,64,64);stroke-width:16.67px;"/>
            </g>
            <g transform="matrix(1,0,0,1,7.23845,5.40676)">
                <g transform="matrix(58.3333,0,0,58.3333,1415.34,287.708)">
                    <path d="M0.292,-0.317C0.212,-0.34 0.153,-0.368 0.116,-0.402C0.08,-0.436 0.062,-0.477 0.062,-0.527C0.062,-0.583 0.084,-0.629 0.129,-0.666C0.173,-0.702 0.232,-0.721 0.303,-0.721C0.352,-0.721 0.396,-0.711 0.434,-0.692C0.472,-0.674 0.502,-0.647 0.523,-0.614C0.544,-0.581 0.554,-0.545 0.554,-0.505L0.46,-0.505C0.46,-0.548 0.446,-0.582 0.419,-0.607C0.392,-0.631 0.353,-0.644 0.303,-0.644C0.257,-0.644 0.221,-0.633 0.195,-0.613C0.169,-0.593 0.156,-0.564 0.156,-0.528C0.156,-0.499 0.169,-0.475 0.193,-0.455C0.218,-0.435 0.26,-0.417 0.319,-0.4C0.378,-0.383 0.424,-0.365 0.457,-0.345C0.491,-0.325 0.515,-0.302 0.531,-0.275C0.548,-0.248 0.556,-0.217 0.556,-0.181C0.556,-0.123 0.533,-0.077 0.488,-0.042C0.443,-0.008 0.383,0.01 0.308,0.01C0.259,0.01 0.214,0 0.171,-0.018C0.129,-0.037 0.096,-0.063 0.073,-0.095C0.051,-0.128 0.039,-0.165 0.039,-0.206L0.133,-0.206C0.133,-0.163 0.149,-0.129 0.181,-0.104C0.213,-0.079 0.255,-0.067 0.308,-0.067C0.358,-0.067 0.396,-0.077 0.422,-0.097C0.448,-0.117 0.461,-0.145 0.461,-0.18C0.461,-0.215 0.449,-0.241 0.425,-0.26C0.4,-0.28 0.356,-0.298 0.292,-0.317Z" style="fill:rgb(64,64,64);fill-rule:nonzero;"/>
                </g>
                <g transform="matrix(58.3333,0,0,58.3333,1449.95,287.708)">
                    <path d="M0.191,-0.656L0.191,-0.528L0.29,-0.528L0.29,-0.458L0.191,-0.458L0.191,-0.131C0.191,-0.11 0.195,-0.094 0.204,-0.083C0.213,-0.073 0.228,-0.067 0.249,-0.067C0.259,-0.067 0.274,-0.069 0.292,-0.073L0.292,-0C0.268,0.007 0.245,0.01 0.223,0.01C0.182,0.01 0.152,-0.002 0.131,-0.027C0.111,-0.051 0.101,-0.086 0.101,-0.131L0.101,-0.458L0.004,-0.458L0.004,-0.528L0.101,-0.528L0.101,-0.656L0.191,-0.656Z" style="fill:rgb(64,64,64);fill-rule:nonzero;"/>
                </g>
                <g transform="matrix(58.3333,0,0,58.3333,1469.01,287.708)">
                    <path d="M0.395,-0C0.389,-0.01 0.385,-0.029 0.382,-0.056C0.34,-0.012 0.29,0.01 0.231,0.01C0.179,0.01 0.137,-0.005 0.103,-0.034C0.07,-0.064 0.053,-0.101 0.053,-0.146C0.053,-0.201 0.074,-0.244 0.116,-0.275C0.158,-0.305 0.217,-0.32 0.292,-0.32L0.38,-0.32L0.38,-0.362C0.38,-0.393 0.371,-0.419 0.352,-0.437C0.333,-0.456 0.305,-0.465 0.269,-0.465C0.236,-0.465 0.209,-0.457 0.188,-0.441C0.166,-0.425 0.155,-0.405 0.155,-0.382L0.064,-0.382C0.064,-0.408 0.073,-0.434 0.092,-0.458C0.111,-0.483 0.136,-0.502 0.168,-0.517C0.2,-0.531 0.236,-0.538 0.274,-0.538C0.335,-0.538 0.382,-0.523 0.417,-0.492C0.451,-0.462 0.469,-0.42 0.471,-0.367L0.471,-0.124C0.471,-0.075 0.477,-0.036 0.489,-0.008L0.489,-0L0.395,-0ZM0.245,-0.069C0.273,-0.069 0.3,-0.076 0.325,-0.091C0.351,-0.105 0.369,-0.125 0.38,-0.148L0.38,-0.256L0.31,-0.256C0.199,-0.256 0.144,-0.224 0.144,-0.159C0.144,-0.131 0.153,-0.109 0.172,-0.093C0.191,-0.077 0.215,-0.069 0.245,-0.069Z" style="fill:rgb(64,64,64);fill-rule:nonzero;"/>
                </g>
                <g transform="matrix(58.3333,0,0,58.3333,1500.74,287.708)">
                    <path d="M0.191,-0.656L0.191,-0.528L0.29,-0.528L0.29,-0.458L0.191,-0.458L0.191,-0.131C0.191,-0.11 0.195,-0.094 0.204,-0.083C0.213,-0.073 0.228,-0.067 0.249,-0.067C0.259,-0.067 0.274,-0.069 0.292,-0.073L0.292,-0C0.268,0.007 0.245,0.01 0.223,0.01C0.182,0.01 0.152,-0.002 0.131,-0.027C0.111,-0.051 0.101,-0.086 0.101,-0.131L0.101,-0.458L0.004,-0.458L0.004,-0.528L0.101,-0.528L0.101,-0.656L0.191,-0.656Z" style="fill:rgb(64,64,64);fill-rule:nonzero;"/>
                </g>
                <g transform="matrix(58.3333,0,0,58.3333,1519.79,287.708)">
                    <path d="M0.167,-0L0.076,-0L0.076,-0.528L0.167,-0.528L0.167,-0ZM0.069,-0.668C0.069,-0.683 0.073,-0.695 0.082,-0.706C0.091,-0.716 0.104,-0.721 0.122,-0.721C0.14,-0.721 0.153,-0.716 0.162,-0.706C0.171,-0.695 0.176,-0.683 0.176,-0.668C0.176,-0.654 0.171,-0.642 0.162,-0.632C0.153,-0.622 0.14,-0.617 0.122,-0.617C0.104,-0.617 0.091,-0.622 0.082,-0.632C0.073,-0.642 0.069,-0.654 0.069,-0.668Z" style="fill:rgb(64,64,64);fill-rule:nonzero;"/>
                </g>
                <g transform="matrix(58.3333,0,0,58.3333,1533.95,287.708)">
                    <path d="M0.28,-0.064C0.313,-0.064 0.341,-0.074 0.365,-0.093C0.389,-0.113 0.402,-0.137 0.405,-0.167L0.49,-0.167C0.489,-0.136 0.478,-0.107 0.459,-0.08C0.44,-0.053 0.414,-0.031 0.382,-0.015C0.35,0.002 0.316,0.01 0.28,0.01C0.208,0.01 0.151,-0.014 0.109,-0.062C0.066,-0.11 0.045,-0.176 0.045,-0.259L0.045,-0.274C0.045,-0.326 0.054,-0.372 0.073,-0.412C0.092,-0.452 0.119,-0.483 0.155,-0.505C0.19,-0.527 0.232,-0.538 0.28,-0.538C0.339,-0.538 0.388,-0.52 0.427,-0.485C0.467,-0.449 0.488,-0.403 0.49,-0.347L0.405,-0.347C0.402,-0.381 0.389,-0.409 0.366,-0.431C0.343,-0.453 0.314,-0.464 0.28,-0.464C0.234,-0.464 0.198,-0.447 0.173,-0.414C0.148,-0.381 0.135,-0.333 0.135,-0.271L0.135,-0.254C0.135,-0.193 0.148,-0.146 0.173,-0.113C0.198,-0.08 0.234,-0.064 0.28,-0.064Z" style="fill:rgb(64,64,64);fill-rule:nonzero;"/>
                </g>
                <g transform="matrix(58.3333,0,0,58.3333,1408.84,346.041)">
                    <path d="M0.204,-0.711L0.436,-0.131L0.668,-0.711L0.79,-0.711L0.79,-0L0.696,-0L0.696,-0.277L0.705,-0.576L0.472,-0L0.4,-0L0.167,-0.574L0.176,-0.277L0.176,-0L0.083,-0L0.083,-0.711L0.204,-0.711Z" style="fill:rgb(64,64,64);fill-rule:nonzero;"/>
                </g>
                <g transform="matrix(58.3333,0,0,58.3333,1459.76,346.041)">
                    <path d="M0.044,-0.269C0.044,-0.321 0.055,-0.367 0.075,-0.409C0.095,-0.45 0.124,-0.482 0.16,-0.504C0.196,-0.527 0.238,-0.538 0.284,-0.538C0.356,-0.538 0.414,-0.513 0.459,-0.463C0.503,-0.414 0.525,-0.347 0.525,-0.265L0.525,-0.258C0.525,-0.207 0.516,-0.161 0.496,-0.12C0.476,-0.079 0.448,-0.047 0.411,-0.024C0.375,-0.002 0.333,0.01 0.285,0.01C0.214,0.01 0.156,-0.015 0.111,-0.065C0.067,-0.115 0.044,-0.181 0.044,-0.263L0.044,-0.269ZM0.135,-0.258C0.135,-0.2 0.149,-0.153 0.176,-0.117C0.203,-0.082 0.24,-0.064 0.285,-0.064C0.331,-0.064 0.368,-0.082 0.395,-0.118C0.422,-0.154 0.435,-0.204 0.435,-0.269C0.435,-0.327 0.421,-0.374 0.394,-0.41C0.366,-0.446 0.33,-0.464 0.284,-0.464C0.24,-0.464 0.204,-0.446 0.176,-0.411C0.149,-0.375 0.135,-0.324 0.135,-0.258Z" style="fill:rgb(64,64,64);fill-rule:nonzero;"/>
                </g>
                <g transform="matrix(58.3333,0,0,58.3333,1493.03,346.041)">
                    <path d="M0.046,-0.269C0.046,-0.35 0.066,-0.415 0.104,-0.464C0.142,-0.513 0.193,-0.538 0.255,-0.538C0.317,-0.538 0.366,-0.517 0.402,-0.475L0.402,-0.75L0.492,-0.75L0.492,-0L0.409,-0L0.405,-0.057C0.369,-0.012 0.318,0.01 0.254,0.01C0.193,0.01 0.143,-0.015 0.104,-0.065C0.066,-0.116 0.046,-0.181 0.046,-0.262L0.046,-0.269ZM0.137,-0.258C0.137,-0.198 0.149,-0.152 0.174,-0.118C0.199,-0.084 0.233,-0.067 0.276,-0.067C0.334,-0.067 0.375,-0.093 0.402,-0.144L0.402,-0.387C0.375,-0.437 0.333,-0.461 0.277,-0.461C0.233,-0.461 0.199,-0.444 0.174,-0.41C0.149,-0.376 0.137,-0.325 0.137,-0.258Z" style="fill:rgb(64,64,64);fill-rule:nonzero;"/>
                </g>
                <g transform="matrix(58.3333,0,0,58.3333,1525.93,346.041)">
                    <path d="M0.288,0.01C0.216,0.01 0.158,-0.014 0.113,-0.061C0.068,-0.108 0.045,-0.171 0.045,-0.25L0.045,-0.266C0.045,-0.319 0.055,-0.365 0.075,-0.406C0.095,-0.448 0.123,-0.48 0.159,-0.503C0.195,-0.526 0.234,-0.538 0.276,-0.538C0.345,-0.538 0.398,-0.515 0.437,-0.47C0.475,-0.425 0.494,-0.36 0.494,-0.276L0.494,-0.238L0.136,-0.238C0.137,-0.186 0.152,-0.144 0.181,-0.112C0.211,-0.08 0.248,-0.064 0.292,-0.064C0.324,-0.064 0.351,-0.07 0.374,-0.083C0.396,-0.097 0.415,-0.114 0.432,-0.135L0.487,-0.092C0.443,-0.024 0.376,0.01 0.288,0.01ZM0.276,-0.464C0.24,-0.464 0.209,-0.451 0.185,-0.424C0.16,-0.398 0.145,-0.36 0.139,-0.313L0.403,-0.313L0.403,-0.319C0.401,-0.365 0.388,-0.401 0.366,-0.426C0.344,-0.451 0.314,-0.464 0.276,-0.464Z" style="fill:rgb(64,64,64);fill-rule:nonzero;"/>
                </g>
                <g transform="matrix(58.3333,0,0,58.3333,1556.83,346.041)">
                    <rect x="0.076" y="-0.75" width="0.09" height="0.75" style="fill:rgb(64,64,64);fill-rule:nonzero;"/>
                </g>
            </g>
        </g>
        <g transform="matrix(1,0,0,1,64.5129,-7.73586)">
            <g transform="matrix(1,0,0,1,-241.941,-40.0712)">
                <g transform="matrix(58.3333,0,0,58.3333,1103.28,95.0806)">
                    <path d="M0.176,-0.278L0.176,-0L0.083,-0L0.083,-0.711L0.345,-0.711C0.423,-0.711 0.483,-0.691 0.528,-0.651C0.572,-0.612 0.594,-0.559 0.594,-0.494C0.594,-0.425 0.572,-0.372 0.529,-0.334C0.486,-0.297 0.424,-0.278 0.344,-0.278L0.176,-0.278ZM0.176,-0.355L0.345,-0.355C0.395,-0.355 0.433,-0.367 0.46,-0.39C0.487,-0.414 0.5,-0.448 0.5,-0.493C0.5,-0.535 0.487,-0.569 0.46,-0.594C0.433,-0.62 0.397,-0.633 0.35,-0.634L0.176,-0.634L0.176,-0.355Z" style="fill:rgb(64,64,64);fill-rule:nonzero;"/>
                </g>
                <g transform="matrix(58.3333,0,0,58.3333,1139.71,95.0806)">
                    <path d="M0.288,0.01C0.216,0.01 0.158,-0.014 0.113,-0.061C0.068,-0.108 0.045,-0.171 0.045,-0.25L0.045,-0.266C0.045,-0.319 0.055,-0.365 0.075,-0.406C0.095,-0.448 0.123,-0.48 0.159,-0.503C0.195,-0.526 0.234,-0.538 0.276,-0.538C0.345,-0.538 0.398,-0.515 0.437,-0.47C0.475,-0.425 0.494,-0.36 0.494,-0.276L0.494,-0.238L0.136,-0.238C0.137,-0.186 0.152,-0.144 0.181,-0.112C0.211,-0.08 0.248,-0.064 0.292,-0.064C0.324,-0.064 0.351,-0.07 0.374,-0.083C0.396,-0.097 0.415,-0.114 0.432,-0.135L0.487,-0.092C0.443,-0.024 0.376,0.01 0.288,0.01ZM0.276,-0.464C0.24,-0.464 0.209,-0.451 0.185,-0.424C0.16,-0.398 0.145,-0.36 0.139,-0.313L0.403,-0.313L0.403,-0.319C0.401,-0.365 0.388,-0.401 0.366,-0.426C0.344,-0.451 0.314,-0.464 0.276,-0.464Z" style="fill:rgb(64,64,64);fill-rule:nonzero;"/>
                </g>
                <g transform="matrix(58.3333,0,0,58.3333,1170.61,95.0806)">
                    <path d="M0.324,-0.447C0.31,-0.45 0.295,-0.451 0.279,-0.451C0.22,-0.451 0.18,-0.425 0.159,-0.375L0.159,-0L0.068,-0L0.068,-0.528L0.156,-0.528L0.158,-0.467C0.187,-0.514 0.229,-0.538 0.284,-0.538C0.301,-0.538 0.315,-0.536 0.324,-0.531L0.324,-0.447Z" style="fill:rgb(64,64,64);fill-rule:nonzero;"/>
                </g>
                <g transform="matrix(58.3333,0,0,58.3333,1189.81,95.0806)">
                    <path d="M0.28,-0.064C0.313,-0.064 0.341,-0.074 0.365,-0.093C0.389,-0.113 0.402,-0.137 0.405,-0.167L0.49,-0.167C0.489,-0.136 0.478,-0.107 0.459,-0.08C0.44,-0.053 0.414,-0.031 0.382,-0.015C0.35,0.002 0.316,0.01 0.28,0.01C0.208,0.01 0.151,-0.014 0.109,-0.062C0.066,-0.11 0.045,-0.176 0.045,-0.259L0.045,-0.274C0.045,-0.326 0.054,-0.372 0.073,-0.412C0.092,-0.452 0.119,-0.483 0.155,-0.505C0.19,-0.527 0.232,-0.538 0.28,-0.538C0.339,-0.538 0.388,-0.52 0.427,-0.485C0.467,-0.449 0.488,-0.403 0.49,-0.347L0.405,-0.347C0.402,-0.381 0.389,-0.409 0.366,-0.431C0.343,-0.453 0.314,-0.464 0.28,-0.464C0.234,-0.464 0.198,-0.447 0.173,-0.414C0.148,-0.381 0.135,-0.333 0.135,-0.271L0.135,-0.254C0.135,-0.193 0.148,-0.146 0.173,-0.113C0.198,-0.08 0.234,-0.064 0.28,-0.064Z" style="fill:rgb(64,64,64);fill-rule:nonzero;"/>
                </g>
                <g transform="matrix(58.3333,0,0,58.3333,1220.34,95.0806)">
                    <path d="M0.044,-0.269C0.044,-0.321 0.055,-0.367 0.075,-0.409C0.095,-0.45 0.124,-0.482 0.16,-0.504C0.196,-0.527 0.238,-0.538 0.284,-0.538C0.356,-0.538 0.414,-0.513 0.459,-0.463C0.503,-0.414 0.525,-0.347 0.525,-0.265L0.525,-0.258C0.525,-0.207 0.516,-0.161 0.496,-0.12C0.476,-0.079 0.448,-0.047 0.411,-0.024C0.375,-0.002 0.333,0.01 0.285,0.01C0.214,0.01 0.156,-0.015 0.111,-0.065C0.067,-0.115 0.044,-0.181 0.044,-0.263L0.044,-0.269ZM0.135,-0.258C0.135,-0.2 0.149,-0.153 0.176,-0.117C0.203,-0.082 0.24,-0.064 0.285,-0.064C0.331,-0.064 0.368,-0.082 0.395,-0.118C0.422,-0.154 0.435,-0.204 0.435,-0.269C0.435,-0.327 0.421,-0.374 0.394,-0.41C0.366,-0.446 0.33,-0.464 0.284,-0.464C0.24,-0.464 0.204,-0.446 0.176,-0.411C0.149,-0.375 0.135,-0.324 0.135,-0.258Z" style="fill:rgb(64,64,64);fill-rule:nonzero;"/>
                </g>
                <g transform="matrix(58.3333,0,0,58.3333,1253.61,95.0806)">
                    <rect x="0.076" y="-0.75" width="0.09" height="0.75" style="fill:rgb(64,64,64);fill-rule:nonzero;"/>
                </g>
                <g transform="matrix(58.3333,0,0,58.3333,1267.77,95.0806)">
                    <path d="M0.395,-0C0.389,-0.01 0.385,-0.029 0.382,-0.056C0.34,-0.012 0.29,0.01 0.231,0.01C0.179,0.01 0.137,-0.005 0.103,-0.034C0.07,-0.064 0.053,-0.101 0.053,-0.146C0.053,-0.201 0.074,-0.244 0.116,-0.275C0.158,-0.305 0.217,-0.32 0.292,-0.32L0.38,-0.32L0.38,-0.362C0.38,-0.393 0.371,-0.419 0.352,-0.437C0.333,-0.456 0.305,-0.465 0.269,-0.465C0.236,-0.465 0.209,-0.457 0.188,-0.441C0.166,-0.425 0.155,-0.405 0.155,-0.382L0.064,-0.382C0.064,-0.408 0.073,-0.434 0.092,-0.458C0.111,-0.483 0.136,-0.502 0.168,-0.517C0.2,-0.531 0.236,-0.538 0.274,-0.538C0.335,-0.538 0.382,-0.523 0.417,-0.492C0.451,-0.462 0.469,-0.42 0.471,-0.367L0.471,-0.124C0.471,-0.075 0.477,-0.036 0.489,-0.008L0.489,-0L0.395,-0ZM0.245,-0.069C0.273,-0.069 0.3,-0.076 0.325,-0.091C0.351,-0.105 0.369,-0.125 0.38,-0.148L0.38,-0.256L0.31,-0.256C0.199,-0.256 0.144,-0.224 0.144,-0.159C0.144,-0.131 0.153,-0.109 0.172,-0.093C0.191,-0.077 0.215,-0.069 0.245,-0.069Z" style="fill:rgb(64,64,64);fill-rule:nonzero;"/>
                </g>
                <g transform="matrix(58.3333,0,0,58.3333,1299.5,95.0806)">
                    <path d="M0.191,-0.656L0.191,-0.528L0.29,-0.528L0.29,-0.458L0.191,-0.458L0.191,-0.131C0.191,-0.11 0.195,-0.094 0.204,-0.083C0.213,-0.073 0.228,-0.067 0.249,-0.067C0.259,-0.067 0.274,-0.069 0.292,-0.073L0.292,-0C0.268,0.007 0.245,0.01 0.223,0.01C0.182,0.01 0.152,-0.002 0.131,-0.027C0.111,-0.051 0.101,-0.086 0.101,-0.131L0.101,-0.458L0.004,-0.458L0.004,-0.528L0.101,-0.528L0.101,-0.656L0.191,-0.656Z" style="fill:rgb(64,64,64);fill-rule:nonzero;"/>
                </g>
                <g transform="matrix(58.3333,0,0,58.3333,1317.98,95.0806)">
                    <path d="M0.044,-0.269C0.044,-0.321 0.055,-0.367 0.075,-0.409C0.095,-0.45 0.124,-0.482 0.16,-0.504C0.196,-0.527 0.238,-0.538 0.284,-0.538C0.356,-0.538 0.414,-0.513 0.459,-0.463C0.503,-0.414 0.525,-0.347 0.525,-0.265L0.525,-0.258C0.525,-0.207 0.516,-0.161 0.496,-0.12C0.476,-0.079 0.448,-0.047 0.411,-0.024C0.375,-0.002 0.333,0.01 0.285,0.01C0.214,0.01 0.156,-0.015 0.111,-0.065C0.067,-0.115 0.044,-0.181 0.044,-0.263L0.044,-0.269ZM0.135,-0.258C0.135,-0.2 0.149,-0.153 0.176,-0.117C0.203,-0.082 0.24,-0.064 0.285,-0.064C0.331,-0.064 0.368,-0.082 0.395,-0.118C0.422,-0.154 0.435,-0.204 0.435,-0.269C0.435,-0.327 0.421,-0.374 0.394,-0.41C0.366,-0.446 0.33,-0.464 0.284,-0.464C0.24,-0.464 0.204,-0.446 0.176,-0.411C0.149,-0.375 0.135,-0.324 0.135,-0.258Z" style="fill:rgb(64,64,64);fill-rule:nonzero;"/>
                </g>
                <g transform="matrix(58.3333,0,0,58.3333,1351.25,95.0806)">
                    <path d="M0.324,-0.447C0.31,-0.45 0.295,-0.451 0.279,-0.451C0.22,-0.451 0.18,-0.425 0.159,-0.375L0.159,-0L0.068,-0L0.068,-0.528L0.156,-0.528L0.158,-0.467C0.187,-0.514 0.229,-0.538 0.284,-0.538C0.301,-0.538 0.315,-0.536 0.324,-0.531L0.324,-0.447Z" style="fill:rgb(64,64,64);fill-rule:nonzero;"/>
                </g>
            </g>
            <g transform="matrix(2.58811,0,0,2.58811,-241.754,-42.6637)">
                <path d="M476.455,53.248C514.078,52.907 527.533,151.463 527.533,198.452C527.533,245.442 425.267,245.442 425.267,198.452C425.267,151.463 438.831,53.589 476.455,53.248Z" style="fill:white;stroke:rgb(64,64,64);stroke-width:4.02px;"/>
                <g transform="matrix(1.0094,1.45752e-17,-1.45752e-17,-0.890381,4.46824,255.148)">
                    <path d="M426.301,83.007C429.498,114.825 434.378,145.959 443.55,175.35L410.916,179.755L426.301,83.007Z" style="fill:white;stroke:rgb(64,64,64);stroke-width:4.23px;"/>
                </g>
                <path d="M440.614,95.097L452.186,98.53L419.246,95.097L440.614,95.097Z" style="fill:white;stroke:rgb(64,64,64);stroke-width:4.02px;"/>
                <g transform="matrix(1,0,0,1,0,3.48499)">
                    <path d="M425.267,181.239C459.8,200.25 493.883,199.992 527.533,181.239" style="fill:white;stroke:rgb(64,64,64);stroke-width:4.02px;"/>
                </g>
                <g transform="matrix(1,0,0,1,50.9389,-1.04959)">
                    <ellipse cx="425.461" cy="52" rx="6.215" ry="6.196" style="fill:white;stroke:rgb(64,64,64);stroke-width:4.02px;"/>
                </g>
                <path d="M509.508,86.45C509.508,86.45 522.626,79.367 527.533,86.528C533.822,95.707 524.605,148.662 524.605,148.662L526.768,170.899C526.768,170.899 545.946,93.573 536.147,78.049C528.724,66.289 505.058,76.429 505.058,76.429L509.508,86.45Z" style="fill:white;stroke:rgb(64,64,64);stroke-width:4.02px;"/>
            </g>
        </g>
    </g>
</svg>
