<?xml version="1.0" encoding="UTF-8" standalone="no"?>
<!DOCTYPE svg PUBLIC "-//W3C//DTD SVG 1.1//EN" "http://www.w3.org/Graphics/SVG/1.1/DTD/svg11.dtd">
<svg width="100%" height="100%" viewBox="0 0 2700 600" version="1.1" xmlns="http://www.w3.org/2000/svg" xmlns:xlink="http://www.w3.org/1999/xlink" xml:space="preserve" xmlns:serif="http://www.serif.com/" style="fill-rule:evenodd;clip-rule:evenodd;stroke-linecap:round;stroke-linejoin:round;stroke-miterlimit:1.5;">
    <g transform="matrix(1,0,0,1,150.172,-10.043)">
        <g>
            <g transform="matrix(1,0,0,1,1531.64,-114.961)">
                <path d="M771.603,326.91C771.603,272.77 727.649,228.816 673.509,228.816L352.66,228.816C298.52,228.816 254.566,272.77 254.566,326.91L254.566,523.098C254.566,577.237 298.52,621.192 352.66,621.192L673.509,621.192C727.649,621.192 771.603,577.237 771.603,523.098L771.603,326.91Z" style="fill:none;stroke:rgb(73,79,92);stroke-width:16.67px;"/>
            </g>
            <g transform="matrix(1,0,0,1,-55.0843,-61.076)">
                <g transform="matrix(58.3333,0,0,58.3333,1964.6,363.101)">
                    <path d="M0.176,-0.278L0.176,-0L0.083,-0L0.083,-0.711L0.345,-0.711C0.423,-0.711 0.483,-0.691 0.528,-0.651C0.572,-0.612 0.594,-0.559 0.594,-0.494C0.594,-0.425 0.572,-0.372 0.529,-0.334C0.486,-0.297 0.424,-0.278 0.344,-0.278L0.176,-0.278ZM0.176,-0.355L0.345,-0.355C0.395,-0.355 0.433,-0.367 0.46,-0.39C0.487,-0.414 0.5,-0.448 0.5,-0.493C0.5,-0.535 0.487,-0.569 0.46,-0.594C0.433,-0.62 0.397,-0.633 0.35,-0.634L0.176,-0.634L0.176,-0.355Z" style="fill:rgb(64,64,64);fill-rule:nonzero;"/>
                </g>
                <g transform="matrix(58.3333,0,0,58.3333,2001.03,363.101)">
                    <path d="M0.288,0.01C0.216,0.01 0.158,-0.014 0.113,-0.061C0.068,-0.108 0.045,-0.171 0.045,-0.25L0.045,-0.266C0.045,-0.319 0.055,-0.365 0.075,-0.406C0.095,-0.448 0.123,-0.48 0.159,-0.503C0.195,-0.526 0.234,-0.538 0.276,-0.538C0.345,-0.538 0.398,-0.515 0.437,-0.47C0.475,-0.425 0.494,-0.36 0.494,-0.276L0.494,-0.238L0.136,-0.238C0.137,-0.186 0.152,-0.144 0.181,-0.112C0.211,-0.08 0.248,-0.064 0.292,-0.064C0.324,-0.064 0.351,-0.07 0.374,-0.083C0.396,-0.097 0.415,-0.114 0.432,-0.135L0.487,-0.092C0.443,-0.024 0.376,0.01 0.288,0.01ZM0.276,-0.464C0.24,-0.464 0.209,-0.451 0.185,-0.424C0.16,-0.398 0.145,-0.36 0.139,-0.313L0.403,-0.313L0.403,-0.319C0.401,-0.365 0.388,-0.401 0.366,-0.426C0.344,-0.451 0.314,-0.464 0.276,-0.464Z" style="fill:rgb(64,64,64);fill-rule:nonzero;"/>
                </g>
                <g transform="matrix(58.3333,0,0,58.3333,2031.93,363.101)">
                    <path d="M0.324,-0.447C0.31,-0.45 0.295,-0.451 0.279,-0.451C0.22,-0.451 0.18,-0.425 0.159,-0.375L0.159,-0L0.068,-0L0.068,-0.528L0.156,-0.528L0.158,-0.467C0.187,-0.514 0.229,-0.538 0.284,-0.538C0.301,-0.538 0.315,-0.536 0.324,-0.531L0.324,-0.447Z" style="fill:rgb(64,64,64);fill-rule:nonzero;"/>
                </g>
                <g transform="matrix(58.3333,0,0,58.3333,2051.13,363.101)">
                    <path d="M0.28,-0.064C0.313,-0.064 0.341,-0.074 0.365,-0.093C0.389,-0.113 0.402,-0.137 0.405,-0.167L0.49,-0.167C0.489,-0.136 0.478,-0.107 0.459,-0.08C0.44,-0.053 0.414,-0.031 0.382,-0.015C0.35,0.002 0.316,0.01 0.28,0.01C0.208,0.01 0.151,-0.014 0.109,-0.062C0.066,-0.11 0.045,-0.176 0.045,-0.259L0.045,-0.274C0.045,-0.326 0.054,-0.372 0.073,-0.412C0.092,-0.452 0.119,-0.483 0.155,-0.505C0.19,-0.527 0.232,-0.538 0.28,-0.538C0.339,-0.538 0.388,-0.52 0.427,-0.485C0.467,-0.449 0.488,-0.403 0.49,-0.347L0.405,-0.347C0.402,-0.381 0.389,-0.409 0.366,-0.431C0.343,-0.453 0.314,-0.464 0.28,-0.464C0.234,-0.464 0.198,-0.447 0.173,-0.414C0.148,-0.381 0.135,-0.333 0.135,-0.271L0.135,-0.254C0.135,-0.193 0.148,-0.146 0.173,-0.113C0.198,-0.08 0.234,-0.064 0.28,-0.064Z" style="fill:rgb(64,64,64);fill-rule:nonzero;"/>
                </g>
                <g transform="matrix(58.3333,0,0,58.3333,2081.66,363.101)">
                    <path d="M0.044,-0.269C0.044,-0.321 0.055,-0.367 0.075,-0.409C0.095,-0.45 0.124,-0.482 0.16,-0.504C0.196,-0.527 0.238,-0.538 0.284,-0.538C0.356,-0.538 0.414,-0.513 0.459,-0.463C0.503,-0.414 0.525,-0.347 0.525,-0.265L0.525,-0.258C0.525,-0.207 0.516,-0.161 0.496,-0.12C0.476,-0.079 0.448,-0.047 0.411,-0.024C0.375,-0.002 0.333,0.01 0.285,0.01C0.214,0.01 0.156,-0.015 0.111,-0.065C0.067,-0.115 0.044,-0.181 0.044,-0.263L0.044,-0.269ZM0.135,-0.258C0.135,-0.2 0.149,-0.153 0.176,-0.117C0.203,-0.082 0.24,-0.064 0.285,-0.064C0.331,-0.064 0.368,-0.082 0.395,-0.118C0.422,-0.154 0.435,-0.204 0.435,-0.269C0.435,-0.327 0.421,-0.374 0.394,-0.41C0.366,-0.446 0.33,-0.464 0.284,-0.464C0.24,-0.464 0.204,-0.446 0.176,-0.411C0.149,-0.375 0.135,-0.324 0.135,-0.258Z" style="fill:rgb(64,64,64);fill-rule:nonzero;"/>
                </g>
                <g transform="matrix(58.3333,0,0,58.3333,2114.93,363.101)">
                    <rect x="0.076" y="-0.75" width="0.09" height="0.75" style="fill:rgb(64,64,64);fill-rule:nonzero;"/>
                </g>
                <g transform="matrix(58.3333,0,0,58.3333,2129.09,363.101)">
                    <path d="M0.395,-0C0.389,-0.01 0.385,-0.029 0.382,-0.056C0.34,-0.012 0.29,0.01 0.231,0.01C0.179,0.01 0.137,-0.005 0.103,-0.034C0.07,-0.064 0.053,-0.101 0.053,-0.146C0.053,-0.201 0.074,-0.244 0.116,-0.275C0.158,-0.305 0.217,-0.32 0.292,-0.32L0.38,-0.32L0.38,-0.362C0.38,-0.393 0.371,-0.419 0.352,-0.437C0.333,-0.456 0.305,-0.465 0.269,-0.465C0.236,-0.465 0.209,-0.457 0.188,-0.441C0.166,-0.425 0.155,-0.405 0.155,-0.382L0.064,-0.382C0.064,-0.408 0.073,-0.434 0.092,-0.458C0.111,-0.483 0.136,-0.502 0.168,-0.517C0.2,-0.531 0.236,-0.538 0.274,-0.538C0.335,-0.538 0.382,-0.523 0.417,-0.492C0.451,-0.462 0.469,-0.42 0.471,-0.367L0.471,-0.124C0.471,-0.075 0.477,-0.036 0.489,-0.008L0.489,-0L0.395,-0ZM0.245,-0.069C0.273,-0.069 0.3,-0.076 0.325,-0.091C0.351,-0.105 0.369,-0.125 0.38,-0.148L0.38,-0.256L0.31,-0.256C0.199,-0.256 0.144,-0.224 0.144,-0.159C0.144,-0.131 0.153,-0.109 0.172,-0.093C0.191,-0.077 0.215,-0.069 0.245,-0.069Z" style="fill:rgb(64,64,64);fill-rule:nonzero;"/>
                </g>
                <g transform="matrix(58.3333,0,0,58.3333,2160.82,363.101)">
                    <path d="M0.191,-0.656L0.191,-0.528L0.29,-0.528L0.29,-0.458L0.191,-0.458L0.191,-0.131C0.191,-0.11 0.195,-0.094 0.204,-0.083C0.213,-0.073 0.228,-0.067 0.249,-0.067C0.259,-0.067 0.274,-0.069 0.292,-0.073L0.292,-0C0.268,0.007 0.245,0.01 0.223,0.01C0.182,0.01 0.152,-0.002 0.131,-0.027C0.111,-0.051 0.101,-0.086 0.101,-0.131L0.101,-0.458L0.004,-0.458L0.004,-0.528L0.101,-0.528L0.101,-0.656L0.191,-0.656Z" style="fill:rgb(64,64,64);fill-rule:nonzero;"/>
                </g>
                <g transform="matrix(58.3333,0,0,58.3333,2179.3,363.101)">
                    <path d="M0.044,-0.269C0.044,-0.321 0.055,-0.367 0.075,-0.409C0.095,-0.45 0.124,-0.482 0.16,-0.504C0.196,-0.527 0.238,-0.538 0.284,-0.538C0.356,-0.538 0.414,-0.513 0.459,-0.463C0.503,-0.414 0.525,-0.347 0.525,-0.265L0.525,-0.258C0.525,-0.207 0.516,-0.161 0.496,-0.12C0.476,-0.079 0.448,-0.047 0.411,-0.024C0.375,-0.002 0.333,0.01 0.285,0.01C0.214,0.01 0.156,-0.015 0.111,-0.065C0.067,-0.115 0.044,-0.181 0.044,-0.263L0.044,-0.269ZM0.135,-0.258C0.135,-0.2 0.149,-0.153 0.176,-0.117C0.203,-0.082 0.24,-0.064 0.285,-0.064C0.331,-0.064 0.368,-0.082 0.395,-0.118C0.422,-0.154 0.435,-0.204 0.435,-0.269C0.435,-0.327 0.421,-0.374 0.394,-0.41C0.366,-0.446 0.33,-0.464 0.284,-0.464C0.24,-0.464 0.204,-0.446 0.176,-0.411C0.149,-0.375 0.135,-0.324 0.135,-0.258Z" style="fill:rgb(64,64,64);fill-rule:nonzero;"/>
                </g>
                <g transform="matrix(58.3333,0,0,58.3333,2212.57,363.101)">
                    <path d="M0.324,-0.447C0.31,-0.45 0.295,-0.451 0.279,-0.451C0.22,-0.451 0.18,-0.425 0.159,-0.375L0.159,-0L0.068,-0L0.068,-0.528L0.156,-0.528L0.158,-0.467C0.187,-0.514 0.229,-0.538 0.284,-0.538C0.301,-0.538 0.315,-0.536 0.324,-0.531L0.324,-0.447Z" style="fill:rgb(64,64,64);fill-rule:nonzero;"/>
                </g>
                <g transform="matrix(58.3333,0,0,58.3333,1885.13,421.434)">
                    <path d="M0.343,-0.288L0.176,-0.288L0.176,-0L0.082,-0L0.082,-0.711L0.317,-0.711C0.397,-0.711 0.459,-0.693 0.502,-0.656C0.545,-0.62 0.567,-0.567 0.567,-0.497C0.567,-0.453 0.555,-0.414 0.531,-0.381C0.507,-0.348 0.474,-0.324 0.431,-0.308L0.598,-0.006L0.598,-0L0.498,-0L0.343,-0.288ZM0.176,-0.364L0.32,-0.364C0.367,-0.364 0.404,-0.376 0.431,-0.4C0.459,-0.424 0.473,-0.457 0.473,-0.497C0.473,-0.541 0.46,-0.575 0.433,-0.598C0.407,-0.622 0.369,-0.633 0.32,-0.634L0.176,-0.634L0.176,-0.364Z" style="fill:rgb(64,64,64);fill-rule:nonzero;"/>
                </g>
                <g transform="matrix(58.3333,0,0,58.3333,1921.05,421.434)">
                    <path d="M0.288,0.01C0.216,0.01 0.158,-0.014 0.113,-0.061C0.068,-0.108 0.045,-0.171 0.045,-0.25L0.045,-0.266C0.045,-0.319 0.055,-0.365 0.075,-0.406C0.095,-0.448 0.123,-0.48 0.159,-0.503C0.195,-0.526 0.234,-0.538 0.276,-0.538C0.345,-0.538 0.398,-0.515 0.437,-0.47C0.475,-0.425 0.494,-0.36 0.494,-0.276L0.494,-0.238L0.136,-0.238C0.137,-0.186 0.152,-0.144 0.181,-0.112C0.211,-0.08 0.248,-0.064 0.292,-0.064C0.324,-0.064 0.351,-0.07 0.374,-0.083C0.396,-0.097 0.415,-0.114 0.432,-0.135L0.487,-0.092C0.443,-0.024 0.376,0.01 0.288,0.01ZM0.276,-0.464C0.24,-0.464 0.209,-0.451 0.185,-0.424C0.16,-0.398 0.145,-0.36 0.139,-0.313L0.403,-0.313L0.403,-0.319C0.401,-0.365 0.388,-0.401 0.366,-0.426C0.344,-0.451 0.314,-0.464 0.276,-0.464Z" style="fill:rgb(64,64,64);fill-rule:nonzero;"/>
                </g>
                <g transform="matrix(58.3333,0,0,58.3333,1951.95,421.434)">
                    <rect x="0.018" y="-0.339" width="0.238" height="0.074" style="fill:rgb(64,64,64);fill-rule:nonzero;"/>
                </g>
                <g transform="matrix(58.3333,0,0,58.3333,1968.04,421.434)">
                    <path d="M0.376,-0.14C0.376,-0.165 0.367,-0.184 0.348,-0.197C0.33,-0.211 0.298,-0.222 0.252,-0.232C0.206,-0.242 0.17,-0.253 0.143,-0.267C0.116,-0.281 0.097,-0.297 0.084,-0.316C0.071,-0.335 0.064,-0.357 0.064,-0.383C0.064,-0.427 0.083,-0.463 0.119,-0.493C0.156,-0.523 0.203,-0.538 0.26,-0.538C0.32,-0.538 0.368,-0.523 0.406,-0.492C0.443,-0.461 0.461,-0.421 0.461,-0.373L0.371,-0.373C0.371,-0.398 0.36,-0.419 0.339,-0.437C0.318,-0.455 0.292,-0.464 0.26,-0.464C0.227,-0.464 0.201,-0.457 0.183,-0.442C0.164,-0.428 0.155,-0.409 0.155,-0.386C0.155,-0.364 0.163,-0.348 0.181,-0.337C0.198,-0.326 0.229,-0.315 0.274,-0.305C0.319,-0.295 0.356,-0.283 0.384,-0.269C0.412,-0.255 0.433,-0.238 0.446,-0.219C0.46,-0.199 0.466,-0.175 0.466,-0.146C0.466,-0.099 0.447,-0.061 0.41,-0.033C0.372,-0.004 0.323,0.01 0.263,0.01C0.22,0.01 0.183,0.002 0.15,-0.013C0.118,-0.028 0.092,-0.049 0.074,-0.075C0.056,-0.102 0.046,-0.131 0.046,-0.163L0.137,-0.163C0.138,-0.132 0.15,-0.108 0.173,-0.091C0.196,-0.073 0.226,-0.064 0.263,-0.064C0.297,-0.064 0.324,-0.071 0.345,-0.085C0.366,-0.099 0.376,-0.117 0.376,-0.14Z" style="fill:rgb(64,64,64);fill-rule:nonzero;"/>
                </g>
                <g transform="matrix(58.3333,0,0,58.3333,1998.12,421.434)">
                    <path d="M0.28,-0.064C0.313,-0.064 0.341,-0.074 0.365,-0.093C0.389,-0.113 0.402,-0.137 0.405,-0.167L0.49,-0.167C0.489,-0.136 0.478,-0.107 0.459,-0.08C0.44,-0.053 0.414,-0.031 0.382,-0.015C0.35,0.002 0.316,0.01 0.28,0.01C0.208,0.01 0.151,-0.014 0.109,-0.062C0.066,-0.11 0.045,-0.176 0.045,-0.259L0.045,-0.274C0.045,-0.326 0.054,-0.372 0.073,-0.412C0.092,-0.452 0.119,-0.483 0.155,-0.505C0.19,-0.527 0.232,-0.538 0.28,-0.538C0.339,-0.538 0.388,-0.52 0.427,-0.485C0.467,-0.449 0.488,-0.403 0.49,-0.347L0.405,-0.347C0.402,-0.381 0.389,-0.409 0.366,-0.431C0.343,-0.453 0.314,-0.464 0.28,-0.464C0.234,-0.464 0.198,-0.447 0.173,-0.414C0.148,-0.381 0.135,-0.333 0.135,-0.271L0.135,-0.254C0.135,-0.193 0.148,-0.146 0.173,-0.113C0.198,-0.08 0.234,-0.064 0.28,-0.064Z" style="fill:rgb(64,64,64);fill-rule:nonzero;"/>
                </g>
                <g transform="matrix(58.3333,0,0,58.3333,2028.66,421.434)">
                    <path d="M0.044,-0.269C0.044,-0.321 0.055,-0.367 0.075,-0.409C0.095,-0.45 0.124,-0.482 0.16,-0.504C0.196,-0.527 0.238,-0.538 0.284,-0.538C0.356,-0.538 0.414,-0.513 0.459,-0.463C0.503,-0.414 0.525,-0.347 0.525,-0.265L0.525,-0.258C0.525,-0.207 0.516,-0.161 0.496,-0.12C0.476,-0.079 0.448,-0.047 0.411,-0.024C0.375,-0.002 0.333,0.01 0.285,0.01C0.214,0.01 0.156,-0.015 0.111,-0.065C0.067,-0.115 0.044,-0.181 0.044,-0.263L0.044,-0.269ZM0.135,-0.258C0.135,-0.2 0.149,-0.153 0.176,-0.117C0.203,-0.082 0.24,-0.064 0.285,-0.064C0.331,-0.064 0.368,-0.082 0.395,-0.118C0.422,-0.154 0.435,-0.204 0.435,-0.269C0.435,-0.327 0.421,-0.374 0.394,-0.41C0.366,-0.446 0.33,-0.464 0.284,-0.464C0.24,-0.464 0.204,-0.446 0.176,-0.411C0.149,-0.375 0.135,-0.324 0.135,-0.258Z" style="fill:rgb(64,64,64);fill-rule:nonzero;"/>
                </g>
                <g transform="matrix(58.3333,0,0,58.3333,2061.92,421.434)">
                    <path d="M0.324,-0.447C0.31,-0.45 0.295,-0.451 0.279,-0.451C0.22,-0.451 0.18,-0.425 0.159,-0.375L0.159,-0L0.068,-0L0.068,-0.528L0.156,-0.528L0.158,-0.467C0.187,-0.514 0.229,-0.538 0.284,-0.538C0.301,-0.538 0.315,-0.536 0.324,-0.531L0.324,-0.447Z" style="fill:rgb(64,64,64);fill-rule:nonzero;"/>
                </g>
                <g transform="matrix(58.3333,0,0,58.3333,2081.12,421.434)">
                    <path d="M0.288,0.01C0.216,0.01 0.158,-0.014 0.113,-0.061C0.068,-0.108 0.045,-0.171 0.045,-0.25L0.045,-0.266C0.045,-0.319 0.055,-0.365 0.075,-0.406C0.095,-0.448 0.123,-0.48 0.159,-0.503C0.195,-0.526 0.234,-0.538 0.276,-0.538C0.345,-0.538 0.398,-0.515 0.437,-0.47C0.475,-0.425 0.494,-0.36 0.494,-0.276L0.494,-0.238L0.136,-0.238C0.137,-0.186 0.152,-0.144 0.181,-0.112C0.211,-0.08 0.248,-0.064 0.292,-0.064C0.324,-0.064 0.351,-0.07 0.374,-0.083C0.396,-0.097 0.415,-0.114 0.432,-0.135L0.487,-0.092C0.443,-0.024 0.376,0.01 0.288,0.01ZM0.276,-0.464C0.24,-0.464 0.209,-0.451 0.185,-0.424C0.16,-0.398 0.145,-0.36 0.139,-0.313L0.403,-0.313L0.403,-0.319C0.401,-0.365 0.388,-0.401 0.366,-0.426C0.344,-0.451 0.314,-0.464 0.276,-0.464Z" style="fill:rgb(64,64,64);fill-rule:nonzero;"/>
                </g>
                <g transform="matrix(58.3333,0,0,58.3333,2112.03,421.434)">
                    <path d="M0.046,-0.269C0.046,-0.35 0.066,-0.415 0.104,-0.464C0.142,-0.513 0.193,-0.538 0.255,-0.538C0.317,-0.538 0.366,-0.517 0.402,-0.475L0.402,-0.75L0.492,-0.75L0.492,-0L0.409,-0L0.405,-0.057C0.369,-0.012 0.318,0.01 0.254,0.01C0.193,0.01 0.143,-0.015 0.104,-0.065C0.066,-0.116 0.046,-0.181 0.046,-0.262L0.046,-0.269ZM0.137,-0.258C0.137,-0.198 0.149,-0.152 0.174,-0.118C0.199,-0.084 0.233,-0.067 0.276,-0.067C0.334,-0.067 0.375,-0.093 0.402,-0.144L0.402,-0.387C0.375,-0.437 0.333,-0.461 0.277,-0.461C0.233,-0.461 0.199,-0.444 0.174,-0.41C0.149,-0.376 0.137,-0.325 0.137,-0.258Z" style="fill:rgb(64,64,64);fill-rule:nonzero;"/>
                </g>
                <g transform="matrix(58.3333,0,0,58.3333,2159.36,421.434)">
                    <path d="M0.176,-0.278L0.176,-0L0.083,-0L0.083,-0.711L0.345,-0.711C0.423,-0.711 0.483,-0.691 0.528,-0.651C0.572,-0.612 0.594,-0.559 0.594,-0.494C0.594,-0.425 0.572,-0.372 0.529,-0.334C0.486,-0.297 0.424,-0.278 0.344,-0.278L0.176,-0.278ZM0.176,-0.355L0.345,-0.355C0.395,-0.355 0.433,-0.367 0.46,-0.39C0.487,-0.414 0.5,-0.448 0.5,-0.493C0.5,-0.535 0.487,-0.569 0.46,-0.594C0.433,-0.62 0.397,-0.633 0.35,-0.634L0.176,-0.634L0.176,-0.355Z" style="fill:rgb(64,64,64);fill-rule:nonzero;"/>
                </g>
                <g transform="matrix(58.3333,0,0,58.3333,2196.16,421.434)">
                    <path d="M0.292,-0.317C0.212,-0.34 0.153,-0.368 0.116,-0.402C0.08,-0.436 0.062,-0.477 0.062,-0.527C0.062,-0.583 0.084,-0.629 0.129,-0.666C0.173,-0.702 0.232,-0.721 0.303,-0.721C0.352,-0.721 0.396,-0.711 0.434,-0.692C0.472,-0.674 0.502,-0.647 0.523,-0.614C0.544,-0.581 0.554,-0.545 0.554,-0.505L0.46,-0.505C0.46,-0.548 0.446,-0.582 0.419,-0.607C0.392,-0.631 0.353,-0.644 0.303,-0.644C0.257,-0.644 0.221,-0.633 0.195,-0.613C0.169,-0.593 0.156,-0.564 0.156,-0.528C0.156,-0.499 0.169,-0.475 0.193,-0.455C0.218,-0.435 0.26,-0.417 0.319,-0.4C0.378,-0.383 0.424,-0.365 0.457,-0.345C0.491,-0.325 0.515,-0.302 0.531,-0.275C0.548,-0.248 0.556,-0.217 0.556,-0.181C0.556,-0.123 0.533,-0.077 0.488,-0.042C0.443,-0.008 0.383,0.01 0.308,0.01C0.259,0.01 0.214,0 0.171,-0.018C0.129,-0.037 0.096,-0.063 0.073,-0.095C0.051,-0.128 0.039,-0.165 0.039,-0.206L0.133,-0.206C0.133,-0.163 0.149,-0.129 0.181,-0.104C0.213,-0.079 0.255,-0.067 0.308,-0.067C0.358,-0.067 0.396,-0.077 0.422,-0.097C0.448,-0.117 0.461,-0.145 0.461,-0.18C0.461,-0.215 0.449,-0.241 0.425,-0.26C0.4,-0.28 0.356,-0.298 0.292,-0.317Z" style="fill:rgb(64,64,64);fill-rule:nonzero;"/>
                </g>
                <g transform="matrix(58.3333,0,0,58.3333,2230.77,421.434)">
                    <path d="M0.204,-0.711L0.436,-0.131L0.668,-0.711L0.79,-0.711L0.79,-0L0.696,-0L0.696,-0.277L0.705,-0.576L0.472,-0L0.4,-0L0.167,-0.574L0.176,-0.277L0.176,-0L0.083,-0L0.083,-0.711L0.204,-0.711Z" style="fill:rgb(64,64,64);fill-rule:nonzero;"/>
                </g>
                <g transform="matrix(58.3333,0,0,58.3333,2281.7,421.434)">
                    <path d="M0.376,-0.14C0.376,-0.165 0.367,-0.184 0.348,-0.197C0.33,-0.211 0.298,-0.222 0.252,-0.232C0.206,-0.242 0.17,-0.253 0.143,-0.267C0.116,-0.281 0.097,-0.297 0.084,-0.316C0.071,-0.335 0.064,-0.357 0.064,-0.383C0.064,-0.427 0.083,-0.463 0.119,-0.493C0.156,-0.523 0.203,-0.538 0.26,-0.538C0.32,-0.538 0.368,-0.523 0.406,-0.492C0.443,-0.461 0.461,-0.421 0.461,-0.373L0.371,-0.373C0.371,-0.398 0.36,-0.419 0.339,-0.437C0.318,-0.455 0.292,-0.464 0.26,-0.464C0.227,-0.464 0.201,-0.457 0.183,-0.442C0.164,-0.428 0.155,-0.409 0.155,-0.386C0.155,-0.364 0.163,-0.348 0.181,-0.337C0.198,-0.326 0.229,-0.315 0.274,-0.305C0.319,-0.295 0.356,-0.283 0.384,-0.269C0.412,-0.255 0.433,-0.238 0.446,-0.219C0.46,-0.199 0.466,-0.175 0.466,-0.146C0.466,-0.099 0.447,-0.061 0.41,-0.033C0.372,-0.004 0.323,0.01 0.263,0.01C0.22,0.01 0.183,0.002 0.15,-0.013C0.118,-0.028 0.092,-0.049 0.074,-0.075C0.056,-0.102 0.046,-0.131 0.046,-0.163L0.137,-0.163C0.138,-0.132 0.15,-0.108 0.173,-0.091C0.196,-0.073 0.226,-0.064 0.263,-0.064C0.297,-0.064 0.324,-0.071 0.345,-0.085C0.366,-0.099 0.376,-0.117 0.376,-0.14Z" style="fill:rgb(64,64,64);fill-rule:nonzero;"/>
                </g>
            </g>
        </g>
        <g>
            <g transform="matrix(1,0,0,1,-158.149,-114.961)">
                <path d="M771.603,326.91C771.603,272.77 727.649,228.816 673.509,228.816L352.66,228.816C298.52,228.816 254.566,272.77 254.566,326.91L254.566,523.098C254.566,577.237 298.52,621.192 352.66,621.192L673.509,621.192C727.649,621.192 771.603,577.237 771.603,523.098L771.603,326.91Z" style="fill:none;stroke:rgb(73,79,92);stroke-width:16.67px;"/>
            </g>
            <g transform="matrix(1,0,0,1,-240.288,-2.87133)">
                <path d="M459.942,288.661L459.942,304.896L454.474,304.896L454.474,263.425L469.769,263.425C474.307,263.425 477.863,264.583 480.436,266.9C483.009,269.217 484.295,272.283 484.295,276.1C484.295,280.126 483.037,283.225 480.521,285.4C478.005,287.574 474.402,288.661 469.712,288.661L459.942,288.661ZM459.942,284.189L469.769,284.189C472.693,284.189 474.934,283.501 476.491,282.124C478.048,280.747 478.827,278.758 478.827,276.157C478.827,273.688 478.048,271.714 476.491,270.232C474.934,268.751 472.798,267.982 470.082,267.925L459.942,267.925L459.942,284.189Z" style="fill:rgb(64,64,64);fill-rule:nonzero;stroke:rgb(73,79,92);stroke-width:1px;stroke-linecap:butt;stroke-miterlimit:2;"/>
                <path d="M503.493,286.411C498.803,285.063 495.389,283.406 493.253,281.44C491.117,279.475 490.049,277.049 490.049,274.163C490.049,270.897 491.354,268.196 493.965,266.06C496.576,263.923 499.971,262.855 504.148,262.855C506.996,262.855 509.536,263.406 511.767,264.507C513.998,265.609 515.726,267.128 516.951,269.065C518.176,271.001 518.788,273.119 518.788,275.416L513.291,275.416C513.291,272.91 512.494,270.94 510.899,269.506C509.303,268.072 507.053,267.356 504.148,267.356C501.452,267.356 499.349,267.949 497.839,269.136C496.329,270.323 495.575,271.97 495.575,274.078C495.575,275.768 496.291,277.197 497.725,278.364C499.159,279.532 501.599,280.6 505.045,281.569C508.492,282.537 511.188,283.605 513.134,284.773C515.081,285.941 516.524,287.303 517.464,288.86C518.404,290.417 518.874,292.25 518.874,294.358C518.874,297.719 517.564,300.41 514.943,302.433C512.323,304.455 508.819,305.466 504.433,305.466C501.585,305.466 498.926,304.92 496.458,303.828C493.989,302.736 492.085,301.241 490.747,299.342C489.408,297.443 488.739,295.288 488.739,292.876L494.236,292.876C494.236,295.383 495.162,297.363 497.013,298.815C498.864,300.268 501.338,300.994 504.433,300.994C507.319,300.994 509.531,300.405 511.069,299.228C512.608,298.051 513.377,296.446 513.377,294.415C513.377,292.383 512.664,290.811 511.24,289.701C509.816,288.59 507.234,287.493 503.493,286.411Z" style="fill:rgb(64,64,64);fill-rule:nonzero;stroke:rgb(73,79,92);stroke-width:1px;stroke-linecap:butt;stroke-miterlimit:2;"/>
                <path d="M532.944,263.425L546.502,297.263L560.06,263.425L567.153,263.425L567.153,304.896L561.684,304.896L561.684,288.746L562.197,271.315L548.582,304.896L544.395,304.896L530.808,271.4L531.349,288.746L531.349,304.896L525.881,304.896L525.881,263.425L532.944,263.425Z" style="fill:rgb(64,64,64);fill-rule:nonzero;stroke:rgb(73,79,92);stroke-width:1px;stroke-linecap:butt;stroke-miterlimit:2;"/>
                <path d="M593.927,296.722C593.927,295.298 593.39,294.191 592.317,293.403C591.245,292.615 589.374,291.937 586.706,291.367C584.038,290.797 581.921,290.114 580.354,289.316C578.788,288.519 577.63,287.569 576.88,286.468C576.13,285.366 575.754,284.056 575.754,282.537C575.754,280.012 576.823,277.875 578.959,276.128C581.095,274.381 583.825,273.508 587.148,273.508C590.642,273.508 593.476,274.41 595.65,276.214C597.824,278.018 598.911,280.325 598.911,283.135L593.613,283.135C593.613,281.692 593.001,280.448 591.776,279.404C590.551,278.36 589.009,277.837 587.148,277.837C585.23,277.837 583.73,278.255 582.647,279.091C581.565,279.926 581.024,281.018 581.024,282.366C581.024,283.638 581.527,284.597 582.533,285.243C583.54,285.889 585.358,286.506 587.988,287.094C590.618,287.683 592.749,288.386 594.382,289.202C596.015,290.019 597.226,291.001 598.014,292.15C598.802,293.299 599.196,294.699 599.196,296.351C599.196,299.105 598.095,301.312 595.892,302.974C593.689,304.635 590.832,305.466 587.319,305.466C584.85,305.466 582.666,305.029 580.767,304.156C578.869,303.282 577.383,302.062 576.31,300.496C575.237,298.929 574.701,297.234 574.701,295.411L579.97,295.411C580.065,297.177 580.772,298.578 582.092,299.613C583.412,300.648 585.154,301.165 587.319,301.165C589.312,301.165 590.912,300.762 592.118,299.954C593.324,299.147 593.927,298.07 593.927,296.722Z" style="fill:rgb(64,64,64);fill-rule:nonzero;stroke:rgb(73,79,92);stroke-width:1px;stroke-linecap:butt;stroke-miterlimit:2;"/>
                <path d="M623.093,304.896L623.093,278.151L618.223,278.151L618.223,274.078L623.093,274.078L623.093,270.916C623.093,267.612 623.976,265.058 625.742,263.254C627.508,261.45 630.005,260.548 633.233,260.548C634.449,260.548 635.654,260.71 636.851,261.032L636.566,265.305C635.673,265.134 634.724,265.048 633.718,265.048C632.009,265.048 630.689,265.547 629.758,266.544C628.828,267.541 628.363,268.97 628.363,270.831L628.363,274.078L634.942,274.078L634.942,278.151L628.363,278.151L628.363,304.896L623.093,304.896Z" style="fill:rgb(64,64,64);fill-rule:nonzero;stroke:rgb(73,79,92);stroke-width:1px;stroke-linecap:butt;stroke-miterlimit:2;"/>
                <path d="M655.649,278.806C654.852,278.673 653.988,278.606 653.058,278.606C649.602,278.606 647.256,280.078 646.022,283.021L646.022,304.896L640.753,304.896L640.753,274.078L645.88,274.078L645.965,277.638C647.693,274.885 650.143,273.508 653.314,273.508C654.339,273.508 655.118,273.641 655.649,273.907L655.649,278.806Z" style="fill:rgb(64,64,64);fill-rule:nonzero;stroke:rgb(73,79,92);stroke-width:1px;stroke-linecap:butt;stroke-miterlimit:2;"/>
                <path d="M658.526,289.202C658.526,286.183 659.12,283.468 660.306,281.056C661.493,278.644 663.145,276.784 665.263,275.473C667.38,274.163 669.796,273.508 672.511,273.508C676.708,273.508 680.102,274.961 682.694,277.866C685.286,280.771 686.582,284.635 686.582,289.458L686.582,289.829C686.582,292.829 686.008,295.521 684.859,297.904C683.71,300.287 682.068,302.143 679.931,303.472C677.795,304.801 675.341,305.466 672.568,305.466C668.391,305.466 665.006,304.013 662.414,301.108C659.822,298.203 658.526,294.358 658.526,289.572L658.526,289.202ZM663.824,289.829C663.824,293.247 664.617,295.991 666.202,298.06C667.788,300.13 669.91,301.165 672.568,301.165C675.246,301.165 677.373,300.116 678.949,298.018C680.525,295.919 681.313,292.981 681.313,289.202C681.313,285.822 680.51,283.083 678.906,280.985C677.301,278.887 675.17,277.837 672.511,277.837C669.91,277.837 667.812,278.872 666.217,280.942C664.622,283.012 663.824,285.974 663.824,289.829Z" style="fill:rgb(64,64,64);fill-rule:nonzero;stroke:rgb(73,79,92);stroke-width:1px;stroke-linecap:butt;stroke-miterlimit:2;"/>
                <path d="M698.146,274.078L698.289,277.496C700.548,274.837 703.596,273.508 707.432,273.508C711.742,273.508 714.676,275.16 716.233,278.464C717.258,276.983 718.592,275.787 720.235,274.875C721.877,273.964 723.819,273.508 726.06,273.508C732.82,273.508 736.257,277.087 736.371,284.246L736.371,304.896L731.101,304.896L731.101,284.559C731.101,282.357 730.598,280.709 729.592,279.618C728.585,278.526 726.895,277.98 724.522,277.98C722.566,277.98 720.942,278.564 719.651,279.732C718.36,280.899 717.61,282.471 717.401,284.445L717.401,304.896L712.103,304.896L712.103,284.702C712.103,280.22 709.91,277.98 705.523,277.98C702.067,277.98 699.703,279.451 698.431,282.395L698.431,304.896L693.162,304.896L693.162,274.078L698.146,274.078Z" style="fill:rgb(64,64,64);fill-rule:nonzero;stroke:rgb(73,79,92);stroke-width:1px;stroke-linecap:butt;stroke-miterlimit:2;"/>
                <path d="M379.933,363.23L379.933,321.758L391.64,321.758C395.248,321.758 398.438,322.556 401.21,324.151C403.983,325.746 406.124,328.015 407.633,330.958C409.143,333.902 409.907,337.282 409.926,341.098L409.926,343.747C409.926,347.659 409.171,351.086 407.662,354.03C406.152,356.973 403.997,359.233 401.196,360.809C398.395,362.385 395.134,363.192 391.412,363.23L379.933,363.23ZM385.402,326.259L385.402,358.758L391.156,358.758C395.371,358.758 398.651,357.448 400.997,354.827C403.342,352.207 404.514,348.475 404.514,343.633L404.514,341.212C404.514,336.503 403.408,332.843 401.196,330.232C398.984,327.621 395.846,326.297 391.782,326.259L385.402,326.259Z" style="fill:rgb(64,64,64);fill-rule:nonzero;stroke:rgb(73,79,92);stroke-width:1px;stroke-linecap:butt;stroke-miterlimit:2;"/>
                <path d="M436.387,363.23C436.083,362.622 435.836,361.54 435.646,359.983C433.197,362.527 430.272,363.799 426.873,363.799C423.835,363.799 421.343,362.94 419.397,361.222C417.45,359.503 416.477,357.324 416.477,354.685C416.477,351.476 417.697,348.983 420.137,347.208C422.577,345.432 426.009,344.545 430.434,344.545L435.561,344.545L435.561,342.124C435.561,340.282 435.01,338.815 433.909,337.723C432.807,336.631 431.184,336.085 429.038,336.085C427.158,336.085 425.582,336.56 424.31,337.509C423.038,338.459 422.402,339.608 422.402,340.956L417.104,340.956C417.104,339.418 417.65,337.932 418.742,336.498C419.833,335.065 421.315,333.93 423.185,333.095C425.055,332.259 427.111,331.841 429.351,331.841C432.902,331.841 435.684,332.729 437.697,334.504C439.71,336.28 440.754,338.725 440.83,341.839L440.83,356.023C440.83,358.853 441.191,361.103 441.913,362.774L441.913,363.23L436.387,363.23ZM427.642,359.214C429.295,359.214 430.861,358.786 432.342,357.932C433.823,357.077 434.896,355.966 435.561,354.599L435.561,348.276L431.431,348.276C424.975,348.276 421.746,350.165 421.746,353.944C421.746,355.596 422.297,356.887 423.399,357.818C424.5,358.748 425.915,359.214 427.642,359.214Z" style="fill:rgb(64,64,64);fill-rule:nonzero;stroke:rgb(73,79,92);stroke-width:1px;stroke-linecap:butt;stroke-miterlimit:2;"/>
                <path d="M456.24,324.948L456.24,332.411L461.993,332.411L461.993,336.484L456.24,336.484L456.24,355.596C456.24,356.83 456.496,357.756 457.009,358.373C457.521,358.99 458.395,359.299 459.629,359.299C460.237,359.299 461.072,359.185 462.135,358.957L462.135,363.23C460.749,363.609 459.401,363.799 458.091,363.799C455.736,363.799 453.961,363.087 452.765,361.663C451.568,360.239 450.97,358.217 450.97,355.596L450.97,336.484L445.359,336.484L445.359,332.411L450.97,332.411L450.97,324.948L456.24,324.948Z" style="fill:rgb(64,64,64);fill-rule:nonzero;stroke:rgb(73,79,92);stroke-width:1px;stroke-linecap:butt;stroke-miterlimit:2;"/>
                <path d="M487.172,363.23C486.868,362.622 486.621,361.54 486.432,359.983C483.982,362.527 481.058,363.799 477.659,363.799C474.621,363.799 472.128,362.94 470.182,361.222C468.236,359.503 467.262,357.324 467.262,354.685C467.262,351.476 468.482,348.983 470.923,347.208C473.363,345.432 476.795,344.545 481.219,344.545L486.346,344.545L486.346,342.124C486.346,340.282 485.795,338.815 484.694,337.723C483.593,336.631 481.969,336.085 479.823,336.085C477.944,336.085 476.368,336.56 475.095,337.509C473.823,338.459 473.187,339.608 473.187,340.956L467.889,340.956C467.889,339.418 468.435,337.932 469.527,336.498C470.619,335.065 472.1,333.93 473.97,333.095C475.841,332.259 477.896,331.841 480.137,331.841C483.688,331.841 486.47,332.729 488.482,334.504C490.495,336.28 491.54,338.725 491.615,341.839L491.615,356.023C491.615,358.853 491.976,361.103 492.698,362.774L492.698,363.23L487.172,363.23ZM478.428,359.214C480.08,359.214 481.646,358.786 483.128,357.932C484.609,357.077 485.682,355.966 486.346,354.599L486.346,348.276L482.216,348.276C475.76,348.276 472.532,350.165 472.532,353.944C472.532,355.596 473.082,356.887 474.184,357.818C475.285,358.748 476.7,359.214 478.428,359.214Z" style="fill:rgb(64,64,64);fill-rule:nonzero;stroke:rgb(73,79,92);stroke-width:1px;stroke-linecap:butt;stroke-miterlimit:2;"/>
                <path d="M525.966,348.162C525.966,352.871 524.884,356.655 522.719,359.513C520.554,362.37 517.649,363.799 514.003,363.799C510.11,363.799 507.101,362.423 504.974,359.669L504.718,363.23L499.876,363.23L499.876,319.48L505.145,319.48L505.145,335.8C507.272,333.161 510.205,331.841 513.946,331.841C517.687,331.841 520.625,333.256 522.762,336.085C524.898,338.915 525.966,342.788 525.966,347.706L525.966,348.162ZM520.697,347.564C520.697,343.975 520.004,341.203 518.617,339.247C517.231,337.291 515.237,336.313 512.636,336.313C509.161,336.313 506.664,337.927 505.145,341.155L505.145,354.485C506.759,357.713 509.275,359.327 512.693,359.327C515.218,359.327 517.184,358.35 518.589,356.394C519.994,354.438 520.697,351.495 520.697,347.564Z" style="fill:rgb(64,64,64);fill-rule:nonzero;stroke:rgb(73,79,92);stroke-width:1px;stroke-linecap:butt;stroke-miterlimit:2;"/>
                <path d="M551.629,363.23C551.325,362.622 551.079,361.54 550.889,359.983C548.439,362.527 545.515,363.799 542.116,363.799C539.078,363.799 536.586,362.94 534.639,361.222C532.693,359.503 531.72,357.324 531.72,354.685C531.72,351.476 532.94,348.983 535.38,347.208C537.82,345.432 541.252,344.545 545.676,344.545L550.803,344.545L550.803,342.124C550.803,340.282 550.253,338.815 549.151,337.723C548.05,336.631 546.426,336.085 544.281,336.085C542.401,336.085 540.825,336.56 539.552,337.509C538.28,338.459 537.644,339.608 537.644,340.956L532.346,340.956C532.346,339.418 532.892,337.932 533.984,336.498C535.076,335.065 536.557,333.93 538.427,333.095C540.298,332.259 542.353,331.841 544.594,331.841C548.145,331.841 550.927,332.729 552.94,334.504C554.952,336.28 555.997,338.725 556.073,341.839L556.073,356.023C556.073,358.853 556.433,361.103 557.155,362.774L557.155,363.23L551.629,363.23ZM542.885,359.214C544.537,359.214 546.104,358.786 547.585,357.932C549.066,357.077 550.139,355.966 550.803,354.599L550.803,348.276L546.673,348.276C540.217,348.276 536.989,350.165 536.989,353.944C536.989,355.596 537.54,356.887 538.641,357.818C539.742,358.748 541.157,359.214 542.885,359.214Z" style="fill:rgb(64,64,64);fill-rule:nonzero;stroke:rgb(73,79,92);stroke-width:1px;stroke-linecap:butt;stroke-miterlimit:2;"/>
                <path d="M582.277,355.055C582.277,353.631 581.741,352.525 580.668,351.737C579.595,350.949 577.725,350.27 575.057,349.7C572.389,349.131 570.271,348.447 568.705,347.649C567.138,346.852 565.98,345.902 565.23,344.801C564.48,343.7 564.105,342.39 564.105,340.87C564.105,338.345 565.173,336.209 567.309,334.462C569.445,332.715 572.175,331.841 575.498,331.841C578.992,331.841 581.826,332.743 584,334.547C586.175,336.351 587.262,338.658 587.262,341.469L581.964,341.469C581.964,340.025 581.351,338.782 580.127,337.737C578.902,336.693 577.359,336.171 575.498,336.171C573.58,336.171 572.08,336.588 570.998,337.424C569.915,338.259 569.374,339.351 569.374,340.7C569.374,341.972 569.877,342.931 570.884,343.576C571.89,344.222 573.708,344.839 576.338,345.428C578.968,346.016 581.1,346.719 582.733,347.535C584.366,348.352 585.576,349.335 586.364,350.483C587.152,351.632 587.546,353.033 587.546,354.685C587.546,357.438 586.445,359.646 584.242,361.307C582.04,362.969 579.182,363.799 575.669,363.799C573.2,363.799 571.017,363.363 569.118,362.489C567.219,361.616 565.733,360.396 564.66,358.829C563.587,357.262 563.051,355.568 563.051,353.745L568.32,353.745C568.415,355.511 569.123,356.911 570.442,357.946C571.762,358.981 573.504,359.498 575.669,359.498C577.663,359.498 579.263,359.095 580.468,358.288C581.674,357.481 582.277,356.403 582.277,355.055Z" style="fill:rgb(64,64,64);fill-rule:nonzero;stroke:rgb(73,79,92);stroke-width:1px;stroke-linecap:butt;stroke-miterlimit:2;"/>
                <path d="M607.2,363.799C603.022,363.799 599.623,362.427 597.003,359.683C594.382,356.94 593.072,353.27 593.072,348.675L593.072,347.706C593.072,344.649 593.656,341.92 594.824,339.517C595.992,337.115 597.625,335.236 599.723,333.878C601.821,332.52 604.095,331.841 606.545,331.841C610.551,331.841 613.665,333.161 615.887,335.8C618.109,338.44 619.22,342.219 619.22,347.137L619.22,349.33L598.342,349.33C598.418,352.368 599.305,354.822 601.005,356.693C602.704,358.563 604.864,359.498 607.485,359.498C609.346,359.498 610.922,359.119 612.213,358.359C613.504,357.599 614.634,356.593 615.602,355.34L618.821,357.846C616.238,361.815 612.365,363.799 607.2,363.799ZM606.545,336.171C604.418,336.171 602.633,336.945 601.19,338.492C599.747,340.04 598.854,342.209 598.512,345L613.95,345L613.95,344.602C613.798,341.924 613.077,339.85 611.786,338.378C610.494,336.907 608.747,336.171 606.545,336.171Z" style="fill:rgb(64,64,64);fill-rule:nonzero;stroke:rgb(73,79,92);stroke-width:1px;stroke-linecap:butt;stroke-miterlimit:2;"/>
                <path d="M652.801,344.744C648.111,343.396 644.698,341.739 642.562,339.774C640.425,337.808 639.357,335.383 639.357,332.496C639.357,329.23 640.663,326.529 643.274,324.393C645.885,322.257 649.279,321.189 653.456,321.189C656.305,321.189 658.844,321.739 661.076,322.841C663.307,323.942 665.035,325.461 666.259,327.398C667.484,329.335 668.097,331.452 668.097,333.75L662.599,333.75C662.599,331.243 661.802,329.273 660.207,327.839C658.612,326.406 656.362,325.689 653.456,325.689C650.76,325.689 648.657,326.282 647.147,327.469C645.638,328.656 644.883,330.303 644.883,332.411C644.883,334.101 645.6,335.53 647.033,336.698C648.467,337.865 650.907,338.934 654.354,339.902C657.8,340.87 660.496,341.939 662.443,343.106C664.389,344.274 665.832,345.637 666.772,347.194C667.712,348.751 668.182,350.583 668.182,352.691C668.182,356.052 666.872,358.744 664.251,360.766C661.631,362.788 658.128,363.799 653.741,363.799C650.893,363.799 648.234,363.253 645.766,362.162C643.297,361.07 641.394,359.574 640.055,357.675C638.716,355.777 638.047,353.621 638.047,351.21L643.544,351.21C643.544,353.716 644.47,355.696 646.321,357.148C648.173,358.601 650.646,359.327 653.741,359.327C656.627,359.327 658.84,358.739 660.378,357.562C661.916,356.384 662.685,354.78 662.685,352.748C662.685,350.716 661.973,349.145 660.549,348.034C659.124,346.923 656.542,345.826 652.801,344.744Z" style="fill:rgb(64,64,64);fill-rule:nonzero;stroke:rgb(73,79,92);stroke-width:1px;stroke-linecap:butt;stroke-miterlimit:2;"/>
                <path d="M687.152,363.799C682.974,363.799 679.575,362.427 676.955,359.683C674.334,356.94 673.024,353.27 673.024,348.675L673.024,347.706C673.024,344.649 673.608,341.92 674.776,339.517C675.944,337.115 677.577,335.236 679.675,333.878C681.773,332.52 684.047,331.841 686.497,331.841C690.503,331.841 693.617,333.161 695.839,335.8C698.061,338.44 699.172,342.219 699.172,347.137L699.172,349.33L678.294,349.33C678.369,352.368 679.257,354.822 680.957,356.693C682.656,358.563 684.816,359.498 687.437,359.498C689.297,359.498 690.874,359.119 692.165,358.359C693.456,357.599 694.586,356.593 695.554,355.34L698.773,357.846C696.19,361.815 692.317,363.799 687.152,363.799ZM686.497,336.171C684.37,336.171 682.585,336.945 681.142,338.492C679.699,340.04 678.806,342.209 678.464,345L693.902,345L693.902,344.602C693.75,341.924 693.029,339.85 691.738,338.378C690.446,336.907 688.699,336.171 686.497,336.171Z" style="fill:rgb(64,64,64);fill-rule:nonzero;stroke:rgb(73,79,92);stroke-width:1px;stroke-linecap:butt;stroke-miterlimit:2;"/>
                <path d="M724.294,363.23C723.99,362.622 723.743,361.54 723.553,359.983C721.104,362.527 718.179,363.799 714.78,363.799C711.742,363.799 709.25,362.94 707.304,361.222C705.357,359.503 704.384,357.324 704.384,354.685C704.384,351.476 705.604,348.983 708.044,347.208C710.484,345.432 713.916,344.545 718.341,344.545L723.468,344.545L723.468,342.124C723.468,340.282 722.917,338.815 721.816,337.723C720.714,336.631 719.091,336.085 716.945,336.085C715.065,336.085 713.489,336.56 712.217,337.509C710.945,338.459 710.309,339.608 710.309,340.956L705.011,340.956C705.011,339.418 705.557,337.932 706.648,336.498C707.74,335.065 709.221,333.93 711.092,333.095C712.962,332.259 715.018,331.841 717.258,331.841C720.809,331.841 723.591,332.729 725.604,334.504C727.617,336.28 728.661,338.725 728.737,341.839L728.737,356.023C728.737,358.853 729.098,361.103 729.819,362.774L729.819,363.23L724.294,363.23ZM715.549,359.214C717.201,359.214 718.768,358.786 720.249,357.932C721.73,357.077 722.803,355.966 723.468,354.599L723.468,348.276L719.338,348.276C712.881,348.276 709.653,350.165 709.653,353.944C709.653,355.596 710.204,356.887 711.305,357.818C712.407,358.748 713.821,359.214 715.549,359.214Z" style="fill:rgb(64,64,64);fill-rule:nonzero;stroke:rgb(73,79,92);stroke-width:1px;stroke-linecap:butt;stroke-miterlimit:2;"/>
                <path d="M751.894,337.139C751.096,337.006 750.232,336.94 749.302,336.94C745.846,336.94 743.501,338.411 742.267,341.355L742.267,363.23L736.997,363.23L736.997,332.411L742.124,332.411L742.21,335.971C743.938,333.218 746.387,331.841 749.558,331.841C750.584,331.841 751.362,331.974 751.894,332.24L751.894,337.139Z" style="fill:rgb(64,64,64);fill-rule:nonzero;stroke:rgb(73,79,92);stroke-width:1px;stroke-linecap:butt;stroke-miterlimit:2;"/>
                <path d="M768.556,359.498C770.436,359.498 772.079,358.929 773.484,357.789C774.889,356.65 775.668,355.226 775.82,353.517L780.804,353.517C780.709,355.283 780.102,356.963 778.981,358.558C777.861,360.153 776.366,361.426 774.495,362.375C772.625,363.325 770.645,363.799 768.556,363.799C764.36,363.799 761.023,362.399 758.545,359.598C756.067,356.797 754.828,352.966 754.828,348.105L754.828,347.222C754.828,344.222 755.378,341.554 756.48,339.218C757.581,336.883 759.162,335.069 761.222,333.778C763.282,332.487 765.718,331.841 768.528,331.841C771.984,331.841 774.856,332.876 777.144,334.946C779.432,337.016 780.652,339.703 780.804,343.007L775.82,343.007C775.668,341.013 774.913,339.375 773.555,338.093C772.197,336.812 770.522,336.171 768.528,336.171C765.851,336.171 763.776,337.134 762.304,339.062C760.833,340.989 760.097,343.776 760.097,347.422L760.097,348.418C760.097,351.969 760.828,354.704 762.29,356.622C763.752,358.539 765.841,359.498 768.556,359.498Z" style="fill:rgb(64,64,64);fill-rule:nonzero;stroke:rgb(73,79,92);stroke-width:1px;stroke-linecap:butt;stroke-miterlimit:2;"/>
                <path d="M791.998,336.142C794.334,333.275 797.372,331.841 801.113,331.841C807.626,331.841 810.911,335.516 810.968,342.864L810.968,363.23L805.698,363.23L805.698,342.836C805.679,340.614 805.171,338.972 804.174,337.908C803.178,336.845 801.625,336.313 799.517,336.313C797.809,336.313 796.308,336.769 795.017,337.68C793.726,338.592 792.72,339.788 791.998,341.269L791.998,363.23L786.729,363.23L786.729,319.48L791.998,319.48L791.998,336.142Z" style="fill:rgb(64,64,64);fill-rule:nonzero;stroke:rgb(73,79,92);stroke-width:1px;stroke-linecap:butt;stroke-miterlimit:2;"/>
            </g>
        </g>
    </g>
    <g transform="matrix(1,0,0,1,109.875,-40.3846)">
        <g transform="matrix(58.3333,0,0,58.3333,1103.28,95.0806)">
            <path d="M0.176,-0.278L0.176,-0L0.083,-0L0.083,-0.711L0.345,-0.711C0.423,-0.711 0.483,-0.691 0.528,-0.651C0.572,-0.612 0.594,-0.559 0.594,-0.494C0.594,-0.425 0.572,-0.372 0.529,-0.334C0.486,-0.297 0.424,-0.278 0.344,-0.278L0.176,-0.278ZM0.176,-0.355L0.345,-0.355C0.395,-0.355 0.433,-0.367 0.46,-0.39C0.487,-0.414 0.5,-0.448 0.5,-0.493C0.5,-0.535 0.487,-0.569 0.46,-0.594C0.433,-0.62 0.397,-0.633 0.35,-0.634L0.176,-0.634L0.176,-0.355Z" style="fill:rgb(64,64,64);fill-rule:nonzero;"/>
        </g>
        <g transform="matrix(58.3333,0,0,58.3333,1139.71,95.0806)">
            <path d="M0.288,0.01C0.216,0.01 0.158,-0.014 0.113,-0.061C0.068,-0.108 0.045,-0.171 0.045,-0.25L0.045,-0.266C0.045,-0.319 0.055,-0.365 0.075,-0.406C0.095,-0.448 0.123,-0.48 0.159,-0.503C0.195,-0.526 0.234,-0.538 0.276,-0.538C0.345,-0.538 0.398,-0.515 0.437,-0.47C0.475,-0.425 0.494,-0.36 0.494,-0.276L0.494,-0.238L0.136,-0.238C0.137,-0.186 0.152,-0.144 0.181,-0.112C0.211,-0.08 0.248,-0.064 0.292,-0.064C0.324,-0.064 0.351,-0.07 0.374,-0.083C0.396,-0.097 0.415,-0.114 0.432,-0.135L0.487,-0.092C0.443,-0.024 0.376,0.01 0.288,0.01ZM0.276,-0.464C0.24,-0.464 0.209,-0.451 0.185,-0.424C0.16,-0.398 0.145,-0.36 0.139,-0.313L0.403,-0.313L0.403,-0.319C0.401,-0.365 0.388,-0.401 0.366,-0.426C0.344,-0.451 0.314,-0.464 0.276,-0.464Z" style="fill:rgb(64,64,64);fill-rule:nonzero;"/>
        </g>
        <g transform="matrix(58.3333,0,0,58.3333,1170.61,95.0806)">
            <path d="M0.324,-0.447C0.31,-0.45 0.295,-0.451 0.279,-0.451C0.22,-0.451 0.18,-0.425 0.159,-0.375L0.159,-0L0.068,-0L0.068,-0.528L0.156,-0.528L0.158,-0.467C0.187,-0.514 0.229,-0.538 0.284,-0.538C0.301,-0.538 0.315,-0.536 0.324,-0.531L0.324,-0.447Z" style="fill:rgb(64,64,64);fill-rule:nonzero;"/>
        </g>
        <g transform="matrix(58.3333,0,0,58.3333,1189.81,95.0806)">
            <path d="M0.28,-0.064C0.313,-0.064 0.341,-0.074 0.365,-0.093C0.389,-0.113 0.402,-0.137 0.405,-0.167L0.49,-0.167C0.489,-0.136 0.478,-0.107 0.459,-0.08C0.44,-0.053 0.414,-0.031 0.382,-0.015C0.35,0.002 0.316,0.01 0.28,0.01C0.208,0.01 0.151,-0.014 0.109,-0.062C0.066,-0.11 0.045,-0.176 0.045,-0.259L0.045,-0.274C0.045,-0.326 0.054,-0.372 0.073,-0.412C0.092,-0.452 0.119,-0.483 0.155,-0.505C0.19,-0.527 0.232,-0.538 0.28,-0.538C0.339,-0.538 0.388,-0.52 0.427,-0.485C0.467,-0.449 0.488,-0.403 0.49,-0.347L0.405,-0.347C0.402,-0.381 0.389,-0.409 0.366,-0.431C0.343,-0.453 0.314,-0.464 0.28,-0.464C0.234,-0.464 0.198,-0.447 0.173,-0.414C0.148,-0.381 0.135,-0.333 0.135,-0.271L0.135,-0.254C0.135,-0.193 0.148,-0.146 0.173,-0.113C0.198,-0.08 0.234,-0.064 0.28,-0.064Z" style="fill:rgb(64,64,64);fill-rule:nonzero;"/>
        </g>
        <g transform="matrix(58.3333,0,0,58.3333,1220.34,95.0806)">
            <path d="M0.044,-0.269C0.044,-0.321 0.055,-0.367 0.075,-0.409C0.095,-0.45 0.124,-0.482 0.16,-0.504C0.196,-0.527 0.238,-0.538 0.284,-0.538C0.356,-0.538 0.414,-0.513 0.459,-0.463C0.503,-0.414 0.525,-0.347 0.525,-0.265L0.525,-0.258C0.525,-0.207 0.516,-0.161 0.496,-0.12C0.476,-0.079 0.448,-0.047 0.411,-0.024C0.375,-0.002 0.333,0.01 0.285,0.01C0.214,0.01 0.156,-0.015 0.111,-0.065C0.067,-0.115 0.044,-0.181 0.044,-0.263L0.044,-0.269ZM0.135,-0.258C0.135,-0.2 0.149,-0.153 0.176,-0.117C0.203,-0.082 0.24,-0.064 0.285,-0.064C0.331,-0.064 0.368,-0.082 0.395,-0.118C0.422,-0.154 0.435,-0.204 0.435,-0.269C0.435,-0.327 0.421,-0.374 0.394,-0.41C0.366,-0.446 0.33,-0.464 0.284,-0.464C0.24,-0.464 0.204,-0.446 0.176,-0.411C0.149,-0.375 0.135,-0.324 0.135,-0.258Z" style="fill:rgb(64,64,64);fill-rule:nonzero;"/>
        </g>
        <g transform="matrix(58.3333,0,0,58.3333,1253.61,95.0806)">
            <rect x="0.076" y="-0.75" width="0.09" height="0.75" style="fill:rgb(64,64,64);fill-rule:nonzero;"/>
        </g>
        <g transform="matrix(58.3333,0,0,58.3333,1267.77,95.0806)">
            <path d="M0.395,-0C0.389,-0.01 0.385,-0.029 0.382,-0.056C0.34,-0.012 0.29,0.01 0.231,0.01C0.179,0.01 0.137,-0.005 0.103,-0.034C0.07,-0.064 0.053,-0.101 0.053,-0.146C0.053,-0.201 0.074,-0.244 0.116,-0.275C0.158,-0.305 0.217,-0.32 0.292,-0.32L0.38,-0.32L0.38,-0.362C0.38,-0.393 0.371,-0.419 0.352,-0.437C0.333,-0.456 0.305,-0.465 0.269,-0.465C0.236,-0.465 0.209,-0.457 0.188,-0.441C0.166,-0.425 0.155,-0.405 0.155,-0.382L0.064,-0.382C0.064,-0.408 0.073,-0.434 0.092,-0.458C0.111,-0.483 0.136,-0.502 0.168,-0.517C0.2,-0.531 0.236,-0.538 0.274,-0.538C0.335,-0.538 0.382,-0.523 0.417,-0.492C0.451,-0.462 0.469,-0.42 0.471,-0.367L0.471,-0.124C0.471,-0.075 0.477,-0.036 0.489,-0.008L0.489,-0L0.395,-0ZM0.245,-0.069C0.273,-0.069 0.3,-0.076 0.325,-0.091C0.351,-0.105 0.369,-0.125 0.38,-0.148L0.38,-0.256L0.31,-0.256C0.199,-0.256 0.144,-0.224 0.144,-0.159C0.144,-0.131 0.153,-0.109 0.172,-0.093C0.191,-0.077 0.215,-0.069 0.245,-0.069Z" style="fill:rgb(64,64,64);fill-rule:nonzero;"/>
        </g>
        <g transform="matrix(58.3333,0,0,58.3333,1299.5,95.0806)">
            <path d="M0.191,-0.656L0.191,-0.528L0.29,-0.528L0.29,-0.458L0.191,-0.458L0.191,-0.131C0.191,-0.11 0.195,-0.094 0.204,-0.083C0.213,-0.073 0.228,-0.067 0.249,-0.067C0.259,-0.067 0.274,-0.069 0.292,-0.073L0.292,-0C0.268,0.007 0.245,0.01 0.223,0.01C0.182,0.01 0.152,-0.002 0.131,-0.027C0.111,-0.051 0.101,-0.086 0.101,-0.131L0.101,-0.458L0.004,-0.458L0.004,-0.528L0.101,-0.528L0.101,-0.656L0.191,-0.656Z" style="fill:rgb(64,64,64);fill-rule:nonzero;"/>
        </g>
        <g transform="matrix(58.3333,0,0,58.3333,1317.98,95.0806)">
            <path d="M0.044,-0.269C0.044,-0.321 0.055,-0.367 0.075,-0.409C0.095,-0.45 0.124,-0.482 0.16,-0.504C0.196,-0.527 0.238,-0.538 0.284,-0.538C0.356,-0.538 0.414,-0.513 0.459,-0.463C0.503,-0.414 0.525,-0.347 0.525,-0.265L0.525,-0.258C0.525,-0.207 0.516,-0.161 0.496,-0.12C0.476,-0.079 0.448,-0.047 0.411,-0.024C0.375,-0.002 0.333,0.01 0.285,0.01C0.214,0.01 0.156,-0.015 0.111,-0.065C0.067,-0.115 0.044,-0.181 0.044,-0.263L0.044,-0.269ZM0.135,-0.258C0.135,-0.2 0.149,-0.153 0.176,-0.117C0.203,-0.082 0.24,-0.064 0.285,-0.064C0.331,-0.064 0.368,-0.082 0.395,-0.118C0.422,-0.154 0.435,-0.204 0.435,-0.269C0.435,-0.327 0.421,-0.374 0.394,-0.41C0.366,-0.446 0.33,-0.464 0.284,-0.464C0.24,-0.464 0.204,-0.446 0.176,-0.411C0.149,-0.375 0.135,-0.324 0.135,-0.258Z" style="fill:rgb(64,64,64);fill-rule:nonzero;"/>
        </g>
        <g transform="matrix(58.3333,0,0,58.3333,1351.25,95.0806)">
            <path d="M0.324,-0.447C0.31,-0.45 0.295,-0.451 0.279,-0.451C0.22,-0.451 0.18,-0.425 0.159,-0.375L0.159,-0L0.068,-0L0.068,-0.528L0.156,-0.528L0.158,-0.467C0.187,-0.514 0.229,-0.538 0.284,-0.538C0.301,-0.538 0.315,-0.536 0.324,-0.531L0.324,-0.447Z" style="fill:rgb(64,64,64);fill-rule:nonzero;"/>
        </g>
    </g>
    <g transform="matrix(1.00247,0,0,1.40562,-14.0004,-180.498)">
        <path d="M810.108,367.246L810.108,316.435L1753.76,316.435L1753.76,265.624L1911.17,341.84L1753.76,418.057L1753.76,367.246L810.108,367.246Z" style="fill:rgb(36,184,160);"/>
    </g>
    <g transform="matrix(2.58811,0,0,2.58811,110.061,-33.8273)">
        <path d="M476.455,53.248C514.078,52.907 527.533,151.463 527.533,198.452C527.533,245.442 425.267,245.442 425.267,198.452C425.267,151.463 438.831,53.589 476.455,53.248Z" style="fill:white;stroke:rgb(64,64,64);stroke-width:4.02px;"/>
        <g transform="matrix(1.0094,1.45752e-17,-1.45752e-17,-0.890381,4.46824,255.148)">
            <path d="M426.301,83.007C429.498,114.825 434.378,145.959 443.55,175.35L410.916,179.755L426.301,83.007Z" style="fill:white;stroke:rgb(64,64,64);stroke-width:4.23px;"/>
        </g>
        <path d="M440.614,95.097L452.186,98.53L419.246,95.097L440.614,95.097Z" style="fill:white;stroke:rgb(64,64,64);stroke-width:4.02px;"/>
        <g transform="matrix(1,0,0,1,0,3.48499)">
            <path d="M425.267,181.239C459.8,200.25 493.883,199.992 527.533,181.239" style="fill:white;stroke:rgb(64,64,64);stroke-width:4.02px;"/>
        </g>
        <g transform="matrix(1,0,0,1,50.9389,-1.04959)">
            <ellipse cx="425.461" cy="52" rx="6.215" ry="6.196" style="fill:white;stroke:rgb(64,64,64);stroke-width:4.02px;"/>
        </g>
        <path d="M509.508,86.45C509.508,86.45 522.626,79.367 527.533,86.528C533.822,95.707 524.605,148.662 524.605,148.662L526.768,170.899C526.768,170.899 545.946,93.573 536.147,78.049C528.724,66.289 505.058,76.429 505.058,76.429L509.508,86.45Z" style="fill:white;stroke:rgb(64,64,64);stroke-width:4.02px;"/>
    </g>
</svg>
