<?xml version="1.0" standalone="no"?>
<!DOCTYPE svg PUBLIC "-//W3C//DTD SVG 20010904//EN"
 "http://www.w3.org/TR/2001/REC-SVG-20010904/DTD/svg10.dtd">
<svg version="1.0" xmlns="http://www.w3.org/2000/svg"
 width="260.000000pt" height="260.000000pt" viewBox="0 0 260.000000 260.000000"
 preserveAspectRatio="xMidYMid meet">
<metadata>
Created by potrace 1.11, written by Peter Selinger 2001-2013
</metadata>
<g transform="translate(0.000000,260.000000) scale(0.100000,-0.100000)"
fill="#000000" stroke="none">
<path d="M0 1300 l0 -1300 1300 0 1300 0 0 1300 0 1300 -1300 0 -1300 0 0
-1300z m830 243 c46 -225 86 -419 90 -433 7 -24 7 -24 17 10 5 19 54 214 109
433 l99 397 160 0 161 0 98 -417 c87 -370 115 -473 116 -438 0 6 40 197 90
425 49 228 90 418 90 423 0 4 75 7 166 7 153 0 165 -1 160 -17 -3 -10 -75
-295 -161 -633 -85 -338 -158 -623 -161 -633 -5 -16 -20 -17 -182 -15 l-177 3
-96 370 c-53 204 -99 384 -104 400 -6 25 -26 -43 -109 -370 l-101 -400 -177
-3 -177 -2 -10 37 c-6 21 -79 306 -161 633 -83 327 -153 603 -156 613 -5 16 7
17 164 17 l168 0 84 -407z"/>
</g>
</svg>
