<?xml version="1.0" standalone="no"?>
<!DOCTYPE svg PUBLIC "-//W3C//DTD SVG 20010904//EN"
 "http://www.w3.org/TR/2001/REC-SVG-20010904/DTD/svg10.dtd">
<svg version="1.0" xmlns="http://www.w3.org/2000/svg"
 width="1024.000000pt" height="1024.000000pt" viewBox="0 0 1024.000000 1024.000000"
 preserveAspectRatio="xMidYMid meet">
<metadata>
Created by potrace 1.16, written by Peter Selinger 2001-2019
</metadata>
<g transform="translate(0.000000,1024.000000) scale(0.100000,-0.100000)"
fill="#000000" stroke="none">
<path d="M5037 9280 c-68 -13 -130 -77 -143 -147 -12 -64 50 -170 114 -194 35
-14 110 -11 140 5 31 16 74 61 91 93 6 12 11 46 11 75 0 115 -97 191 -213 168z
m61 -86 c34 -24 29 -60 -11 -73 -43 -14 -65 -6 -74 27 -4 19 -1 30 17 44 27
22 39 23 68 2z"/>
<path d="M4120 9149 c-128 -54 -157 -175 -68 -289 33 -42 69 -60 123 -60 125
0 201 134 146 257 -34 73 -135 120 -201 92z m91 -100 c24 -24 22 -36 -14 -63
-22 -16 -31 -18 -51 -8 -37 16 -48 44 -30 70 20 28 67 29 95 1z"/>
<path d="M4646 9130 c-60 -10 -140 -26 -178 -36 l-70 -17 7 -66 c4 -36 9 -68
11 -70 3 -3 30 0 62 6 31 7 120 23 197 38 l140 26 0 70 0 69 -30 -1 c-16 0
-79 -9 -139 -19z"/>
<path d="M5330 9104 c0 -27 -3 -58 -6 -70 -5 -20 5 -23 193 -59 109 -20 202
-38 207 -39 8 -1 35 92 36 126 0 12 -13 21 -42 29 -74 20 -231 47 -310 54
l-78 7 0 -48z"/>
<path d="M5925 9131 c-48 -22 -69 -44 -90 -94 -48 -116 32 -246 151 -247 99 0
179 87 179 196 0 63 -37 117 -99 145 -52 23 -90 24 -141 0z m103 -77 c29 -20
28 -38 -4 -63 -23 -18 -29 -19 -57 -7 -40 16 -47 48 -15 70 28 20 48 20 76 0z"/>
<path d="M3830 8877 c-95 -37 -191 -86 -233 -120 l-28 -22 31 -69 c28 -64 32
-68 48 -53 25 22 113 73 235 134 59 29 107 56 107 59 0 3 -11 22 -25 42 -14
20 -25 42 -25 49 0 19 -15 16 -110 -20z"/>
<path d="M6220 8898 c0 -8 -11 -37 -25 -63 -13 -27 -23 -50 -22 -51 1 -1 40
-19 87 -42 47 -22 123 -62 170 -90 l85 -50 33 60 c33 57 33 60 16 79 -33 36
-247 147 -316 164 -21 5 -28 3 -28 -7z"/>
<path d="M3291 8723 c-120 -63 -137 -219 -32 -288 82 -55 169 -53 236 6 42 37
59 86 50 142 -16 96 -69 151 -156 163 -36 5 -54 1 -98 -23z m123 -85 c14 -23
-2 -50 -38 -63 -22 -8 -31 -5 -52 17 l-26 25 23 22 c28 26 76 25 93 -1z"/>
<path d="M6715 8731 c-101 -47 -142 -149 -96 -239 25 -49 46 -67 105 -86 44
-15 54 -15 100 -2 129 38 174 185 88 288 -49 58 -124 73 -197 39z m97 -78 c38
-34 12 -73 -49 -73 -52 0 -68 35 -33 70 24 24 57 26 82 3z"/>
<path d="M4611 8694 c-41 -34 -43 -88 -6 -132 23 -28 25 -37 25 -139 0 -108 0
-110 -26 -121 -24 -12 -30 -7 -119 82 -86 86 -94 97 -89 124 12 62 -47 133
-124 148 -42 8 -118 -29 -143 -70 -12 -19 -19 -50 -19 -81 l-1 -50 -94 -83
-94 -82 -44 12 c-30 8 -58 8 -88 2 l-44 -9 -69 69 -70 69 -18 -23 c-28 -35
-22 -53 40 -112 l57 -55 -1 -102 -1 -103 -74 -74 c-71 -72 -72 -74 -59 -100
26 -48 40 -42 122 46 66 71 81 83 95 74 23 -14 31 -45 32 -120 1 -55 -2 -63
-29 -89 -45 -43 -42 -89 10 -140 36 -36 40 -44 42 -95 l2 -55 3 54 c4 46 10
61 39 93 43 48 47 101 9 146 -22 26 -25 39 -25 106 0 70 2 77 26 92 l25 17 82
-81 c46 -45 88 -82 96 -82 9 0 11 -7 7 -22 -38 -137 5 -220 131 -258 37 -11
46 -10 97 13 36 17 62 37 76 59 85 139 -38 297 -201 258 -28 -7 -51 -11 -52
-9 -2 2 -38 43 -81 91 -57 64 -77 93 -74 110 l3 23 260 0 c312 0 305 4 195
-120 -38 -44 -70 -87 -70 -95 0 -8 9 -21 20 -28 28 -17 46 -6 120 78 l63 70
28 -17 c28 -17 29 -19 29 -105 0 -80 -2 -89 -25 -112 -37 -38 -34 -80 11 -122
44 -42 65 -43 98 -3 32 38 33 79 3 133 -19 35 -22 52 -19 124 3 71 6 84 25 93
19 11 28 4 91 -65 71 -76 98 -90 124 -64 21 21 13 37 -60 113 -66 70 -71 78
-62 103 9 26 12 27 93 30 77 3 86 1 110 -21 43 -41 67 -43 101 -8 37 36 40 85
9 125 -30 38 -76 36 -117 -6 -31 -33 -32 -33 -111 -30 -78 3 -80 4 -90 34 -10
29 -8 32 47 81 31 29 71 67 88 85 l32 34 41 -21 c50 -26 62 -26 110 -1 l38 19
84 -84 84 -84 -3 -56 c-2 -31 2 -70 9 -86 12 -30 11 -32 -66 -109 l-77 -78 17
-26 c10 -14 24 -26 32 -26 9 0 47 30 85 68 38 37 77 67 86 67 19 0 31 -48 31
-133 1 -39 -4 -61 -19 -79 -33 -42 -24 -89 25 -143 24 -25 36 -94 22 -117 -4
-6 -1 -14 5 -17 8 -4 9 -8 3 -11 -5 -3 -23 -13 -40 -23 l-30 -19 -68 74 c-71
75 -98 88 -117 54 -18 -34 -12 -47 58 -117 l67 -69 0 -60 c1 -71 24 -113 79
-139 70 -33 141 -10 183 61 22 37 25 52 20 94 -3 27 -3 49 1 49 11 0 121 109
139 137 14 21 14 26 -1 48 -9 14 -21 25 -27 25 -6 0 -44 -34 -84 -75 -41 -41
-80 -75 -86 -75 -6 0 -26 9 -43 20 -31 18 -32 21 -29 81 2 47 7 65 22 75 31
22 45 68 31 108 -6 19 -18 40 -26 46 -10 9 -14 35 -14 95 0 77 2 85 25 103
l26 20 84 -86 c77 -80 86 -86 104 -74 26 15 26 11 1 -30 -12 -21 -20 -51 -20
-80 0 -133 131 -217 250 -159 l40 19 0 -31 c0 -27 13 -45 79 -109 77 -74 79
-77 74 -116 -7 -52 19 -105 64 -133 49 -30 122 -23 164 17 33 31 54 93 45 136
-4 22 -1 30 17 39 32 18 137 120 137 134 0 13 -42 55 -54 55 -4 0 -35 -26 -68
-57 -76 -74 -82 -77 -124 -63 -27 9 -47 9 -86 0 l-51 -13 -46 50 c-36 38 -104
96 -129 109 -1 0 5 20 13 44 45 128 -28 235 -160 234 -28 0 -65 -8 -82 -17
-32 -17 -33 -17 -33 2 0 11 -34 56 -76 101 -68 71 -76 83 -67 103 10 22 12 22
259 24 162 1 253 -2 261 -9 25 -20 12 -44 -67 -130 l-80 -87 22 -20 c12 -12
27 -21 33 -21 6 0 44 34 84 75 40 41 77 75 82 75 4 0 20 -5 34 -12 24 -11 25
-16 25 -86 0 -68 -2 -77 -30 -109 -44 -49 -41 -86 11 -135 l40 -38 29 22 c56
45 64 95 25 153 -23 33 -25 45 -23 117 4 119 16 122 117 25 45 -42 84 -77 88
-77 5 1 19 10 32 20 28 24 28 23 -67 121 l-64 67 12 53 c10 45 9 61 -3 97 -14
41 -14 43 8 55 12 6 48 35 80 64 l57 52 -26 26 -26 26 -43 -30 c-24 -16 -58
-46 -75 -66 -30 -34 -33 -35 -74 -26 -25 6 -60 6 -88 1 l-46 -9 -91 87 c-88
85 -91 88 -96 141 -7 61 -32 95 -84 117 -45 19 -82 17 -120 -6 -41 -24 -64
-60 -74 -113 -6 -36 -22 -57 -99 -135 l-92 -93 -30 18 -31 18 2 87 c2 95 11
135 35 170 25 35 20 76 -13 109 -39 39 -78 39 -116 -1 -36 -37 -38 -85 -7
-125 19 -23 22 -40 22 -111 0 -72 3 -87 21 -105 11 -11 19 -22 17 -23 -1 -1
-19 -9 -38 -17 l-35 -16 -90 85 -90 86 0 50 c0 160 -188 213 -277 78 -12 -17
-18 -46 -18 -80 0 -52 -2 -55 -52 -100 -29 -26 -70 -63 -91 -84 -32 -31 -42
-36 -58 -27 -17 9 -19 22 -19 122 0 95 3 117 20 142 30 45 27 108 -6 134 -36
28 -76 26 -113 -5z m488 -108 c7 -8 11 -27 9 -42 -6 -51 -88 -49 -88 2 0 47
52 72 79 40z m-817 -21 c9 -21 8 -28 -7 -45 -20 -23 -45 -26 -63 -8 -17 17
-15 44 4 62 23 24 53 20 66 -9z m1642 2 c11 -8 17 -23 14 -38 -2 -20 -8 -24
-38 -24 -41 0 -52 25 -24 56 20 23 25 23 48 6z m-1495 -247 c78 -74 82 -81 74
-107 l-10 -28 -246 -2 c-243 -2 -247 -1 -262 20 -15 21 -12 25 72 104 74 70
92 82 113 77 65 -15 109 -15 136 0 16 8 31 15 34 15 3 1 43 -35 89 -79z m1426
60 c49 -25 61 -25 106 -1 l35 19 88 -84 c77 -73 87 -87 82 -109 l-6 -25 -254
0 -254 0 -7 30 c-6 27 0 36 77 109 46 44 85 80 88 81 3 0 23 -9 45 -20z
m-1987 -167 c12 -23 -1 -58 -24 -67 -37 -14 -85 50 -57 77 14 15 72 7 81 -10z
m822 3 c18 -23 8 -59 -22 -75 -24 -14 -28 -14 -47 3 -27 25 -27 51 1 70 28 20
52 20 68 2z m845 -25 c0 -43 -23 -59 -62 -45 -18 6 -29 18 -31 32 -5 35 16 53
57 50 34 -3 36 -5 36 -37z m820 0 c0 -46 -31 -68 -63 -45 -44 31 -18 87 38 81
21 -2 25 -7 25 -36z m-2069 -406 c16 -24 15 -27 0 -44 -26 -28 -53 -31 -81 -9
-29 23 -31 35 -8 60 24 27 69 23 89 -7z m1652 9 c48 -34 2 -86 -62 -70 -35 9
-42 30 -22 61 19 29 51 32 84 9z m-414 -415 c19 -27 11 -45 -23 -57 -30 -11
-61 0 -61 21 0 22 31 57 50 57 10 0 26 -10 34 -21z m834 -21 c3 -22 -2 -29
-22 -34 -30 -7 -56 10 -56 36 0 25 11 31 45 28 24 -2 31 -8 33 -30z"/>
<path d="M6950 8385 l-45 -45 100 -100 100 -100 39 51 c34 46 37 54 25 75 -14
28 -153 164 -166 164 -5 0 -29 -20 -53 -45z"/>
<path d="M3088 8393 c-54 -43 -119 -107 -129 -126 -8 -15 -2 -30 31 -74 l42
-55 86 84 c48 47 98 92 111 101 14 9 23 18 20 20 -2 1 -25 19 -51 40 -25 20
-53 37 -61 37 -9 0 -30 -12 -49 -27z"/>
<path d="M2757 8210 c-148 -26 -184 -222 -57 -306 105 -70 255 -20 276 91 10
54 -20 140 -61 170 -45 35 -110 53 -158 45z m69 -103 c31 -27 28 -51 -10 -68
-38 -18 -76 -4 -76 28 0 29 25 63 46 63 7 0 25 -11 40 -23z"/>
<path d="M7280 8197 c-88 -46 -120 -95 -120 -182 0 -51 3 -60 33 -90 38 -38
104 -60 156 -51 41 6 105 49 133 89 69 97 -11 247 -131 247 -25 0 -57 -6 -71
-13z m95 -87 c21 -23 15 -43 -18 -65 -20 -13 -29 -13 -50 -4 -36 16 -41 38
-16 66 27 28 60 30 84 3z"/>
<path d="M3321 7873 c-74 -37 -112 -152 -73 -223 49 -90 171 -124 244 -68 50
38 71 88 66 154 -10 119 -131 189 -237 137z m99 -73 c11 -11 20 -24 20 -29 0
-23 -15 -43 -38 -52 -51 -20 -86 53 -40 85 29 20 34 20 58 -4z"/>
<path d="M5018 7877 c-48 -21 -107 -84 -114 -122 -11 -60 3 -99 50 -143 76
-70 150 -76 221 -20 35 27 65 89 65 133 0 108 -127 195 -222 152z m82 -75 c32
-26 21 -66 -20 -81 -26 -9 -34 -7 -50 9 -25 25 -25 38 2 67 26 28 39 29 68 5z"/>
<path d="M6660 7868 c-107 -55 -122 -177 -33 -259 42 -39 71 -51 124 -52 111
-2 202 137 152 232 -47 91 -154 125 -243 79z m110 -66 c18 -14 21 -25 16 -45
-8 -35 -49 -46 -76 -22 -26 24 -25 50 2 69 28 20 31 20 58 -2z"/>
<path d="M2598 7813 c-59 -88 -158 -273 -158 -295 0 -7 12 -21 28 -30 15 -10
37 -24 48 -33 21 -15 23 -15 37 12 22 42 176 295 189 310 6 7 9 15 7 17 -4 4
-119 56 -124 56 -1 0 -14 -17 -27 -37z"/>
<path d="M7443 7817 c-24 -11 -43 -25 -43 -30 0 -4 13 -27 28 -50 16 -23 57
-91 92 -152 34 -60 67 -115 72 -122 7 -8 22 -3 59 19 27 17 49 35 49 40 0 30
-123 243 -168 291 -30 32 -34 32 -89 4z"/>
<path d="M7158 7783 c7 -3 16 -2 19 1 4 3 -2 6 -13 5 -11 0 -14 -3 -6 -6z"/>
<path d="M6896 7583 c-3 -10 -9 -24 -12 -31 -3 -7 26 -45 70 -90 l76 -79 -6
-44 c-5 -39 -3 -49 21 -77 95 -113 249 -59 249 88 0 110 -82 166 -181 125
l-37 -16 -50 49 c-56 53 -104 92 -116 92 -4 0 -10 -8 -14 -17z m288 -169 c20
-8 21 -48 2 -64 -23 -19 -61 -8 -64 18 -6 40 23 61 62 46z"/>
<path d="M3145 7525 c-62 -67 -63 -68 -95 -56 -49 17 -83 14 -121 -12 -117
-78 -73 -267 61 -267 79 0 148 83 137 165 -5 37 -3 43 16 52 34 16 115 91 122
114 7 22 -7 44 -38 61 -17 9 -28 1 -82 -57z m-131 -131 c32 -32 8 -68 -41 -62
-34 4 -45 44 -17 65 23 17 39 16 58 -3z"/>
<path d="M3560 7560 l-22 -31 47 -55 c27 -31 61 -65 76 -77 26 -18 29 -27 29
-75 0 -81 30 -122 104 -143 32 -8 47 -7 82 6 62 24 89 65 90 139 1 47 5 60 20
68 10 6 45 36 77 66 59 59 73 96 42 122 -23 19 -49 4 -123 -74 l-69 -73 -41
24 -41 24 -42 -21 -42 -22 -76 76 c-42 42 -79 76 -83 76 -4 0 -16 -14 -28 -30z
m304 -192 c13 -22 0 -48 -32 -59 -17 -7 -25 -3 -38 17 -16 23 -15 26 2 45 21
23 52 22 68 -3z"/>
<path d="M4387 7583 c-4 -3 -7 -20 -7 -37 0 -24 14 -45 71 -102 70 -71 71 -72
72 -129 2 -54 4 -59 46 -96 36 -32 51 -39 86 -39 88 0 150 74 141 168 -2 28 0
52 4 52 5 0 41 27 80 61 64 55 69 62 59 82 -28 53 -45 49 -129 -30 -70 -65
-72 -66 -104 -55 -43 16 -61 15 -97 -4 l-30 -15 -42 47 c-66 75 -131 117 -150
97z m312 -207 c25 -30 -22 -76 -58 -56 -24 13 -31 30 -19 53 11 21 61 23 77 3z"/>
<path d="M3393 7453 c-23 -3 -33 -10 -37 -28 -4 -14 -6 -644 -5 -1402 1 -1068
4 -1386 14 -1414 12 -36 11 -38 -27 -73 -33 -31 -38 -42 -38 -81 0 -63 31 -96
96 -102 59 -5 102 18 126 67 20 42 10 75 -37 120 -28 28 -32 36 -22 48 19 24
24 337 23 1639 -1 787 -4 1205 -11 1211 -14 14 -45 19 -82 15z"/>
<path d="M6673 7433 c-5 -16 -8 -656 -8 -1423 0 -1280 1 -1398 16 -1421 16
-24 16 -26 -11 -44 -72 -48 -66 -150 10 -190 50 -26 94 -19 136 20 34 33 36
38 31 81 -4 35 -13 55 -40 82 -31 33 -34 40 -24 62 13 28 24 2628 12 2778 l-7
82 -54 0 c-50 0 -54 -2 -61 -27z"/>
<path d="M5013 7438 c-6 -10 -6 -2078 1 -2085 0 -1 28 -3 61 -4 l60 -3 3 1000
c2 549 0 1023 -3 1052 l-6 52 -54 0 c-32 0 -57 -5 -62 -12z"/>
<path d="M2285 7423 c-95 -50 -132 -152 -86 -241 23 -46 46 -67 94 -87 82 -34
184 -4 220 65 27 52 19 143 -16 196 -50 75 -142 104 -212 67z m99 -74 c30 -24
33 -45 9 -71 -17 -19 -49 -23 -72 -9 -21 13 -18 71 4 87 24 18 28 18 59 -7z"/>
<path d="M4214 7419 c-18 -20 -19 -44 -25 -488 -8 -663 -1 -1219 17 -1248 19
-30 64 -30 90 -2 18 20 19 51 22 848 3 913 3 903 -54 909 -21 2 -36 -4 -50
-19z"/>
<path d="M5859 7414 c-23 -28 -30 -274 -27 -1010 3 -770 0 -732 55 -748 14 -5
30 1 50 18 l28 24 2 841 c2 509 -1 851 -7 866 -8 21 -16 25 -49 25 -23 0 -44
-6 -52 -16z"/>
<path d="M7711 7417 c-19 -7 -48 -29 -65 -50 -28 -35 -31 -46 -31 -106 0 -55
4 -74 25 -103 45 -66 113 -88 197 -63 110 33 155 161 92 263 -39 66 -129 90
-218 59z m107 -63 c12 -8 22 -24 22 -34 0 -21 -45 -60 -69 -60 -40 0 -55 58
-24 92 20 22 42 23 71 2z"/>
<path d="M7168 7009 c-78 -63 -73 -151 9 -193 l45 -22 -1 -175 c-1 -96 -3
-477 -6 -847 -2 -382 -1 -682 4 -695 10 -27 58 -50 92 -45 14 2 29 17 41 39
16 31 17 44 9 80 -7 28 -10 345 -10 854 0 697 2 813 14 829 9 11 15 41 15 68
0 90 -44 138 -127 138 -39 0 -56 -6 -85 -31z m71 -48 c19 -12 6 -41 -19 -41
-25 0 -38 29 -19 41 8 5 16 9 19 9 3 0 11 -4 19 -9z"/>
<path d="M2234 6992 c-19 -46 -70 -301 -79 -398 l-7 -72 49 -4 c26 -3 55 -8
64 -12 13 -6 19 12 37 116 12 68 31 166 42 218 28 135 27 158 -7 166 -16 3
-40 10 -56 14 -25 8 -28 6 -43 -28z"/>
<path d="M2842 7010 c-45 -28 -66 -81 -57 -140 9 -54 8 -1551 -1 -1695 -5 -91
-4 -102 13 -117 34 -31 76 -33 109 -5 l29 25 1 858 c0 835 1 858 19 868 11 6
34 25 52 43 46 44 45 81 -5 134 -48 52 -107 62 -160 29z"/>
<path d="M7813 7007 c-57 -10 -58 -13 -43 -67 8 -30 90 -416 90 -425 0 -4 124
7 129 11 4 4 -16 127 -40 244 -31 151 -60 250 -73 249 -6 -1 -35 -6 -63 -12z"/>
<path d="M4740 6980 c-38 -8 -55 -21 -79 -60 -33 -55 -23 -100 30 -135 l29
-20 0 -657 0 -657 36 -35 c36 -35 70 -53 81 -43 18 19 21 153 18 751 -3 464
-1 681 7 705 26 83 -43 169 -122 151z"/>
<path d="M3683 6959 c-34 -18 -57 -70 -48 -110 4 -19 11 -585 15 -1259 4 -907
9 -1234 18 -1260 11 -31 10 -38 -8 -62 -31 -42 -27 -103 9 -138 16 -16 40 -32
54 -35 54 -14 127 48 127 107 0 25 -34 88 -49 88 -5 0 -12 533 -16 1244 l-7
1245 21 27 c30 38 29 103 -3 133 -27 26 -82 35 -113 20z"/>
<path d="M6390 6963 c-8 -3 -27 -17 -42 -31 -36 -33 -38 -87 -5 -128 l22 -28
0 -571 c0 -313 -4 -871 -8 -1240 l-9 -669 -25 -30 c-21 -25 -24 -37 -20 -73
11 -98 110 -130 184 -61 43 40 40 101 -8 154 -15 16 -17 26 -10 51 17 59 24
339 32 1414 5 596 10 1101 11 1123 3 62 -63 111 -122 89z"/>
<path d="M5354 6931 c-68 -42 -63 14 -64 -823 0 -605 2 -758 12 -758 7 0 39
24 70 54 l57 53 -2 637 -2 636 32 11 c111 36 91 190 -27 205 -34 4 -52 0 -76
-15z"/>
<path d="M3124 6688 c-11 -5 -28 -23 -38 -38 -15 -27 -16 -92 -13 -882 l5
-853 -30 -25 c-23 -19 -31 -36 -35 -72 -5 -44 -3 -50 30 -83 28 -28 43 -35 75
-35 50 0 96 35 112 86 11 32 9 41 -13 84 -24 47 -25 52 -16 157 4 59 9 449 9
867 1 686 0 760 -15 776 -21 23 -45 29 -71 18z"/>
<path d="M6965 6680 c-16 -18 -17 -68 -16 -870 1 -468 6 -861 10 -873 7 -17 2
-29 -20 -55 -42 -48 -40 -103 4 -147 64 -64 134 -55 180 23 23 39 16 81 -21
125 l-27 32 6 450 c4 248 7 639 8 870 1 474 3 465 -68 465 -25 0 -44 -7 -56
-20z"/>
<path d="M8952 6584 c-33 -23 -54 -71 -47 -104 20 -92 140 -108 180 -25 23 49
19 73 -19 111 -38 38 -77 44 -114 18z m54 -63 c-10 -15 -22 -14 -41 5 -12 13
-13 19 -4 31 11 12 15 11 32 -5 11 -11 16 -25 13 -31z"/>
<path d="M4482 6537 c-22 -23 -22 -25 -22 -469 0 -499 -2 -483 72 -494 29 -5
38 -3 46 13 7 12 11 191 13 481 2 446 2 463 -17 477 -28 21 -68 18 -92 -8z"/>
<path d="M5581 6536 l-23 -24 2 -443 c1 -375 3 -447 16 -466 17 -27 43 -29 84
-8 l30 16 2 412 c3 508 4 494 -18 518 -24 26 -66 24 -93 -5z"/>
<path d="M7555 6552 c-27 -5 -61 -38 -75 -72 -9 -22 -8 -38 3 -76 11 -40 13
-130 10 -474 -5 -438 -2 -480 34 -480 10 0 39 18 65 40 l47 40 5 443 c4 243 7
463 8 489 4 67 -34 102 -97 90z"/>
<path d="M3944 6540 c-12 -5 -26 -14 -30 -22 -4 -7 -7 -218 -6 -468 2 -450 2
-455 23 -472 29 -24 53 -22 86 6 l28 24 2 437 c2 371 0 442 -13 466 -8 16 -21
29 -28 29 -8 0 -20 2 -28 4 -7 3 -23 1 -34 -4z"/>
<path d="M6142 6530 c-17 -11 -32 -25 -33 -32 0 -7 0 -213 0 -458 l-1 -445 29
-17 c38 -24 70 -22 87 5 22 34 28 920 6 941 -26 25 -54 27 -88 6z"/>
<path d="M2524 6513 c-23 -25 -25 -34 -20 -83 3 -30 8 -251 12 -490 l6 -434
28 -28 c30 -30 70 -37 88 -15 7 8 12 170 15 482 2 259 7 482 12 497 6 24 2 33
-28 63 -43 43 -78 46 -113 8z"/>
<path d="M2091 6409 c-46 -33 -81 -95 -81 -144 0 -46 34 -109 75 -141 53 -40
145 -46 195 -12 56 38 80 82 80 147 0 145 -156 232 -269 150z m124 -55 c26
-26 16 -77 -17 -88 -52 -18 -89 44 -51 86 20 22 46 23 68 2z"/>
<path d="M7897 6426 c-105 -38 -144 -148 -90 -252 55 -107 229 -110 299 -7 65
96 17 232 -91 262 -51 14 -71 13 -118 -3z m99 -81 c22 -33 6 -72 -32 -81 -35
-9 -58 6 -62 40 -7 59 63 89 94 41z"/>
<path d="M751 5994 c-31 -40 -37 -87 -14 -126 32 -55 97 -51 137 8 26 39 24
70 -9 120 -23 35 -86 34 -114 -2z"/>
<path d="M2207 6013 l-59 -4 7 -72 c18 -194 64 -383 93 -381 6 1 34 2 60 3
l49 1 -23 143 c-12 78 -27 181 -34 230 -8 54 -16 86 -24 85 -6 -1 -37 -3 -69
-5z"/>
<path d="M7850 5999 c0 -13 -16 -116 -36 -227 -20 -112 -34 -205 -32 -207 2
-2 28 -6 59 -10 l55 -7 27 89 c28 92 57 258 57 331 l0 42 -49 0 c-27 0 -56 3
-65 6 -12 5 -16 0 -16 -17z"/>
<path d="M2258 5460 c-52 -28 -81 -73 -85 -134 -10 -133 125 -218 242 -153 54
30 99 115 90 171 -8 53 -20 72 -67 106 -50 37 -122 40 -180 10z m96 -52 c56
-25 33 -92 -28 -86 -23 2 -33 10 -41 32 -8 24 -6 31 14 47 27 22 24 22 55 7z"/>
<path d="M7764 5471 c-74 -18 -133 -93 -134 -169 0 -41 33 -107 63 -126 12 -8
42 -20 67 -27 114 -30 219 44 222 154 2 106 -112 194 -218 168z m81 -81 c41
-46 -17 -101 -70 -66 -31 20 -32 39 -3 66 27 25 50 25 73 0z"/>
<path d="M4218 5430 c-44 -8 -111 -50 -133 -83 -8 -13 -19 -57 -25 -98 -11
-85 -12 -405 -1 -589 8 -146 23 -187 85 -232 37 -27 47 -29 107 -26 55 3 84
12 175 56 117 57 354 198 354 211 0 5 -8 19 -19 32 -28 36 -51 85 -51 109 0
17 -4 19 -27 14 -63 -15 -197 -55 -230 -69 -37 -16 -53 -13 -53 9 0 20 151 86
223 98 55 9 66 14 71 34 3 12 3 29 0 37 -3 8 -71 36 -156 63 -135 44 -172 63
-155 80 3 4 72 -8 152 -25 80 -17 150 -31 155 -31 6 0 21 21 34 48 13 26 34
58 46 71 13 13 19 26 14 30 -301 211 -453 282 -566 261z"/>
<path d="M5811 5423 c-71 -14 -352 -161 -458 -240 l-32 -24 34 -45 c19 -25 38
-56 41 -70 3 -13 7 -24 9 -24 10 0 219 44 263 55 69 18 104 6 68 -24 -17 -15
-131 -53 -224 -76 -80 -19 -102 -34 -102 -70 0 -20 9 -25 83 -44 123 -32 223
-70 242 -91 29 -32 -3 -34 -91 -6 -82 26 -205 56 -230 56 -8 0 -14 -4 -14 -9
0 -5 -16 -37 -35 -71 -28 -49 -33 -66 -24 -76 19 -24 222 -142 333 -195 57
-27 128 -55 158 -61 100 -21 176 12 218 97 l25 50 0 376 0 375 -28 43 c-45 67
-129 94 -236 74z"/>
<path d="M4982 5162 c-114 -41 -182 -133 -182 -246 1 -141 101 -251 242 -263
51 -5 66 -2 124 27 54 27 72 42 102 89 31 48 37 66 40 128 5 82 -8 130 -50
189 -59 83 -170 113 -276 76z m118 -92 c36 -36 18 -67 -52 -89 -70 -23 -105
33 -53 84 30 31 77 33 105 5z"/>
<path d="M2484 5112 c-17 -15 -39 -32 -50 -38 -18 -11 -18 -14 16 -85 38 -80
137 -236 163 -257 13 -11 21 -11 46 2 16 9 40 16 51 16 26 0 21 23 -20 90 -15
25 -58 103 -94 173 -37 70 -71 127 -74 127 -4 0 -21 -13 -38 -28z"/>
<path d="M7514 4973 c-120 -212 -120 -211 -89 -223 14 -5 38 -16 55 -25 l29
-15 57 73 c54 68 126 202 139 257 5 22 1 28 -27 43 -18 9 -42 23 -54 32 -19
14 -23 9 -110 -142z"/>
<path d="M968 5073 c7 -3 16 -2 19 1 4 3 -2 6 -13 5 -11 0 -14 -3 -6 -6z"/>
<path d="M2702 4650 c-23 -16 -48 -43 -57 -59 -22 -43 -19 -119 5 -159 27 -44
98 -76 152 -69 92 12 168 105 153 186 -18 97 -57 131 -153 131 -50 0 -66 -5
-100 -30z m128 -50 c25 -25 25 -32 -2 -57 -38 -33 -48 -36 -69 -17 -23 21 -24
42 -3 72 19 27 48 28 74 2z"/>
<path d="M7251 4658 c-32 -16 -48 -32 -62 -62 -23 -50 -24 -76 -4 -124 21 -49
52 -81 100 -103 78 -36 155 -14 209 60 50 67 43 131 -22 194 -64 62 -142 75
-221 35z m139 -68 c27 -27 26 -59 -2 -69 -29 -10 -75 5 -88 29 -13 24 -13 26
6 44 21 22 60 20 84 -4z"/>
<path d="M5004 4471 c-62 -38 -96 -108 -77 -159 8 -21 -1 -34 -76 -109 -67
-65 -89 -82 -101 -75 -61 37 -147 19 -206 -44 l-41 -44 -118 0 c-116 0 -118 0
-152 30 -41 37 -72 38 -112 4 -26 -21 -31 -33 -31 -69 0 -54 23 -84 73 -92 34
-5 41 -2 72 32 l36 37 112 -7 c62 -4 112 -8 112 -9 0 0 11 -23 25 -51 32 -65
92 -98 160 -91 l45 5 73 -82 c40 -45 79 -90 85 -100 13 -18 15 -18 45 8 32 27
32 28 16 54 -9 14 -47 56 -85 92 -38 37 -69 74 -69 83 0 9 7 28 16 41 15 23
22 25 104 25 l88 0 24 -37 c15 -25 26 -65 33 -118 8 -63 14 -81 28 -83 15 -3
17 5 17 65 0 41 6 78 15 93 8 14 22 40 32 58 l17 33 79 -4 c63 -3 83 -8 100
-25 28 -28 18 -49 -78 -156 -41 -47 -75 -89 -75 -95 0 -10 57 -61 69 -61 3 0
11 12 17 28 6 15 41 64 78 108 l66 82 40 -10 c76 -20 181 47 197 123 l6 29
115 0 116 0 32 -36 c28 -30 38 -35 71 -32 30 2 42 10 60 37 32 47 29 77 -11
117 -45 45 -87 46 -124 4 l-26 -30 -117 0 -116 0 -24 35 c-35 52 -97 79 -162
71 -28 -4 -57 -12 -63 -17 -8 -7 -26 6 -60 44 -27 29 -66 67 -86 83 -36 27
-38 32 -38 84 0 62 -20 100 -66 131 -39 25 -119 25 -160 0z m101 -66 c14 -13
25 -29 25 -34 0 -15 -35 -31 -69 -31 -25 0 -32 5 -37 27 -6 20 -2 31 16 45 29
24 36 23 65 -7z m-39 -252 c10 -37 -4 -85 -33 -115 -26 -27 -31 -28 -120 -28
-91 0 -93 1 -99 25 -5 22 1 32 42 68 27 23 66 59 87 80 l37 38 40 -22 c23 -13
43 -33 46 -46z m203 -12 c84 -77 85 -78 75 -112 l-10 -33 -89 2 c-90 3 -90 3
-122 39 -29 31 -33 44 -33 89 0 52 1 54 38 73 20 11 42 20 47 20 6 0 48 -35
94 -78z m266 -74 c13 -10 16 -21 11 -40 -12 -48 -96 -49 -96 -2 0 46 47 69 85
42z m-839 -23 c16 -24 16 -26 -2 -44 -34 -32 -61 -34 -80 -5 -15 23 -15 27 0
50 22 33 60 33 82 -1z"/>
<path d="M2960 4350 l-42 -50 109 -110 c102 -103 143 -130 143 -95 0 8 14 24
30 37 17 12 29 29 28 37 -4 18 -200 229 -215 230 -6 1 -30 -21 -53 -49z"/>
<path d="M6998 4284 c-60 -58 -108 -109 -108 -113 0 -4 12 -14 26 -22 14 -7
37 -26 50 -42 l24 -29 57 48 c92 79 173 161 173 176 0 14 -90 88 -106 88 -5 0
-57 -48 -116 -106z"/>
<path d="M7703 4084 l-52 -55 -93 -10 c-128 -13 -133 -18 -142 -124 -5 -72
-12 -97 -41 -153 -41 -77 -40 -93 10 -188 27 -51 33 -77 39 -155 9 -125 17
-133 114 -125 40 4 79 9 87 12 9 4 21 -9 36 -38 53 -104 112 -147 184 -134 35
7 65 36 123 120 l33 47 62 -1 c160 -4 160 -4 168 143 6 103 9 116 38 163 17
28 31 57 31 65 0 8 -11 38 -25 68 -15 32 -29 86 -35 137 -5 46 -14 93 -20 105
-13 24 -83 58 -120 59 -60 0 -133 28 -157 59 -34 43 -73 61 -135 61 -51 0 -54
-2 -105 -56z m166 -27 c7 -6 17 -22 22 -35 8 -20 4 -31 -16 -58 -35 -45 -81
-47 -127 -5 -32 29 -32 31 -18 58 29 52 98 72 139 40z m-220 -224 c1 -22 -2
-23 -84 -23 l-85 0 0 65 c0 72 0 72 90 77 l45 3 17 -50 c9 -27 17 -60 17 -72z
m471 111 l40 -16 0 -59 0 -59 -62 0 c-35 0 -74 3 -87 7 -22 6 -23 9 -17 59 3
29 9 59 12 68 8 21 61 21 114 0z m-310 -34 c12 0 34 7 51 15 41 22 65 7 74
-46 6 -33 3 -47 -14 -70 -12 -15 -21 -34 -21 -41 0 -11 -17 -13 -72 -10 -107
6 -139 44 -123 148 l6 44 39 -20 c22 -11 49 -20 60 -20z m350 -136 c0 -9 8
-28 18 -42 28 -40 32 -58 19 -76 -10 -14 -197 -96 -218 -96 -4 0 -11 21 -15
47 -4 26 -13 62 -20 79 -12 28 -11 35 4 54 14 18 29 21 101 23 56 2 86 7 89
15 6 18 22 15 22 -4z m-489 -30 c15 -14 17 -28 12 -103 -3 -47 -7 -87 -8 -89
-1 -2 -43 7 -92 18 -67 16 -98 30 -127 54 -44 36 -45 60 -5 109 19 26 25 27
111 27 70 0 96 -4 109 -16z m200 -72 c27 -23 30 -69 5 -106 -13 -20 -25 -26
-55 -26 -44 0 -68 21 -77 68 -10 49 16 82 65 82 23 0 48 -8 62 -18z m302 -144
c-3 -35 -8 -90 -12 -123 l-6 -60 -72 1 c-40 0 -74 2 -76 5 -2 2 -7 39 -10 82
-6 63 -4 77 8 77 17 0 144 60 151 71 15 24 22 3 17 -53z m-643 3 c19 -6 54
-15 78 -21 l42 -11 0 -64 c0 -76 -7 -83 -104 -92 l-65 -6 -3 107 c-2 68 1 104
7 102 6 -3 26 -9 45 -15z m410 -87 c22 -92 10 -101 -71 -58 -47 26 -49 26 -89
10 -22 -9 -50 -16 -61 -16 -20 0 -21 4 -15 53 9 65 16 72 57 58 44 -15 101
-14 125 3 25 19 42 3 54 -50z m-47 -115 c20 -11 37 -26 37 -33 0 -8 -21 -37
-46 -65 -54 -61 -82 -65 -124 -21 -32 35 -54 84 -47 104 7 19 95 46 122 39 11
-3 37 -14 58 -24z"/>
<path d="M3310 4098 c-25 -14 -60 -44 -79 -69 -31 -40 -33 -48 -28 -97 10 -98
65 -152 155 -152 106 0 192 86 192 192 0 79 -56 134 -147 144 -39 5 -57 1 -93
-18z m110 -62 c19 -24 8 -60 -23 -70 -35 -13 -61 1 -65 34 -7 42 60 68 88 36z"/>
<path d="M6720 4109 c-43 -13 -88 -54 -107 -97 -33 -78 24 -187 119 -227 63
-26 142 2 191 67 28 37 28 122 1 168 -42 73 -130 111 -204 89z m80 -81 c37
-40 20 -78 -35 -78 -37 0 -55 15 -55 46 0 23 33 54 57 54 7 0 21 -10 33 -22z"/>
<path d="M3616 3876 c-26 -62 -28 -91 -9 -109 22 -19 257 -133 293 -142 22 -5
28 0 51 50 l26 56 -26 18 c-14 10 -68 40 -120 66 -52 26 -112 58 -133 71 -50
32 -65 30 -82 -10z"/>
<path d="M6346 3824 c-87 -46 -161 -86 -164 -89 -3 -2 8 -30 24 -62 16 -32 30
-59 31 -61 2 -5 305 146 327 162 17 14 17 17 -15 75 -19 34 -36 61 -39 60 -3
-1 -77 -39 -164 -85z"/>
<path d="M4093 3711 c-82 -38 -122 -164 -76 -243 21 -38 93 -78 138 -78 44 0
129 43 153 77 35 50 48 114 31 158 -33 88 -152 130 -246 86z m123 -76 c16 -24
15 -27 -1 -45 -26 -29 -53 -34 -80 -16 -29 19 -32 42 -8 68 24 27 69 23 89 -7z"/>
<path d="M5932 3723 c-13 -3 -44 -24 -69 -48 l-45 -44 4 -64 c7 -112 69 -177
168 -177 50 0 89 19 124 60 39 47 49 98 31 151 -34 94 -114 141 -213 122z m76
-79 c44 -31 21 -74 -40 -74 -32 0 -39 4 -44 25 -4 18 -1 32 11 45 22 24 43 25
73 4z"/>
<path d="M8534 3654 c-133 -65 -188 -206 -135 -344 41 -108 104 -156 215 -167
106 -10 200 44 254 145 26 49 32 71 32 121 0 34 -6 77 -14 96 -21 48 -94 125
-141 146 -50 23 -167 25 -211 3z m165 -54 c44 -12 77 -44 106 -100 49 -99 40
-159 -34 -231 -126 -122 -292 -59 -326 123 -25 135 113 249 254 208z"/>
<path d="M8558 3543 c-16 -4 -18 -18 -18 -118 0 -62 3 -120 6 -129 3 -9 17
-16 30 -16 22 0 24 4 24 50 0 28 3 50 8 50 19 0 50 -32 67 -69 18 -42 40 -52
63 -29 18 18 15 41 -13 78 l-25 34 20 33 c25 43 25 78 0 103 -16 16 -32 20
-82 19 -35 -1 -71 -3 -80 -6z m120 -65 c3 -22 -2 -30 -22 -39 -35 -16 -56 -5
-56 29 0 37 8 44 45 40 24 -2 31 -8 33 -30z"/>
<path d="M4998 3570 c-138 -73 -120 -279 28 -320 106 -30 224 60 224 171 0 54
-39 120 -85 146 -50 28 -117 29 -167 3z m104 -57 c10 -9 18 -24 18 -34 0 -25
-43 -51 -77 -47 -37 4 -44 47 -14 77 25 25 48 27 73 4z"/>
<path d="M5620 3558 c-58 -14 -148 -32 -200 -38 l-95 -13 0 -68 c0 -81 -10
-77 148 -54 144 22 278 55 283 70 3 7 -3 39 -13 71 l-18 59 -105 -27z"/>
<path d="M4404 3510 l-10 -60 65 -21 c56 -17 293 -58 341 -59 10 0 15 10 15
33 0 17 4 48 8 68 l7 37 -57 7 c-32 3 -113 17 -181 31 -181 35 -176 36 -188
-36z"/>
<path d="M1685 3049 c-94 -11 -174 -40 -261 -94 -88 -55 -149 -121 -197 -213
-48 -92 -67 -175 -67 -302 0 -187 53 -323 175 -445 118 -118 235 -174 385
-182 136 -8 274 36 397 126 43 31 133 137 133 157 0 6 -20 25 -44 42 -24 18
-63 52 -87 77 -47 50 -64 55 -74 25 -14 -43 -108 -126 -170 -150 -133 -52
-267 -21 -359 81 -70 78 -90 141 -91 279 0 110 1 118 32 175 62 121 169 185
304 185 113 0 244 -59 286 -130 9 -17 22 -30 28 -30 10 0 165 160 165 171 0
16 -152 150 -195 172 -103 52 -229 72 -360 56z"/>
<path d="M4978 2968 c-3 -40 -6 -315 -7 -610 l-2 -538 120 0 120 0 7 47 c4 26
4 191 0 366 -5 203 -4 318 2 316 13 -5 155 -193 256 -341 45 -64 124 -178 176
-252 l94 -136 124 0 125 0 -7 31 c-3 17 -6 292 -6 610 l0 579 -126 0 -126 0 6
-342 c3 -189 3 -360 -1 -381 l-8 -39 -21 29 c-11 15 -60 84 -109 153 -48 69
-126 179 -173 245 -135 190 -166 237 -196 288 l-27 47 -108 0 -109 0 -4 -72z"/>
<path d="M2603 2785 c-85 -24 -263 -106 -263 -121 0 -12 126 -154 147 -165 21
-11 27 -9 56 20 67 64 195 90 266 53 48 -24 73 -62 78 -119 l5 -48 -139 -1
c-150 -1 -195 -10 -290 -56 -73 -35 -131 -87 -158 -143 -29 -59 -28 -194 2
-251 30 -56 78 -103 133 -128 56 -26 223 -30 280 -7 44 18 107 60 141 95 l26
26 6 -46 c8 -71 16 -75 151 -76 64 -1 119 2 122 5 4 3 -4 21 -17 39 -24 33
-24 36 -29 373 l-5 340 -29 53 c-36 65 -82 107 -156 141 -47 22 -70 26 -165
28 -72 2 -128 -3 -162 -12z m268 -572 c3 -54 -4 -110 -15 -128 -8 -11 -38 -34
-67 -50 -46 -25 -65 -29 -131 -30 -96 0 -123 19 -123 89 0 76 46 108 177 125
114 15 158 13 159 -6z"/>
<path d="M3473 2785 c-141 -38 -232 -132 -249 -257 -5 -33 -1 -66 14 -115 37
-119 108 -166 331 -219 127 -29 161 -50 161 -98 0 -82 -112 -107 -238 -55 -34
15 -91 46 -127 69 -36 24 -67 41 -68 39 -1 -2 -28 -38 -60 -80 -31 -42 -57
-81 -57 -87 0 -15 65 -69 112 -93 177 -90 369 -109 504 -49 59 25 121 91 155
163 54 115 34 237 -49 304 -56 45 -91 61 -204 88 -198 50 -247 83 -222 150 11
28 64 47 129 47 67 -1 110 -15 187 -62 27 -17 52 -30 56 -30 4 0 18 18 31 39
13 22 40 57 61 80 l37 40 -52 34 c-28 19 -69 44 -91 55 -98 50 -253 66 -361
37z"/>
<path d="M4340 2784 c-30 -8 -98 -34 -150 -58 -52 -24 -103 -46 -113 -50 -18
-6 -18 -7 1 -33 11 -16 47 -57 80 -93 l60 -65 29 26 c51 48 112 72 193 76 119
7 177 -36 182 -131 l3 -49 -101 2 c-221 5 -406 -66 -463 -178 -30 -58 -42
-144 -30 -204 31 -151 136 -223 311 -216 94 4 163 32 235 94 23 19 44 35 47
35 3 0 6 -18 6 -41 0 -76 5 -79 140 -79 66 0 120 3 120 6 0 3 -6 15 -12 27
-10 16 -14 117 -18 367 -5 323 -6 348 -26 390 -42 91 -113 148 -216 176 -68
18 -207 17 -278 -2z m275 -611 c-4 -32 -15 -69 -24 -83 -40 -55 -190 -102
-257 -80 -38 13 -74 60 -74 97 0 30 45 80 84 93 34 11 158 26 234 29 l43 1 -6
-57z"/>
<path d="M6446 2785 c-145 -40 -271 -138 -329 -257 -119 -243 -22 -533 220
-661 160 -84 337 -72 500 34 128 83 204 201 225 349 44 296 -181 551 -482 549
-47 0 -107 -7 -134 -14z m248 -239 c24 -14 54 -39 66 -55 94 -133 51 -355 -82
-420 -89 -43 -222 -18 -290 55 -81 86 -88 260 -15 357 19 25 54 53 87 70 48
25 63 28 122 24 48 -3 79 -11 112 -31z"/>
<path d="M7901 2791 l-93 -6 -72 -180 c-40 -99 -99 -258 -132 -352 -32 -95
-62 -173 -65 -173 -4 0 -11 17 -17 38 -6 20 -60 178 -121 350 -61 173 -111
316 -111 318 0 2 -65 4 -145 4 l-145 0 19 -47 c52 -134 172 -429 241 -593 42
-102 90 -219 106 -260 16 -41 35 -75 42 -74 6 1 71 2 142 3 l131 1 30 67 c16
37 90 218 164 402 74 185 150 372 169 416 19 43 32 83 30 87 -5 8 -13 8 -173
-1z"/>
<path d="M8360 2777 c-108 -39 -152 -67 -226 -141 -54 -54 -76 -85 -93 -129
-72 -195 -28 -401 118 -546 160 -159 392 -196 585 -93 82 43 196 164 241 254
32 67 38 89 43 166 4 73 1 103 -16 159 -40 130 -137 240 -271 306 -83 41 -87
42 -200 45 -101 2 -124 0 -181 -21z m287 -233 c26 -16 61 -48 77 -72 26 -36
30 -53 34 -126 9 -169 -52 -259 -201 -296 -147 -37 -311 122 -294 285 11 109
73 195 165 230 61 24 162 14 219 -21z"/>
<path d="M8980 1841 c0 -6 -7 -11 -15 -11 -19 0 -19 -24 0 -40 13 -11 18 -10
30 6 8 10 14 25 12 33 -2 17 -27 27 -27 12z"/>
<path d="M8473 1353 c9 -2 23 -2 30 0 6 3 -1 5 -18 5 -16 0 -22 -2 -12 -5z"/>
<path d="M7479 1333 c-9 -2 -92 -7 -185 -11 -164 -7 -169 -8 -172 -29 -4 -26
6 -28 243 -41 153 -8 161 -8 183 11 28 26 28 42 0 61 -22 16 -38 18 -69 9z"/>
<path d="M1621 1316 c-38 -46 52 -57 289 -35 101 9 143 20 129 33 -2 2 -94 7
-204 11 -177 6 -203 5 -214 -9z"/>
<path d="M2644 1316 c-17 -45 26 -80 80 -65 17 5 69 9 116 10 140 2 204 11
208 31 4 23 -12 26 -221 32 -149 5 -178 4 -183 -8z"/>
<path d="M6723 1306 c-22 -19 -28 -32 -28 -66 0 -34 6 -47 28 -66 36 -31 52
-30 88 5 41 41 40 90 -2 125 -38 32 -50 32 -86 2z"/>
<path d="M3356 1295 c-33 -30 -34 -68 -1 -100 50 -51 135 -18 135 53 0 67 -81
96 -134 47z"/>
<path d="M5015 1295 c-30 -30 -32 -64 -4 -99 27 -34 77 -36 107 -3 67 72 -34
172 -103 102z"/>
<path d="M6003 1305 c-47 -33 -36 -123 16 -140 47 -15 106 68 81 114 -21 40
-62 51 -97 26z"/>
<path d="M6345 1295 c-53 -52 -15 -125 64 -125 53 0 81 23 81 66 0 48 -37 84
-85 84 -25 0 -44 -8 -60 -25z"/>
<path d="M3701 1284 c-25 -32 -26 -46 -6 -83 14 -28 33 -41 61 -41 23 0 64 47
64 73 0 37 -36 77 -70 77 -19 0 -36 -9 -49 -26z"/>
<path d="M4047 1292 c-22 -25 -21 -75 1 -95 58 -53 131 24 82 86 -25 31 -60
35 -83 9z"/>
<path d="M4662 1278 c-28 -28 -5 -88 33 -88 51 0 73 47 42 88 -12 15 -59 16
-75 0z"/>
<path d="M5415 1270 c-18 -20 -20 -51 -3 -68 29 -29 98 -1 98 40 0 35 -70 56
-95 28z"/>
<path d="M5677 1263 c-12 -11 -7 -50 7 -62 18 -15 50 -1 60 26 11 28 -46 58
-67 36z"/>
</g>
</svg>
